<svg xmlns="http://www.w3.org/2000/svg" viewBox="0 0 255.28 66.82"><defs><style>.cls-1{fill:#fff;}.cls-2{fill:none;}</style></defs><g id="Capa_2" data-name="Capa 2"><g id="Capa_1-2" data-name="Capa 1"><path class="cls-1" d="M226.28,31c-2,0-4-.07-6,0a2.59,2.59,0,0,0-1.77.92,3.54,3.54,0,0,0-.12,3.77,1.54,1.54,0,0,0,1.19.75c1.19-.18,1.23.48,1.23,1.31v11.1a5.35,5.35,0,0,1-.05.55l-.18,0-1.23-4.24Q217.61,39,215.83,32.8c-.44-1.54-1-1.93-2.59-1.75a12.56,12.56,0,0,1-1.83.16c-1.45,0-2.9-.19-4.36-.2a2.63,2.63,0,0,0-2.54,2.77c-.09,1.8.52,2.61,2.13,2.77.56.06.79.29.79.83V51.84c0,.61-.3.82-.88.83a2.23,2.23,0,0,0-1.15.28c-.82.53-1.13,2.16-.73,3.39a2.51,2.51,0,0,0,2.39,1.86q2.94,0,5.88,0a2.44,2.44,0,0,0,2.3-1.83,3.22,3.22,0,0,0-.68-3.39,1.59,1.59,0,0,0-.94-.3c-1,.08-1.17-.47-1.16-1.32,0-2.65,0-5.29,0-7.94v-4.2a10.49,10.49,0,0,1,1,2.34l4.77,14.82c.29.91.66,1.77,1.79,1.79,1.46,0,2.92,0,4.38,0a1.44,1.44,0,0,0,1.52-1.46c.06-.81.09-1.63.09-2.44q0-8.25,0-16.5c0-.74.12-1.2,1-1.26a1.63,1.63,0,0,0,1.14-.81,3.81,3.81,0,0,0-.08-3.62A1.93,1.93,0,0,0,226.28,31Z"/><path class="cls-1" d="M158.35,52.89c-1.26.18-1.52-.6-1.77-1.56q-2.43-9.28-4.92-18.57A1.91,1.91,0,0,0,149.51,31c-1.25-.05-2.5,0-3.76,0a2,2,0,0,0-2.29,1.82c-.48,1.7-.94,3.4-1.4,5.1-1.23,4.55-2.47,9.09-3.69,13.64-.22.83-.53,1.34-1.56,1.35a2,2,0,0,0-1.43,1c-1,2.09.18,4.59,3,4.27a43.73,43.73,0,0,1,4.86-.05c.47,0,.95.07,1.42,0a2.45,2.45,0,0,0,2.09-2.59c0-1.62-.44-2.26-1.78-2.56a.94.94,0,0,1-.55-.7c.17-2.54.19-2.53,2.76-2.54h.31a19.64,19.64,0,0,1,2,0c.25,0,.66.29.68.49a19.23,19.23,0,0,1,.13,2.63c0,.05-.5.06-.76.14s-.72.16-.88.38a3.62,3.62,0,0,0-.25,3.41,2.07,2.07,0,0,0,2.18,1.34h6.69a2.35,2.35,0,0,0,2.32-1.51,3.3,3.3,0,0,0-.21-3.3A1.34,1.34,0,0,0,158.35,52.89Zm-12.6-8.11c.53-2.74,1.06-5.41,1.58-8.08l.23,0c.54,2.68,1.07,5.35,1.63,8.11Z"/><path class="cls-1" d="M202.36,52.89c-1.22.12-1.52-.56-1.77-1.55-1.59-6.14-3.23-12.27-4.86-18.4-.4-1.51-.89-1.88-2.43-1.92-.65,0-1.29,0-1.94,0-3.43,0-3.42,0-4.32,3.31-1.54,5.73-3.11,11.46-4.65,17.19-.23.87-.52,1.51-1.61,1.39a1.41,1.41,0,0,0-.92.32,3.26,3.26,0,0,0-.64,3.23,2.41,2.41,0,0,0,2.26,1.75q3.5,0,7,0a2.25,2.25,0,0,0,2.13-1.74,3.19,3.19,0,0,0-.65-3.14.65.65,0,0,0-.45-.21c-1.33.12-1.19-.69-1-1.55a4.78,4.78,0,0,1,.21-1.09c.13-.27.45-.62.69-.63,1.52-.06,3,0,4.71,0,.15.79.27,1.48.41,2.17s0,1.07-.84,1.12a1.67,1.67,0,0,0-1.22.69,3.66,3.66,0,0,0,.14,3.43c.57,1,1.58,1,2.6,1a45.8,45.8,0,0,1,5.37,0c2.85.28,3.76-2.08,3.17-4.2A1.32,1.32,0,0,0,202.36,52.89Zm-12.59-8.18c.53-2.71,1-5.35,1.56-8l.23,0c.54,2.63,1.07,5.26,1.64,8Z"/><path class="cls-1" d="M113.86,52.91c-1.19.11-1.48-.56-1.73-1.51-1.6-6.16-3.24-12.32-4.87-18.48-.38-1.42-.88-1.85-2.34-1.9-1.16,0-2.31,0-3.46,0-1.57,0-2.1.42-2.52,2-.63,2.32-1.25,4.65-1.88,7q-1.59,5.84-3.17,11.68c-.21.77-.47,1.36-1.49,1.3a1.68,1.68,0,0,0-1.26.63A3.1,3.1,0,0,0,91,56.9a2.52,2.52,0,0,0,2.66,1.3c1.29-.09,2.57-.14,3.85-.15.78,0,1.56.14,2.34.14a2.36,2.36,0,0,0,2.43-2.35c.18-1.61-.4-2.46-1.82-2.83a.84.84,0,0,1-.49-.66c.08-.84.27-1.66.41-2.45a1.18,1.18,0,0,1,.28-.09l3,0c2.28,0,2.27,0,2.48,2.3.06.63-.1.93-.78,1-.42,0-1,.23-1.19.54a3.72,3.72,0,0,0,0,3.52c.5,1,1.47,1.07,2.45,1.06,2,0,4,0,6,0A2.45,2.45,0,0,0,115,57a3.44,3.44,0,0,0,0-3.4A1.46,1.46,0,0,0,113.86,52.91ZM101.29,44.8c.54-2.77,1.06-5.45,1.58-8.14h.24c.53,2.67,1.06,5.34,1.61,8.15Z"/><path class="cls-1" d="M180.15,36.46a.77.77,0,0,0,.45-.19,3.15,3.15,0,0,0,.85-3.26,2.4,2.4,0,0,0-2.26-2c-2.29,0-4.59,0-6.88,0-.87,0-1.63.35-1.77,1.22a12.86,12.86,0,0,0,0,3.1,1.2,1.2,0,0,0,.77.83c.9.27.91.82.76,1.58-.48,2.36-.91,4.72-1.37,7.09-.36,1.84-.74,3.68-1.11,5.52l-.25,0c-.78-4.23-1.58-8.46-2.32-12.69a1.51,1.51,0,0,1,.43-1.28c1.39-.71,1.51-1.9,1.42-3.2A2,2,0,0,0,166.51,31q-3,0-6.07,0a2.54,2.54,0,0,0-2.67,1.62,3.57,3.57,0,0,0,.54,3.54,1.19,1.19,0,0,0,.81.31c1-.1,1.28.47,1.48,1.29.86,3.48,1.75,7,2.63,10.45.69,2.72,1.36,5.45,2.08,8.17.42,1.59.93,1.89,2.54,1.82a35,35,0,0,1,3.55,0,1.56,1.56,0,0,0,1.74-1.07,9.15,9.15,0,0,0,.39-1.15q2.43-8.93,4.84-17.86C178.63,37.18,178.83,36.28,180.15,36.46Z"/><path class="cls-1" d="M247.92,47.31c-.83-3.3-3.24-5-6.27-5.92a35,35,0,0,1-3.37-1.12A2.52,2.52,0,0,1,237.09,39a2.22,2.22,0,0,1,1.27-3,2.54,2.54,0,0,1,3.38,1.37c.27.73.37,1.52.63,2.25.4,1.11,1.56,1.57,3.08,1.29A1.85,1.85,0,0,0,247,38.85q0-2.9,0-5.79A2.25,2.25,0,0,0,242.83,32a22.18,22.18,0,0,0-4.29-1.38c-3.36-.34-6.18,1.77-7.29,5.14-1.24,3.78-.12,7.72,2.88,9.57A27.62,27.62,0,0,0,238,47.05a26.31,26.31,0,0,1,2.64,1,3.29,3.29,0,0,1,1.28,1.36A2.72,2.72,0,0,1,240.48,53a2.89,2.89,0,0,1-3.87-1.16,9.36,9.36,0,0,1-.6-2.34,2,2,0,0,0-1.55-1.92,3.17,3.17,0,0,0-3.22.7,1.83,1.83,0,0,0-.42,1.1c0,2.37,0,4.75,0,7.12a1.92,1.92,0,0,0,1.93,2,2.18,2.18,0,0,0,2.45-1.54c.4.22.72.42,1.05.58,2.84,1.36,5.67,1.65,8.38-.27A9.44,9.44,0,0,0,247.92,47.31Z"/><path class="cls-1" d="M85,48.64a7,7,0,0,0,6.35-4.93,11.9,11.9,0,0,0,.19-7.3c-1-3.69-3.63-5.5-7.46-5.42-2.87.07-5.75,0-8.62,0-2.5,0-3.87,1.78-3.11,4.17.27.85.74,1.45,1.75,1.38.71-.06,1,.24,1,1q0,7.06,0,14.14c0,.67-.25,1-1,1a1.6,1.6,0,0,0-1.69,1,3,3,0,0,0,2.91,4.51q3.45-.06,6.89,0a2.72,2.72,0,0,0,2.94-3.08c0-1.85-.76-2.41-2.86-2.27l-.1,0c-.68.08-1-.23-1.06-.9,0-1,0-2,0-3.12C82.53,48.78,83.75,48.75,85,48.64Zm-3.75-11a1.08,1.08,0,0,1,1.25-1.16,4,4,0,0,1,1.82.46c1.35.81,1.79,3.46,1,5.21-.63,1.35-2.27,2-4.06,1.45C81.2,41.62,81.17,39.63,81.21,37.64Z"/><path class="cls-1" d="M135.12,33A1.84,1.84,0,0,0,133,31c-1.15,0-2.3.17-3.45.17-3.89,0-7.79-.11-11.69-.17-2,0-2.51.52-2.49,2.53,0,2.27,0,4.54,0,6.81a11.63,11.63,0,0,0,0,1.32,2.36,2.36,0,0,0,4.62.39,23,23,0,0,0,.14-3.43,7.45,7.45,0,0,1,.06-1.71,1.25,1.25,0,0,1,.89-.74,1.62,1.62,0,0,1,1,.77,2.15,2.15,0,0,1,.12,1.09c0,2.21,0,4.41,0,6.62h0c0,2.27,0,4.55,0,6.82,0,1.33-.08,1.39-1.39,1.23a1.79,1.79,0,0,0-2.09,1.06,3,3,0,0,0,3,4.43c2.23-.07,4.47-.09,6.7,0,2.6.1,3.82-1.19,3.42-3.8a1.76,1.76,0,0,0-2.19-1.68c-1.3.16-1.41.08-1.41-1.22q0-6.36,0-12.72a5.69,5.69,0,0,1,.2-1.81c.14-.35.71-.84,1-.78s.71.59.93,1c.12.22,0,.59-.05.89,0,1.12-.15,2.24-.08,3.35a2.28,2.28,0,0,0,2.23,2.34c1.61.14,2.57-.86,2.61-2.89C135.16,38.25,135.15,35.64,135.12,33Z"/><path class="cls-1" d="M37.42,5.57,6.71,58.77H68.14Zm-.05,4.57h0ZM18.24,44.23c.36-.62.72-1.24,1.07-1.86l2.35-4.09c.24-.42.48-.84.77-1.3a1.65,1.65,0,0,0,.21-.28l.21-.17,0-.3a.85.85,0,0,1,.13-.12l.17-.17,0-.14a5.46,5.46,0,0,1,.62-1.23,7.23,7.23,0,0,0,.4-.66c.31-.58.65-1.14,1-1.71l.17-.29.07-.11a1.17,1.17,0,0,0,.2-.38l.27-.45c.35-.63.7-1.25,1.07-1.86.11-.17.2-.34.29-.51s.18-.33.28-.49.29-.49.43-.73l2.36-4.09c.17-.28.34-.56.5-.85l2.75-4.79,1.33-2.29.2-.17.07-.3,1.71-3,.42-.74.12-.21.48.82,2.55,4.43a1.51,1.51,0,0,1,.15.28l.6,1c.35.6.71,1.2,1,1.82.12.22.24.43.37.63s.23.37.33.56.33.6.51.89l.61,1.05c.35.59.69,1.18,1,1.78.11.21.23.4.35.59.34.54.65,1.09,1,1.63l.71,1.23c.27.46.54.93.8,1.4.1.17.2.35.29.53s.23.43.36.64l.72,1.23c.27.45.53.9.79,1.35l2.84,4.94,1.22,2.09,1,1.67.68,1.18,7.7,13.34h-52Z"/><path class="cls-1" d="M30.86,48.12A3.19,3.19,0,0,0,29,46.58a3.59,3.59,0,0,0-2.62.1,3.1,3.1,0,0,0-1.79,2,4,4,0,0,0-.21,1.45c0,.44,0,.88,0,1.32,0,.16,0,.23-.21.22l-1.1,0c-.13,0-.19,0-.18-.18s0-.15,0-.23c0-2.15,0-4.31,0-6.46a9,9,0,0,1,.41-2.91,5.69,5.69,0,0,1,2.27-3,7.44,7.44,0,0,1,1.22-.64,8,8,0,0,1,2.83-.65l1.5,0H47.61l.42,0a2.61,2.61,0,0,0,.27-.06c.05,0,.11.1.18.11a2.35,2.35,0,0,1,1.85,1.93,4.12,4.12,0,0,1,.1.86c0,3.27,0,6.53,0,9.8,0,.42,0,.84,0,1.25,0,.2,0,.28-.26.27l-1.43,0c-.28,0-.3,0-.3-.31,0-.47,0-.94,0-1.41a3.46,3.46,0,0,0-5.81-2.6,2.31,2.31,0,0,0-.51.59,2.36,2.36,0,0,0-.56,1.36,5,5,0,0,0,0,.78c0,.45,0,.91,0,1.36,0,.14-.06.18-.19.18l-5.1,0H31.34v-.81a5.54,5.54,0,0,0-.24-2.14,4.9,4.9,0,0,0-.24-.52Zm19.06,3s0-.07,0-.11c0-1.28,0-2.57,0-3.85a.39.39,0,0,0-.09-.26,5.52,5.52,0,0,0-.67-.77,7.14,7.14,0,0,0-3.28-1.56,7.44,7.44,0,0,0-1.42-.15,11.09,11.09,0,0,0-4.8.72,6.81,6.81,0,0,0-2.56,1.75,2,2,0,0,0-.5,1.93,3.8,3.8,0,0,0,1.78,2.28.55.55,0,0,0,.28.06h2.13l.24,0V49.91a6,6,0,0,1,.06-.74A4,4,0,0,1,44.23,46a4.13,4.13,0,0,1,4.22,1.76A3.83,3.83,0,0,1,49,49.82c0,.43,0,.86,0,1.32ZM25.56,42.32a3.51,3.51,0,0,0-.23,1.44c0,.42,0,.42.44.42h4.16c.67,0,1-.33,1-.89,0-.95,0-1.9-.09-2.86,0-.08-.09-.17-.14-.25a1.11,1.11,0,0,0-.19-.34A1.7,1.7,0,0,0,29,39.43a3.94,3.94,0,0,0-2.14,1.07c-.32.31-.57.7-.87,1a1.09,1.09,0,0,0-.34.9.21.21,0,0,1-.05.09Zm7.49-1.45c0,.31.05.55.1.78a5.72,5.72,0,0,0,.26.83,4.47,4.47,0,0,0,1.88,2.31,1.4,1.4,0,0,0,2.28-1.22,4.71,4.71,0,0,0-1.44-3.5,2.91,2.91,0,0,0-1.28-.82,1.24,1.24,0,0,0-1.63.81A5.9,5.9,0,0,0,33.05,40.87Zm5-.37h0a3.59,3.59,0,0,0,0,.46,3,3,0,0,0,1.35,2.14A1,1,0,0,0,41,42.47a3,3,0,0,0-.46-2.37,2.24,2.24,0,0,0-1-.9,1,1,0,0,0-1.32.5A5.2,5.2,0,0,0,38,40.5Zm6.16,1.12a2.75,2.75,0,0,0-.78-1.91,1.57,1.57,0,0,0-.55-.37.77.77,0,0,0-1.06.45,1.72,1.72,0,0,0-.12.59,2.52,2.52,0,0,0,.75,1.89,1.75,1.75,0,0,0,.53.37.78.78,0,0,0,1.1-.47A3.24,3.24,0,0,0,44.16,41.62Zm2.16.47a2,2,0,0,0-.68-1.61.66.66,0,0,0-1.09.33,1.75,1.75,0,0,0,.14,1.45,2,2,0,0,0,.57.63.57.57,0,0,0,.88-.24A2.2,2.2,0,0,0,46.32,42.09Zm.3.56a1.51,1.51,0,0,0,.47,1.07.59.59,0,0,0,1-.29,1.51,1.51,0,0,0-.2-1.22.79.79,0,0,0-.83-.48C46.81,41.8,46.62,42.13,46.62,42.65Z"/><path class="cls-1" d="M45,46.9a3,3,0,0,1,3,2.53,3,3,0,0,1-.46,2.07v0a1.6,1.6,0,0,1-.35.47,2.94,2.94,0,0,1-.68.49,3,3,0,0,1-4.41-2,3.61,3.61,0,0,1,0-1.31,2.85,2.85,0,0,1,1.06-1.62A2.63,2.63,0,0,1,45,46.9Z"/><path class="cls-1" d="M25.34,48.3a3.28,3.28,0,0,1,1.19-1.09,3,3,0,0,1,3.61.69,3,3,0,0,1,.23,3.68,2.76,2.76,0,0,1-1.2,1,2.09,2.09,0,0,0-.26.13.94.94,0,0,0-.24.06,3,3,0,0,1-3.29-1.28,2.94,2.94,0,0,1-.18-3c.05-.11.07-.06.09-.2C25.31,48.39,25.31,48.25,25.34,48.3Z"/><rect class="cls-2" width="255.28" height="66.82"/></g></g></svg>