<svg xmlns="http://www.w3.org/2000/svg" viewBox="0 0 185.08 34.16"><defs><style>.cls-1{fill:#fff;}.cls-2{fill:none;}</style></defs><g id="Capa_2" data-name="Capa 2"><g id="Capa_1-2" data-name="Capa 1"><path class="cls-1" d="M158.66,3.48c-2,0-4-.07-6,0a2.54,2.54,0,0,0-1.77.91,3.54,3.54,0,0,0-.12,3.78A1.54,1.54,0,0,0,152,9c1.19-.18,1.22.48,1.22,1.31,0,3.7,0,7.4,0,11.1a5.14,5.14,0,0,1-.06.55L153,22c-.41-1.42-.83-2.83-1.23-4.25-1.19-4.14-2.36-8.28-3.55-12.42-.44-1.54-1-1.92-2.6-1.75a13.84,13.84,0,0,1-1.82.17c-1.45,0-2.9-.19-4.36-.2a2.62,2.62,0,0,0-2.54,2.76c-.09,1.8.51,2.62,2.13,2.77.56.06.79.29.79.83V24.32c0,.61-.3.82-.88.83a2.44,2.44,0,0,0-1.15.28c-.82.53-1.13,2.16-.74,3.39a2.5,2.5,0,0,0,2.4,1.86q2.94,0,5.88,0a2.45,2.45,0,0,0,2.3-1.83,3.2,3.2,0,0,0-.69-3.39,1.55,1.55,0,0,0-.94-.3c-1,.08-1.16-.47-1.15-1.32,0-2.64,0-5.29,0-7.94V11.7a11,11,0,0,1,1,2.34q2.39,7.41,4.76,14.82c.29.91.67,1.77,1.8,1.8,1.46,0,2.92,0,4.37,0a1.43,1.43,0,0,0,1.52-1.46c.06-.81.1-1.63.1-2.44,0-5.5,0-11,0-16.5,0-.74.12-1.2,1-1.25a1.69,1.69,0,0,0,1.15-.82,3.81,3.81,0,0,0-.08-3.62A1.93,1.93,0,0,0,158.66,3.48Z"/><path class="cls-1" d="M90.74,25.38c-1.26.17-1.52-.6-1.77-1.56Q86.53,14.52,84,5.24A1.9,1.9,0,0,0,81.9,3.51c-1.25,0-2.51,0-3.76,0a2,2,0,0,0-2.3,1.82q-.7,2.55-1.39,5.1Q72.59,17.22,70.76,24c-.23.83-.53,1.35-1.57,1.35a2,2,0,0,0-1.43,1c-1,2.09.19,4.59,3,4.27a43.91,43.91,0,0,1,4.87-.05,13.46,13.46,0,0,0,1.42,0,2.45,2.45,0,0,0,2.09-2.59c0-1.62-.44-2.26-1.79-2.56a.9.9,0,0,1-.54-.7c.17-2.53.18-2.53,2.76-2.54h.3c.68,0,1.36,0,2,0,.26,0,.66.29.69.49a19.23,19.23,0,0,1,.13,2.63s-.5.06-.76.14-.72.16-.89.38a3.62,3.62,0,0,0-.24,3.41A2,2,0,0,0,83,30.69h6.69A2.34,2.34,0,0,0,92,29.17a3.3,3.3,0,0,0-.21-3.3A1.3,1.3,0,0,0,90.74,25.38Zm-12.6-8.12c.53-2.74,1-5.41,1.58-8.08l.23,0c.53,2.68,1.07,5.35,1.63,8.11Z"/><path class="cls-1" d="M134.75,25.38c-1.22.11-1.52-.57-1.78-1.56q-2.39-9.21-4.86-18.4c-.4-1.51-.88-1.88-2.43-1.92-.64,0-1.28,0-1.93,0-3.43,0-3.42,0-4.32,3.31Q117.1,15.38,114.78,24c-.23.87-.52,1.52-1.61,1.39a1.41,1.41,0,0,0-.92.32,3.26,3.26,0,0,0-.65,3.23,2.43,2.43,0,0,0,2.26,1.75q3.51,0,7,0A2.26,2.26,0,0,0,123,28.93a3.19,3.19,0,0,0-.65-3.14.65.65,0,0,0-.45-.21c-1.33.12-1.19-.69-1-1.55a4.3,4.3,0,0,1,.21-1.09c.13-.27.44-.62.69-.63,1.52-.06,3,0,4.7,0,.15.79.28,1.48.42,2.18s0,1.06-.84,1.12a1.61,1.61,0,0,0-1.22.68,3.66,3.66,0,0,0,.13,3.43c.58,1,1.58,1,2.61,1a45.81,45.81,0,0,1,5.37,0c2.85.28,3.76-2.07,3.17-4.2A1.3,1.3,0,0,0,134.75,25.38ZM122.16,17.2c.53-2.72,1-5.36,1.56-8l.23,0c.53,2.63,1.07,5.26,1.63,8Z"/><path class="cls-1" d="M46.25,25.39c-1.19.11-1.48-.56-1.73-1.51-1.6-6.16-3.24-12.32-4.87-18.48C39.27,4,38.77,3.55,37.3,3.5c-1.15,0-2.3,0-3.45,0-1.58,0-2.1.42-2.52,1.95l-1.89,7L26.28,24.08c-.21.77-.48,1.36-1.49,1.3a1.72,1.72,0,0,0-1.27.63,3.11,3.11,0,0,0-.16,3.38A2.53,2.53,0,0,0,26,30.68c1.28-.08,2.57-.14,3.85-.15.78,0,1.56.14,2.33.14a2.37,2.37,0,0,0,2.44-2.35c.18-1.61-.4-2.46-1.83-2.83a.85.85,0,0,1-.48-.66c.08-.84.27-1.66.41-2.44A1.18,1.18,0,0,1,33,22.3l2.94,0c2.29,0,2.28,0,2.49,2.29.06.63-.1.93-.78,1-.42,0-1,.23-1.19.54a3.72,3.72,0,0,0,0,3.52c.5,1,1.46,1.07,2.45,1.06,2,0,4,0,6,0a2.47,2.47,0,0,0,2.48-1.26,3.46,3.46,0,0,0,0-3.4A1.47,1.47,0,0,0,46.25,25.39ZM33.68,17.28c.54-2.76,1.06-5.45,1.58-8.14h.24c.53,2.67,1.06,5.34,1.61,8.15Z"/><path class="cls-1" d="M112.54,8.94c.14,0,.31-.1.45-.19a3.19,3.19,0,0,0,.85-3.26,2.4,2.4,0,0,0-2.26-2c-2.3,0-4.59,0-6.89,0-.87,0-1.63.35-1.76,1.23a13.31,13.31,0,0,0,0,3.09,1.24,1.24,0,0,0,.78.83c.9.27.91.83.76,1.58-.48,2.36-.91,4.73-1.37,7.09-.36,1.84-.74,3.68-1.11,5.52l-.25,0c-.78-4.23-1.58-8.46-2.32-12.69a1.51,1.51,0,0,1,.43-1.28c1.39-.71,1.51-1.9,1.42-3.2A2,2,0,0,0,98.9,3.48c-2,0-4.05,0-6.08,0A2.56,2.56,0,0,0,90.16,5.1a3.56,3.56,0,0,0,.53,3.54A1.21,1.21,0,0,0,91.5,9c1-.1,1.28.48,1.48,1.29.86,3.49,1.76,7,2.64,10.45.69,2.72,1.36,5.45,2.08,8.17.42,1.59.93,1.89,2.53,1.82a35,35,0,0,1,3.55,0,1.56,1.56,0,0,0,1.75-1.07,11.1,11.1,0,0,0,.39-1.15q2.43-8.92,4.83-17.86C111,9.66,111.22,8.76,112.54,8.94Z"/><path class="cls-1" d="M180.31,19.79c-.83-3.3-3.24-4.95-6.27-5.92a35,35,0,0,1-3.37-1.12,2.56,2.56,0,0,1-1.2-1.25,2.24,2.24,0,0,1,1.28-3,2.52,2.52,0,0,1,3.37,1.37c.28.73.38,1.52.64,2.25.4,1.12,1.56,1.58,3.08,1.29a1.83,1.83,0,0,0,1.56-2.06c0-1.93,0-3.86,0-5.79a2.24,2.24,0,0,0-4.22-1,21.57,21.57,0,0,0-4.29-1.39c-3.36-.34-6.18,1.77-7.29,5.14-1.24,3.78-.12,7.72,2.88,9.57a27.12,27.12,0,0,0,3.89,1.71,26.19,26.19,0,0,1,2.63,1,3.11,3.11,0,0,1,1.28,1.36,2.7,2.7,0,0,1-1.45,3.55A2.88,2.88,0,0,1,169,24.33a9.71,9.71,0,0,1-.61-2.34,2,2,0,0,0-1.55-1.92,3.16,3.16,0,0,0-3.21.7,1.79,1.79,0,0,0-.42,1.11c0,2.37-.05,4.74,0,7.11a1.92,1.92,0,0,0,1.93,2,2.16,2.16,0,0,0,2.44-1.54c.41.22.73.42,1.06.58,2.83,1.36,5.66,1.65,8.37-.27A9.43,9.43,0,0,0,180.31,19.79Z"/><path class="cls-1" d="M17.35,21.12a7,7,0,0,0,6.34-4.92,11.86,11.86,0,0,0,.19-7.31c-1-3.69-3.63-5.49-7.46-5.41-2.87.06-5.74,0-8.61,0-2.5,0-3.88,1.78-3.11,4.17C5,8.5,5.44,9.1,6.44,9c.72-.06,1,.24,1,1q0,7.07,0,14.14c0,.67-.25,1-1,1a1.6,1.6,0,0,0-1.69,1A3,3,0,0,0,7.75,30.7q3.43-.07,6.89,0a2.73,2.73,0,0,0,2.94-3.08c-.06-1.85-.76-2.41-2.87-2.27l-.1,0a.83.83,0,0,1-1-.9c0-1,0-2,0-3.12C14.92,21.26,16.14,21.23,17.35,21.12Zm-3.75-11A1.08,1.08,0,0,1,14.85,9a4.3,4.3,0,0,1,1.82.46c1.34.81,1.79,3.46,1,5.21C17,16,15.38,16.58,13.58,16.08,13.58,14.1,13.56,12.11,13.6,10.12Z"/><path class="cls-1" d="M67.5,5.51a1.83,1.83,0,0,0-2.12-2c-1.15,0-2.3.18-3.45.17-3.9,0-7.79-.11-11.69-.17-2,0-2.51.52-2.49,2.53,0,2.27,0,4.54,0,6.81a11.63,11.63,0,0,0,0,1.32,2.36,2.36,0,0,0,4.61.39,21.78,21.78,0,0,0,.15-3.43,7.35,7.35,0,0,1,.06-1.7c.1-.33.6-.77.89-.74a1.63,1.63,0,0,1,1,.76,2.18,2.18,0,0,1,.12,1.1c0,2.2,0,4.41,0,6.61h0c0,2.27,0,4.55,0,6.82,0,1.33-.08,1.39-1.39,1.23a1.8,1.8,0,0,0-2.09,1.06,3,3,0,0,0,3,4.43c2.23-.07,4.46-.09,6.69,0,2.61.1,3.83-1.19,3.43-3.81a1.77,1.77,0,0,0-2.19-1.68c-1.3.16-1.41.08-1.42-1.22q0-6.36,0-12.72a5.45,5.45,0,0,1,.2-1.81c.13-.35.71-.84,1-.77s.71.58.93,1c.13.22,0,.59-.05.89,0,1.12-.14,2.24-.07,3.35a2.28,2.28,0,0,0,2.23,2.34c1.61.14,2.57-.86,2.61-2.89C67.55,10.73,67.53,8.12,67.5,5.51Z"/><rect class="cls-2" width="185.08" height="34.16"/></g></g></svg>