<svg xmlns="http://www.w3.org/2000/svg" viewBox="0 0 290.57 290.57"><defs><style>.cls-1{fill:none;}</style></defs><g id="Capa_2" data-name="Capa 2"><g id="Capa_1-2" data-name="Capa 1"><rect class="cls-1" width="290.57" height="290.57"/><g id="YnOIsJ.tif"><path d="M199.05,210.05c0,6,0,11.64,0,17.32,0,3.2-1.61,4.73-4.79,4.77H63.56c-3.62,0-5.11-1.47-5.11-5V96.6c0-3.56,1.5-5.07,5-5.08,4.92,0,9.83,0,14.74,0h2.29v-2.3q0-12.9,0-25.8c0-3.51,1.45-5,4.92-5H227.2c3.43,0,4.92,1.52,4.92,5V205c0,3.6-1.44,5-5.07,5h-28ZM88.78,91.51H193.09c4.74,0,6,1.21,6,6V201.74H224v-2.06q0-65.44,0-130.88c0-1.78-.49-2.25-2.27-2.25q-65.42.08-130.84,0c-.69,0-1.37.06-2.12.1ZM66.7,132.92c0,.74-.09,1.31-.09,1.88q0,43.6,0,87.22c0,1.71.61,2,2.13,2,10.59,0,21.18,0,31.78,0,.68,0,1.35-.08,2-.11v-91Zm79.9,57.77V99.91H110.92v90.78Zm44.07,33.18V133H155.05v90.88ZM66.6,99.86c0,7.82.05,15.37,0,22.93,0,1.6.53,1.93,2,1.92,10.73,0,21.46,0,32.19,0,.56,0,1.12-.09,1.69-.14V99.86Zm44.25,124a7.72,7.72,0,0,0,1,.13c11.11,0,22.23,0,33.34,0,1.56,0,1.6-.77,1.6-1.93,0-7,0-14.09,0-21.13,0-.57-.07-1.13-.12-1.75H110.85ZM155,124.56h35.68V99.9H155Z"/></g></g></g></svg>