<svg xmlns="http://www.w3.org/2000/svg" viewBox="0 0 112.34 71.8"><defs><style>.cls-1{fill:none;}</style></defs><g id="Capa_2" data-name="Capa 2"><g id="Capa_1-2" data-name="Capa 1"><path d="M72.12,8.4h-32a5.55,5.55,0,0,0-5.31,3.94,4.07,4.07,0,0,0-.25,1.31v.29L33.34,47.51v0A5.53,5.53,0,0,0,35.58,52v6a3.3,3.3,0,0,0,3.29,3.29H40A3.29,3.29,0,0,0,43.3,58l-.07-4.86H69.32l-.07,5a3.29,3.29,0,0,0,3.29,3.29h1.15A3.29,3.29,0,0,0,77,58.07V51.55a5.53,5.53,0,0,0,1.72-4l-1-33.61A5.55,5.55,0,0,0,72.12,8.4Zm-6,15.33a1.14,1.14,0,0,1,1.13-1.13h6.51a1.13,1.13,0,1,1,0,2.25H67.28A1.13,1.13,0,0,1,66.15,23.73Zm10.07,3.76v4.45H35.82V27.49ZM42.58,33.58,35.2,41.83l.3-8.25Zm2.21,0H67l-.08.08,9.19,9.62H36.1Zm24.37,0h7.46l.25,8.07Zm6.43-7.74a2.76,2.76,0,0,0,.76-1.05l0,1.05ZM76,14l.26,8.57A2.77,2.77,0,0,0,73.79,21H67.28a2.77,2.77,0,0,0-1.8,4.88H35.78L36,19.63a2.7,2.7,0,0,0,1.41.4h5a2.7,2.7,0,0,0,2.7-2.7V11.14a2.71,2.71,0,0,0-.23-1.1h27.2A3.91,3.91,0,0,1,76,14Zm-36.4-3.87h2.83a1.07,1.07,0,0,1,1.06,1.06v6.19a1.07,1.07,0,0,1-1.06,1.06h-5a1.06,1.06,0,0,1-1.06-1.06l-.14-3.39a3.58,3.58,0,0,1,.15-1A4.09,4.09,0,0,1,39.62,10.08Zm2,43L41.66,58A1.65,1.65,0,0,1,40,59.6H38.87A1.64,1.64,0,0,1,37.23,58V52.87a3.77,3.77,0,0,0,1.78.26h0l1.52,0Zm33.74,5a1.64,1.64,0,0,1-1.64,1.64H72.54a1.64,1.64,0,0,1-1.64-1.63L71,53.22l1,0,1.57,0A3.81,3.81,0,0,0,75.33,53Zm-2.18-6.63H38.89A3.9,3.9,0,0,1,35,47.55l.09-2.62H77l.08,2.62A3.91,3.91,0,0,1,73.15,51.44Z"/><path d="M33.57,11.64a3.46,3.46,0,0,0-3.46-3.46H15.38a3.46,3.46,0,0,0-3.46,3.46V41.09a3.46,3.46,0,0,0,3.46,3.46h13.7a3.47,3.47,0,0,0,3.46-3.45l1-29.43ZM30.89,41.06v0a1.81,1.81,0,0,1-1.81,1.81H15.38a1.81,1.81,0,0,1-1.81-1.81V11.64a1.81,1.81,0,0,1,1.81-1.81H30.11a1.82,1.82,0,0,1,1.81,1.8Z"/><path d="M97,8.18H82.23a3.47,3.47,0,0,0-3.46,3.46l1,29.46a3.47,3.47,0,0,0,3.46,3.45H97a3.46,3.46,0,0,0,3.46-3.46V11.64A3.46,3.46,0,0,0,97,8.18Zm1.81,32.91A1.81,1.81,0,0,1,97,42.9H83.26a1.81,1.81,0,0,1-1.81-1.81l-1-29.46a1.82,1.82,0,0,1,1.81-1.8H97a1.81,1.81,0,0,1,1.81,1.81Z"/><path d="M25.42,11.17h-6A3.84,3.84,0,0,0,15.62,15v5.8a3.83,3.83,0,0,0,3.83,3.82h6a3.82,3.82,0,0,0,3.82-3.82V15A3.83,3.83,0,0,0,25.42,11.17ZM27.6,20.8A2.19,2.19,0,0,1,25.42,23h-6a2.18,2.18,0,0,1-2.18-2.18V15a2.18,2.18,0,0,1,2.18-2.18h6A2.19,2.19,0,0,1,27.6,15Z"/><path d="M92.78,11.17h-6A3.84,3.84,0,0,0,83,15v5.8a3.83,3.83,0,0,0,3.83,3.82h6a3.83,3.83,0,0,0,3.83-3.82V15A3.84,3.84,0,0,0,92.78,11.17ZM95,20.8A2.19,2.19,0,0,1,92.78,23h-6a2.19,2.19,0,0,1-2.18-2.18V15a2.19,2.19,0,0,1,2.18-2.18h6A2.19,2.19,0,0,1,95,15Z"/><path d="M46.65,45.54H38.48a1.69,1.69,0,0,0-1.68,1.69V48.8a1.68,1.68,0,0,0,1.68,1.68h8.17a1.69,1.69,0,0,0,1.69-1.68V47.23A1.69,1.69,0,0,0,46.65,45.54Zm0,3.26a0,0,0,0,1,0,0H38.48a0,0,0,0,1,0,0V47.23a0,0,0,0,1,0,0h8.17a0,0,0,0,1,0,0Z"/><path d="M73.8,45.54H65.64A1.69,1.69,0,0,0,64,47.23V48.8a1.69,1.69,0,0,0,1.69,1.68H73.8a1.69,1.69,0,0,0,1.69-1.68V47.23A1.69,1.69,0,0,0,73.8,45.54Zm0,3.26a0,0,0,0,1,0,0H65.64a0,0,0,0,1,0,0V47.23a0,0,0,0,1,0,0H73.8a0,0,0,0,1,0,0Z"/><rect class="cls-1" width="112.34" height="71.8"/></g></g></svg>