<?xml version="1.0" standalone="no"?>
<!DOCTYPE svg PUBLIC "-//W3C//DTD SVG 20010904//EN"
 "http://www.w3.org/TR/2001/REC-SVG-20010904/DTD/svg10.dtd">
<svg version="1.0" xmlns="http://www.w3.org/2000/svg"
 width="540.000000pt" height="448.000000pt" viewBox="0 0 350.000000 448.000000"
 preserveAspectRatio="xMidYMid meet">

<g transform="translate(0.000000,450.000000) scale(0.070000,-0.070000)"
fill="#000000" stroke="none">
<path d="M1465 4286 c-69 -17 -110 -40 -168 -94 -86 -81 -126 -196 -127 -359
l0 -83 -303 0 c-247 0 -313 -3 -358 -16 -147 -43 -265 -159 -310 -305 -19 -60
-19 -112 -19 -1476 0 -1010 3 -1427 11 -1456 38 -140 157 -269 294 -318 l60
-21 1715 -5 c943 -2 1909 0 2145 4 l430 8 70 34 c86 42 181 134 219 212 23 48
28 76 36 190 11 152 12 2494 1 2694 -6 122 -9 136 -40 200 -59 120 -178 216
-302 244 -24 6 -179 11 -346 11 l-303 0 -1 28 c-4 168 -16 260 -39 306 -72
145 -254 238 -404 207 -129 -27 -223 -100 -277 -215 -25 -54 -29 -77 -35 -194
l-7 -132 -736 2 -736 3 -6 130 c-5 114 -9 138 -33 192 -50 109 -147 184 -274
212 -64 13 -92 13 -157 -3z m2416 -192 c40 -20 87 -79 99 -124 6 -22 9 -79 8
-128 l-3 -87 -199 -3 -198 -2 4 107 c3 87 8 117 26 155 45 91 169 130 263 82z
m-2232 -3 c20 -11 50 -38 66 -61 26 -38 30 -53 36 -153 4 -62 4 -115 0 -120
-4 -4 -95 -6 -202 -5 l-194 3 3 105 c4 127 22 175 83 219 36 27 50 31 106 31
43 0 76 -6 102 -19z m3179 -545 c58 -29 126 -100 140 -147 6 -19 13 -71 16
-116 l5 -83 -2314 0 -2315 0 0 68 c1 87 12 135 44 181 29 42 94 92 141 109 21
7 670 11 2133 11 l2103 1 47 -24z m160 -1360 c1 -457 -1 -1019 -6 -1251 -9
-488 -5 -467 -111 -548 l-63 -47 -2136 2 -2137 3 -37 23 c-45 28 -106 94 -123
136 -12 25 -14 251 -15 1274 l0 1242 2312 -2 2313 -3 3 -829z" style="fill: #b8b8b8"/>
<path d="M2689 2397 c-112 -144 -302 -387 -421 -540 -120 -153 -218 -283 -218
-287 0 -5 101 -10 224 -12 123 -2 227 -5 230 -8 2 -3 -20 -111 -50 -240 -156
-666 -143 -610 -135 -610 8 1 29 31 442 649 197 294 356 538 353 543 -3 4 -88
8 -190 8 l-184 0 5 23 c29 122 155 730 152 733 -2 2 -95 -114 -208 -259z" style="fill: #b8b8b8"/>
</g>
</svg>
