<svg xmlns="http://www.w3.org/2000/svg" viewBox="0 0 290.57 290.57"><defs><style>.cls-1{fill:none;}</style></defs><g id="Capa_2" data-name="Capa 2"><g id="Capa_1-2" data-name="Capa 1"><path d="M240.56,84.08c-.6,7.18-1,14.38-1.85,21.51-1.25,10-2.56,19.92-4.43,29.77-4.13,21.75-10.62,42.76-21,62.42a101.82,101.82,0,0,1-24.76,31.11c-6,5-12.76,9-19.48,13s-13.64,7.9-20.46,11.85c-1.91,1.1-4,1.46-5.9.34-11.29-6.54-22.82-12.71-33.72-19.85-13.47-8.83-23.3-21.21-31-35.25a200.66,200.66,0,0,1-17.43-44.58,241.65,241.65,0,0,1-6.21-30.24c-1-7.12-1.72-14.28-2.49-21.43-.63-5.8-1.17-11.6-1.7-17.4a16.18,16.18,0,0,1,0-3.81c.34-2.37,1.62-3.14,4.24-3.39,5.89-.56,11.82-1,17.63-2,15.07-2.73,28.9-8.74,41.85-16.82a190.58,190.58,0,0,0,27-20.75c.42-.39.84-.78,1.29-1.13,2.62-2.09,3.87-2,6.47.17C154.88,42.76,161,48.19,167.55,53a127.5,127.5,0,0,0,49.71,22.79c4.19.89,8.49,1.21,12.75,1.74,2.31.29,4.64.35,6.93.72,2.72.43,3.47,1.46,3.48,4.2v1.58Zm-8.18,2-.85-.12c-5.93-.91-11.92-1.53-17.77-2.79-16-3.47-30.7-10.24-44.41-19.17a198.39,198.39,0,0,1-23.21-17.71c-.67-.59-1.12-.64-1.76,0-.86.82-1.76,1.59-2.67,2.35a181.14,181.14,0,0,1-34.16,23.33A125.74,125.74,0,0,1,65.16,85.25l-7.06.82c.36,3.78.62,7.44,1,11.08,1.13,9.53,2.08,19.08,3.56,28.56,1.21,7.78,2.84,15.52,4.67,23.19a185.06,185.06,0,0,0,20.4,51.38c5.1,8.65,11.13,16.57,19.27,22.59,11.43,8.47,24,15.19,36.17,22.45a4.21,4.21,0,0,0,4.07,0c1.39-.67,2.72-1.49,4.07-2.26,5.18-2.95,10.28-6,15.53-8.85,17.44-9.32,30.42-23,39.52-40.41C218.2,171.22,224.78,147,228.54,122c1.26-8.32,2.16-16.7,3.11-25.06C232.05,93.35,232.14,89.75,232.38,86.05Z"/><path d="M137.61,162.69c6.45-7.52,12.83-15,19.23-22.43q10.41-12.12,20.85-24.23a10.87,10.87,0,0,1,1.84-1.68,4.41,4.41,0,0,1,5.7.13,4.37,4.37,0,0,1,1.32,5.66,21.2,21.2,0,0,1-2.8,3.94q-16.5,19.32-33.05,38.57c-2.55,3-5.14,5.88-7.72,8.81a20.79,20.79,0,0,1-2.51,2.62,3.92,3.92,0,0,1-4.9.12,11.66,11.66,0,0,1-1.91-1.6Q121,160,108.42,147.38a12.94,12.94,0,0,1-1.45-1.69,4.77,4.77,0,0,1,.61-6.35,4.49,4.49,0,0,1,5.88-.66,11.13,11.13,0,0,1,2.05,1.63q10.13,10.08,20.21,20.2C136.36,161.16,136.92,161.9,137.61,162.69Z"/><rect class="cls-1" width="290.57" height="290.57"/></g></g></svg>