<svg xmlns="http://www.w3.org/2000/svg" viewBox="0 0 290.57 290.57"><defs><style>.cls-1{fill:none;}</style></defs><g id="Capa_2" data-name="Capa 2"><g id="Capa_1-2" data-name="Capa 1"><path d="M115.61,148.47a26.32,26.32,0,0,1,.31,3.29c-.13,5.57-.33,11.14-.51,16.71-.1,2.85.17,3.16,3,3.16,17.49,0,35,0,52.47,0,2.19,0,3.2-.61,3-3-.68-9.46-1.32-18.92-1.78-28.38-.12-2.56-1.24-3-3.42-2.94-7.66.09-15.33.07-23,0-3.82,0-3.82-.08-4.39-3.93-.12-.81-.25-1.62-.42-2.7,1.62-.09,3.09-.25,4.56-.25,7.49,0,15,0,22.48,0,3.26,0,3.59-.35,3.41-3.61-.48-8.39-1-16.77-1.44-25.16-.12-2.16-1-3.11-3.25-3-3.74.14-7.5.13-11.24,0a46.2,46.2,0,0,1-5.59-.89c2.46-3.88,4.8-6.25,9.68-6.19,22.81.29,45.63.13,68.45.13,6.89,0,9.17,1.83,10.08,8.61,2.21,16.46,4.29,32.94,6.42,49.41q2.92,22.62,5.85,45.23c.87,6.83,1.8,13.66,2.56,20.51.73,6.6-1.57,9.05-8.22,9.05H162.35v21.84c3.1,0,6.14,0,9.19,0a37.2,37.2,0,0,1,4.48.17c1.83.24,3,1.55,2.76,3.25a6.64,6.64,0,0,1-2.34,3.35c-.56.48-1.75.33-2.65.33q-28.36,0-56.71,0a16.87,16.87,0,0,1-2.25-.11c-2.08-.28-3.42-1.29-3.28-3.59a3.24,3.24,0,0,1,3.56-3.35c3.58-.06,7.16,0,10.74-.07.65,0,1.29-.09,2.05-.14V224.59h-82c-.84,0-1.67,0-2.5-.05-3.93-.36-6.21-2.67-5.86-6.59.57-6.61,1.45-13.2,2.27-19.8q2.59-20.51,5.26-41c1.19-9.21,2.41-18.42,3.63-27.76a33.66,33.66,0,0,1,3.49,0c2.14.22,3,1.44,2.73,3.6-.9,7.52-1.74,15-2.6,22.55-.59,5.18-1.18,10.37-1.8,15.8,1.37.1,2.5.26,3.64.26q25.23,0,50.46,0c3.47,0,3.87-.49,3.6-3.94-.59-7.39,2.32-13.57,6.56-19.27Zm60.72,69.13a15.17,15.17,0,0,0,.16-1.72c-.66-11.69-1.34-23.39-2-35.08-.1-1.78-1.1-2.25-2.63-2.23-3.82,0-7.65.08-11.47.08q-21,0-41.93-.09c-3.16,0-3.41.21-3.52,3.36-.36,10.55-.63,21.09-1,31.64-.13,3.78,0,4,3.77,4l52.4,0Zm5.49-38.95c0,2.32-.09,4.23,0,6.13.52,9.37,1.1,18.74,1.64,28.12.27,4.64.28,4.66,4.92,4.66l54.68,0h2.69a6,6,0,0,0,.09-1c-1.4-11.2-2.78-22.4-4.24-33.59-.57-4.37-.65-4.37-5.11-4.36l-51.93.09Zm-137.3,38.7c1.74.09,3.14.24,4.54.24q27,0,54,0c3.38,0,3.87-.49,4-3.89q.45-15,.89-29.93c0-1.62,0-3.26,0-4.89-.81-.09-1.22-.18-1.63-.18-18.15,0-36.3,0-54.46,0-1.86,0-2.47.86-2.66,2.5-.41,3.47-.88,6.92-1.32,10.38C46.72,200,45.65,208.45,44.52,217.35Zm195.41-45.69c0-1.15,0-1.65,0-2.14-1.2-9.64-2.47-19.27-3.6-28.91-.3-2.59-1.65-3.3-4-3.29-16.56.06-33.11.06-49.66.09-1.06,0-2.12.15-3.22.24a8.41,8.41,0,0,0-.2,1.41c.52,9.79,1.12,19.58,1.55,29.37.11,2.55,1.22,3.25,3.57,3.24,13.82,0,27.63,0,41.45,0Zm-5.13-41.42c-1.17-9.65-2.31-19-3.42-28.27-.26-2.2-1.11-3.28-3.66-3.26-15.82.12-31.64.06-47.46.06h-3.45c.5,9.33.93,18.21,1.48,27.08.29,4.71.38,4.69,5.23,4.7,15,0,30,.13,44.93.15C230.58,130.7,232.71,130.4,234.8,130.24ZM135.39,235.4h0c0,2.74.12,5.48,0,8.21-.13,2.26.88,2.89,2.92,2.86,4.74-.06,9.47-.05,14.2,0,1.74,0,2.59-.54,2.56-2.44-.08-5.73-.07-11.45,0-17.18,0-1.77-.75-2.3-2.41-2.28-5,.05-10,.07-14.95,0-1.77,0-2.35.72-2.31,2.38C135.43,229.76,135.39,232.58,135.39,235.4Z"/><path d="M61,144.76c.49-5.12.92-9.76,1.37-14.39.47-4.94-.29-6.13-5.08-7.12-4.56-.94-9.18-1.55-13.71-2.59-1.45-.33-3.4-1.31-3.81-2.47s.4-3.2,1.31-4.36c3-3.78,6.26-7.34,9.43-11,2.6-3,2.64-4.48,0-7.3-3.45-3.73-6.94-7.41-10.4-11.13-2.7-2.9-1.91-5.59,2-6.54,5-1.23,10-2.4,15-3.6,3.53-.84,4.31-1.91,3.87-5.7-.54-4.62-1.08-9.25-1.82-13.84-.86-5.42,1.4-6.48,6.11-4.9,4.56,1.53,9,3.55,13.41,5.38,3.43,1.41,4.68,1,6.51-2.24,2.49-4.42,4.9-8.88,7.4-13.29,2-3.56,4.88-3.56,7,0,2.61,4.34,5.12,8.74,7.82,13,2,3.1,3.17,3.48,6.46,2,4.33-1.9,8.56-4,12.84-6.06a15.21,15.21,0,0,1,2.75-1.14c2.55-.61,4.27.81,4.05,3.47-.41,5-1.11,9.91-1.41,14.88-.31,5.3.42,6.19,5.61,7.34,4.37,1,8.82,1.62,13.22,2.51s5.29,3.36,2.38,6.85c-3.3,4-6.75,7.8-10,11.8-2,2.45-1.93,3.51.21,5.87,3.47,3.82,7.05,7.53,10.59,11.28,3.13,3.32,2.4,5.78-2.07,6.87-4.84,1.17-9.7,2.29-14.54,3.49-3.51.87-4.27,1.82-3.95,5.44.4,4.61,1,9.19,1.49,13.79a12.23,12.23,0,0,1,0,3.42c-.54,3-2,3.7-4.82,2.47-3.19-1.4-6.31-3-9.52-4.31a61,61,0,0,0-6.71-2.29c-2-.58-3.33.51-4.27,2.19-2.5,4.5-4.91,9.06-7.58,13.47a7,7,0,0,1-3.5,3c-2,.63-3-1.33-3.9-2.82-2.61-4.25-5.16-8.54-7.8-12.77-1.74-2.79-3-3.17-6-1.83-4.7,2.1-9.38,4.27-14.06,6.42C63,149.84,60.87,148.48,61,144.76Zm83.19-32.51c-1.33-1.65-2.49-3-3.62-4.48s-2.34-3-3.45-4.58c-3-4.25-3.08-7.42-.19-11.71,2.12-3.15,4.32-6.25,6.55-9.46-3.84-1.16-7.6-2.21-11.29-3.42-4.81-1.58-6.56-4-6.66-9-.08-3.86,0-7.72,0-11.87-2.87,1.16-5.22,2.18-7.62,3.08-8.32,3.09-12,2-17.15-5.12-1.53-2.1-2.94-4.29-4.4-6.43-2.44,3.39-4.7,6.68-7.12,9.84-3.07,4-5.83,4.86-10.7,3.41-3.57-1.07-7.11-2.21-10.39-3.24,0,3.41,0,6.88,0,10.34,0,5.92-2.37,9.31-8,11.19-3.2,1.07-6.42,2.08-9.77,3.16,2,2.36,3.92,4.52,5.68,6.82,4.58,6,4.7,9.92.46,16.12-1.63,2.39-3.48,4.62-5.34,7.06,3.93,1.28,7.7,2.47,11.44,3.74,4.38,1.48,6.35,4.09,6.45,8.71.09,3.86,0,7.73,0,11.85,2.11-.76,3.82-1.4,5.53-2s3.47-1.19,5.21-1.76c5.16-1.69,8.52-.68,11.83,3.64,2.26,2.94,4.43,5.93,6.66,8.92,1.75-2.76,3.33-5.5,5.16-8.07,4.07-5.69,7.74-6.91,14.47-4.88,3,.89,5.91,2,8.93,3-.17-3.15-.37-6.12-.47-9.1-.25-7.25,1.77-10.36,8.55-12.87C137.87,114.1,140.91,113.28,144.2,112.25Z"/><path d="M97.05,121.73a23.63,23.63,0,0,1-23.4-23.65c0-12.46,10.61-23.59,22.49-23.6,14.14,0,24.82,10.25,24.72,23.76A23.56,23.56,0,0,1,97.05,121.73Zm.45-40.1a16.48,16.48,0,1,0-.59,33,16.48,16.48,0,1,0,.59-32.95Z"/><rect class="cls-1" width="290.57" height="290.57"/></g></g></svg>