<svg xmlns="http://www.w3.org/2000/svg" viewBox="-20 50 320 210"><defs><style>.cls-1{fill:none;}</style></defs><g id="Capa_2" data-name="Capa 2"><g id="Capa_1-2" data-name="Capa 1"><rect class="cls-1" width="290.57" height="290.57"/><g id="I2xOui.tif"><path d="M281.57,225.26H9V65.31c1.1,0,2.21.1,3.31.1H281.49V70q0,60.71,0,121.43C281.49,202.7,281.54,214,281.57,225.26ZM16.11,174H274.34V72.45H16.11Zm190,7.2H84.35c10.34,5.3,14.16,11.81,12.35,20.56a17,17,0,0,1-32.83,1.36c-2.74-8.65.64-15,11.55-21.89H16.15v36.95H274.37V181.07H214.3c11.14,6.28,14.82,12.69,12.41,21.41a17,17,0,0,1-32.92-.35C191.67,193.29,195.32,187,206.15,181.15Zm12.41,21.27c2.84-6.07,1.19-10.95-3.21-13.51a10.19,10.19,0,0,0-13.51,14.6c2.76,4,7.61,5.38,12.62,3.28l-7.26-6,5.76-5.6c1.06,1.27,2,2.34,2.9,3.48S217.66,201.16,218.56,202.42ZM84.13,207.15c5.33-3,7.37-7.8,5.73-12.55a10.11,10.11,0,0,0-19.64,3.23c.1,4.18,3.25,8.21,7.22,8.82V198.3h6.69Z" style="fill: #b8b8b8"/><path d="M124.86,121.41A44.78,44.78,0,1,1,80.08,76.65,44.73,44.73,0,0,1,124.86,121.41Zm-82.72.1a38,38,0,0,0,37.65,38c20.78.17,38.15-16.78,38.28-37.35a38,38,0,1,0-75.93-.6Z" style="fill: #b8b8b8"/><path d="M165.53,121.47a44.79,44.79,0,1,1,45.13,44.71A44.87,44.87,0,0,1,165.53,121.47Zm6.89-.14A38,38,0,1,0,210.5,83.49,38,38,0,0,0,172.42,121.33Z" style="fill: #b8b8b8"/><path d="M58.24,104.39l4.7-4.78,3.91,3.4c2.94-3.31,8.57-2.09,11.28-6.86h5.66c-.26,3.14,2.33,3,4.27,3.75s4,1.87,6.22,2.94l3.42-3.25,4.76,5c-4.53,2.57-3.38,5.69-1.4,9.12,1,1.68,1.25,3.76,1.91,5.89l4.67.3v6.43l-4.4.36c-1.41,3.07-2.79,6-4.29,9.31l3.31,2.86-5.18,3.48.62,1.05-3.43-3.09c-3.09,1.21-6.07,2.29-9,3.57a2.87,2.87,0,0,0-1.2,2,30.33,30.33,0,0,0,0,4.2H77.33c.76-4.18-.79-6.52-5.35-7.52-3.42-.75-6.58-4-9,1.58l-4.67-5.28,3.07-2.48c-1.53-3.32-2.89-6.3-4.4-9.59l-3.36-.44V120l3.34-.29,4.4-11.28Zm26,32.56,5.15-1.86-4.28-2.86,5.59-5.33,3.06,4.73L96,126.86l-5-.5V120l5.11-.36c-.71-2.1-1.33-3.92-2-5.86L91,115.59l-5-4.38,3-3.44L84.2,106l-.31,6.81H77.41c-.13-2.46-.24-4.7-.39-7.5l-5.32,2.45,2.86,3.67L70,116.36l-3.79-2.8L64,120h6v6.44l-6.12.32,2.41,4.36,3.49-4,4.87,4.36-3.07,3.92,5.31,2,.55-3.64h6.39Z" style="fill: #b8b8b8"/><path d="M236.91,126.43l-3.44.28c-1.43,3.1-2.8,6.09-4.29,9.33l3.24,2.85-4.89,4.25c.15,0-.16.07-.26,0-2.17-2.78-4.61-3.31-7.45-1a2.07,2.07,0,0,1-.92.36c-4.1.8-7,2.52-5.43,7.65H207c-.15-.25-.38-.45-.36-.61.55-3.79-.52-6.22-4.8-6.8-1.76-.24-3.37-1.57-5.61-2.68l-2.81,4.23-5.31-5,3.55-2.76c-1.34-3.05-2.18-5.88-3.76-8.19-.88-1.29-3-1.72-5-2.75V120l4.37-.29,4.44-11.26-3.53-4.55,5.08-4.14L196.7,103c2.78-3.36,8.38-2.07,10.75-6.91h5.13c1.93,5,8,3.29,10.84,7.17l4-3.38,4.73,4.21c0,.3.06.62-.05.71C229,107.28,229,110,231,113.24c1.13,1.82,1.46,4.14,2.19,6.37l3.68.36Zm-16.49,0V120l5.84-.33-2-5.9L220.36,116,216,111.22l2.91-3.58-5.44-2.21c-.13,2.9-.24,5.16-.34,7.39h-6.71V106L201.71,108l3.19,3.57c-1.55,1.63-3.05,3.22-4.6,4.84l-3.83-2.76-2.14,5.94,5.19.47v6.36l-5.43.31c.88,1.62,1.54,2.86,2.34,4.35,1.45-1.61,2.53-2.82,3.27-3.63l4.75,4.35c-.89,1.05-1.76,2.1-2.87,3.43l4.73,1.73c.15-1.21.27-2.17.4-3.23h6.22l.67,3.77,5.22-2.1-2.63-3,4.31-4.74,3.81,3.63c.68-1.68,1.18-2.94,1.78-4.45Z" style="fill: #b8b8b8"/></g></g></g></svg>