<svg xmlns="http://www.w3.org/2000/svg" viewBox="0 0 290.57 290.57"><defs><style>.cls-1{fill:none;}</style></defs><g id="Capa_2" data-name="Capa 2"><g id="Capa_1-2" data-name="Capa 1"><rect class="cls-1" width="290.57" height="290.57"/><path d="M101.5,157.27H10.9V70.17a4,4,0,0,0-8,0V240.64a4,4,0,0,0,8,0V165.27H97.5v74.92a4,4,0,0,0,8,0V161.27A4,4,0,0,0,101.5,157.27Z" style="fill: #b8b8b8"/><path d="M231,120.62a4,4,0,0,0,0-8H64.11a4,4,0,0,0,0,8h79V240.19a4,4,0,0,0,8,0V120.62Z" style="fill: #b8b8b8"/><path d="M101.17,106.38H158.6a4,4,0,1,0,0-8H106.22c3-10.77,12.86-36.44,38.74-36.44,13.52,0,24.57,6.84,32.83,20.33a75.65,75.65,0,0,1,7.4,16.53H173.47a4,4,0,0,0,0,8h16.94a4,4,0,0,0,3.92-4.79,81.83,81.83,0,0,0-9.59-23.71c-8.5-14-20.13-22.18-33.89-24a8.54,8.54,0,1,0-10.31-.14c-14.38,1.39-26.27,9.59-34.57,24a78,78,0,0,0-8.74,23.56,4,4,0,0,0,3.94,4.66Zm44.62-59.67a.67.67,0,0,1,0,1.31.67.67,0,0,1,0-1.31Z" style="fill: #b8b8b8"/><path d="M283.67,65.94a4,4,0,0,0-4,4V157h-90.6a4,4,0,0,0-4,4V240a4,4,0,0,0,8,0V165h86.6v75.38a4,4,0,1,0,8,0V69.94A4,4,0,0,0,283.67,65.94Z" style="fill: #b8b8b8"/></g></g></svg>