<svg xmlns="http://www.w3.org/2000/svg" viewBox="0 0 112.34 71.8"><defs><style>.cls-1{fill:none;}</style></defs><g id="Capa_2" data-name="Capa 2"><g id="Capa_1-2" data-name="Capa 1"><g id="ciuDTp.tif"><path d="M46.44,10.36c8.41,0,16.82.13,25.22,0a11.16,11.16,0,0,1,10.09,5.35c2.39,3.53,4.65,7.15,6.92,10.76a5.6,5.6,0,0,0,2.75,2.28c2.2.89,4.34,1.95,6.48,3a3.35,3.35,0,0,1,2,3.37c-.05,4,0,8,0,12a4.42,4.42,0,0,1-4.69,4.65c-2.12,0-4.24,0-6.36,0-1.37,0-1.76-.38-2.07-1.73-.9-3.91-2.9-6.9-7-7.9a9.21,9.21,0,0,0-11.09,7c-.59,2.64-.59,2.64-3.34,2.64H42.54c-2.59,0-2.58,0-3.25-2.56a9.14,9.14,0,0,0-5.8-6.8c-4.87-1.78-10,.83-11.71,5.93a19.24,19.24,0,0,0-.55,2.11,1.51,1.51,0,0,1-1.6,1.32c-1.46,0-2.92,0-4.37,0a2.76,2.76,0,0,1-2.79-2.78c.08-6.85.08-13.7.4-20.54.19-4.22.85-8.42,1.4-12.61a8.81,8.81,0,0,1,1-3,4.7,4.7,0,0,1,4.55-2.43C28.71,10.38,37.57,10.36,46.44,10.36Zm52,24.87c.09-1.41,0-1.72-1-2.27a54.64,54.64,0,0,0-5.9-2.78,8,8,0,0,1-4.25-3.48c-2.08-3.42-4.26-6.78-6.47-10.11a10.22,10.22,0,0,0-9.22-4.95c-15.48.14-31,.06-46.46.06-1.85,0-3.7,0-5.56,0a3.42,3.42,0,0,0-3.3,2.11,6.6,6.6,0,0,0-.65,2.06c-.61,5.79-1.21,11.58-1.72,17.37-.17,1.83,0,3.68,0,5.62h1.43c1.24,0,1.8.44,1.88,1.68a31.87,31.87,0,0,1,0,4.26c-.08,1.24-.64,1.66-1.88,1.67H13.78c0,.81,0,1.43,0,2.06a1.64,1.64,0,0,0,1.84,1.84c1.09,0,2.18,0,3.27,0,.71,0,1-.16,1.18-.93a11.34,11.34,0,0,1,4.81-7.37c5.27-3.46,12.11-1.38,14.93,4.54a1.32,1.32,0,0,0,1.4.92c5.55,0,11.11,0,16.67,0,.32,0,.64,0,1-.06,0-.34.06-.6.06-.86q0-6.36,0-12.71c0-6.22,0-12.45,0-18.67,0-1,.33-1.3,1.27-1.26,1.23.06,2.45,0,3.68,0,3.2,0,6.41.08,9.62.19a6.36,6.36,0,0,1,5.61,3.66c1.86,3.47,3.69,7,5.53,10.43.67,1.25.47,1.56-1,1.56H60.36v17.7c2.11,0,4.13,0,6.14,0a1.5,1.5,0,0,0,1.63-1,10.41,10.41,0,0,1,15-4.43A11.64,11.64,0,0,1,88,49.55c.1.43.1.84.73.83,2.32,0,4.64,0,7-.05a2.83,2.83,0,0,0,2.73-2.46c.12-1.63,0-3.29,0-5.09-1,0-2,0-3,0s-1.66-.43-1.73-1.29a31.08,31.08,0,0,1,0-4.92,1.54,1.54,0,0,1,1.79-1.36C96.47,35.26,97.42,35.23,98.43,35.23ZM60.32,28.41H83.2c-1.92-3.59-3.73-7.07-5.64-10.49a4.6,4.6,0,0,0-4.1-2.4c-4.26-.1-8.52-.13-12.78-.18a1.27,1.27,0,0,0-.36.12ZM67.16,49H40.79c-.18,1.26.47,1.41,1.46,1.41q11.72,0,23.42,0C66.69,50.38,67.26,50.16,67.16,49ZM98.48,36.57c-1,0-1.94,0-2.84,0a1,1,0,0,0-.72.71,25.27,25.27,0,0,0,0,3.37,1,1,0,0,0,.6.71c1,.08,2,0,3,0ZM13.76,42.63h0c0,.56,0,1.13,0,1.69-.06.77.38.83,1,.83s1.13,0,1.11-.86c0-1.09,0-2.19,0-3.28,0-.58-.24-.79-.83-.83-.9-.07-1.41.13-1.27,1.16A9.24,9.24,0,0,1,13.76,42.63Z" style="fill: #b8b8b8"/><path d="M30.4,58.45a7.65,7.65,0,1,1,7.65-7.7A7.57,7.57,0,0,1,30.4,58.45Zm0-1.33a6.32,6.32,0,1,0-6.28-6.32A6.28,6.28,0,0,0,30.36,57.12Z" style="fill: #b8b8b8"/><path d="M77.67,58.46a7.66,7.66,0,1,1,7.66-7.7A7.59,7.59,0,0,1,77.67,58.46Zm-.06-1.34a6.32,6.32,0,1,0-6.24-6.36A6.27,6.27,0,0,0,77.61,57.12Z" style="fill: #b8b8b8"/><path d="M37.29,30H18.94c-1.4,0-1.53-.18-1.42-1.56.31-4.12.59-8.24.88-12.37.11-1.45.75-2.1,2.2-2.1q17.16,0,34.33,0c1.54,0,2.19.7,2.2,2.29,0,4.16,0,8.33,0,12.5,0,1-.4,1.25-1.3,1.25C49.66,30,43.48,30,37.29,30Zm.32-1.4V15.37a2.33,2.33,0,0,0-.43-.1H20.62c-.63,0-.85.3-.89.9-.15,2.28-.35,4.55-.5,6.82-.13,1.84-.23,3.67-.34,5.58Zm1.46-.06a1.73,1.73,0,0,0,.43.1c5.19,0,10.38,0,15.57,0,.79,0,.73-.47.73-1,0-3.7,0-7.41,0-11.11,0-1.23,0-1.28-1.29-1.28H40c-.31,0-.62,0-.94.06Z" style="fill: #b8b8b8"/><path d="M55,33.55a8.45,8.45,0,0,1-1.67,0c-.26-.05-.45-.45-.67-.7.23-.19.45-.54.7-.56a27.28,27.28,0,0,1,3.26,0c.25,0,.47.41.71.63-.25.22-.47.57-.75.63a8.31,8.31,0,0,1-1.58,0Z" style="fill: #b8b8b8"/><path d="M63.91,32.23a8.19,8.19,0,0,1,1.57,0c.28.06.5.4.75.61-.21.22-.4.63-.61.65a30.54,30.54,0,0,1-3.45,0c-.22,0-.56-.43-.56-.65s.37-.55.62-.59a10.45,10.45,0,0,1,1.68,0Z" style="fill: #b8b8b8"/><path d="M30.35,54.41a3.61,3.61,0,0,1,.07-7.21,3.61,3.61,0,0,1-.07,7.21Zm0-1.34a2.26,2.26,0,1,0-2.22-2.33A2.33,2.33,0,0,0,30.35,53.07Z" style="fill: #b8b8b8"/><path d="M81.28,50.83A3.61,3.61,0,1,1,77.7,47.2,3.69,3.69,0,0,1,81.28,50.83Zm-3.62-2.29a2.27,2.27,0,1,0,2.28,2.27A2.33,2.33,0,0,0,77.66,48.54Z" style="fill: #b8b8b8"/></g><rect class="cls-1" width="112.34" height="71.8"/></g></g></svg>