<svg xmlns="http://www.w3.org/2000/svg" viewBox="0 0 290.57 290.57"><defs><style>.cls-1{fill:none;}</style></defs><g id="Capa_2" data-name="Capa 2"><g id="Capa_1-2" data-name="Capa 1"><path d="M141.31,206.29q0-23,0-45.94c0-4.55-.09-4.77-4.43-3.61a63.46,63.46,0,0,0-10.45,3.83,9.71,9.71,0,0,0-5.66,7.74c-.31,2.17-1.52,3-3.79,3s-3.48-.94-3.74-3a9.52,9.52,0,0,0-5.59-7.72c-12.7-6.42-25.37-6.61-38,.16a9.55,9.55,0,0,0-5.31,6.82c-.59,3-1.94,4.17-4.18,4-2.45-.21-3.76-1.87-3.69-5,.22-9.19,1.26-18.31,4.52-26.94C73.51,106.29,97,86,132.26,79.8a49.77,49.77,0,0,1,6.19-.74c2.09-.1,3.07-.94,2.89-3.09a11.4,11.4,0,0,1,.17-2.73,3.66,3.66,0,0,1,4-3.36,3.77,3.77,0,0,1,3.73,3.4c1.08,5.49,1.08,5.49,6.87,6.09,36.1,3.77,68.5,32.84,75.82,68.32,1.27,6.16,1.66,12.5,2.21,18.78a5.94,5.94,0,0,1-1.37,4,3.57,3.57,0,0,1-6-1.89c-1-5.57-4.86-8.14-9.47-9.94-10.91-4.25-21.79-4.09-32.47.88-3.84,1.78-6.9,4.27-7.36,9-.22,2.23-2,2.85-4,2.85-1.79,0-3.2-.78-3.4-2.64-.55-5-3.84-7.64-8-9.39a77.09,77.09,0,0,0-9.71-3.06c-1.8-.49-2.89.42-3,2.31-.06.91-.05,1.83-.05,2.74q0,45.06,0,90.12c0,11.65-6.81,20.1-17.8,22.36-12.68,2.61-25.74-7.61-25.75-20.27a6.63,6.63,0,0,1,1.4-4.05c1.84-2.11,5.2-1,6,1.85.49,1.66.61,3.44,1.12,5.1,2.15,6.95,8.11,10.62,15.46,9.61A13.23,13.23,0,0,0,141.2,253c.13-15.56,0-31.12,0-46.68ZM65.85,152.91c1.35-.42,2.35-.68,3.31-1,16.06-6.07,31.54-6.28,45.91,4.55a2.81,2.81,0,0,0,4-.09c13.44-11.42,38.68-11.64,52.51,0,1.51,1.26,2.61,1,4.19,0,3.59-2.21,7.18-4.65,11.11-6,10.66-3.81,21.41-3.18,32,.65l5.58,2.07c-4.27-35.12-39-64.94-75.17-66.33C103.17,84.88,71.34,119.35,65.85,152.91Z" style="fill: #b8b8b8"/>
<path d="M145.37,60c-9.91,0-17.52-9.46-14.85-19,1.07-3.84,3.17-7.42,5-11s4-6.86,5.91-10.36c1-1.79,1.88-3.25,4.23-3.2s3,1.58,3.92,3.25c1.86,3.42,3.73,6.84,5.89,10.06a33.27,33.27,0,0,1,5.27,12C162.84,51.58,154.85,59.87,145.37,60Zm7.82-15.89c-.46-5.1-3.68-9.25-6.87-13.4a2,2,0,0,0-1.86.25c-2.68,3.77-5.61,7.43-6.38,12.23a7.36,7.36,0,0,0,6.6,8.8A7.85,7.85,0,0,0,153.19,44.07Z" style="fill: #b8b8b8"/>
<path d="M207.29,41.55c-.08,9.13-2.83,13.92-8.5,16.68s-11.41,2.35-16.48-1.51-7.18-9.12-5.57-15.21c1.09-4.09,3.22-7.93,5.14-11.75,1.75-3.47,3.91-6.74,5.79-10.15.9-1.65,1.71-3.22,4-3.26s3.23,1.48,4.19,3.27c1.8,3.35,3.68,6.68,5.78,9.85C204.62,34,207.34,38.65,207.29,41.55ZM192.47,29.48l-1,.27c-2.65,4.07-5.91,7.78-7,12.73-.67,3-.13,5.64,2.34,7.64a7.45,7.45,0,0,0,9.23.54c3-2,4.39-5.08,2.9-8.7C197.15,37.64,194.65,33.63,192.47,29.48Z" style="fill: #b8b8b8"/>
<path d="M98.61,60A15.22,15.22,0,0,1,84,40.74c1-3.69,3-7.14,4.78-10.58C90.7,26.5,93,23,95,19.39c.94-1.73,1.91-3.09,4.09-3.05s2.94,1.34,3.84,3c2.05,3.78,4.23,7.5,6.56,11.11,3.23,5,5.7,10.24,4.85,16.32A15.32,15.32,0,0,1,98.61,60Zm.32-30.6c-2.87,4.3-6.15,8.09-7.31,13.09-.8,3.43.15,6.21,2.84,8.09a7.63,7.63,0,0,0,8.65.21,7.28,7.28,0,0,0,3.23-8C105.36,37.56,102,33.69,98.93,29.36Z" style="fill: #b8b8b8"/><rect class="cls-1" width="290.57" height="290.57"/></g></g></svg>