<svg xmlns="http://www.w3.org/2000/svg" viewBox="0 0 290.57 290.57"><defs><style>.cls-1{fill:none;}</style></defs><g id="Capa_2" data-name="Capa 2"><g id="Capa_1-2" data-name="Capa 1"><path d="M273.72,48.11a4.45,4.45,0,0,0-.31-1.41c-.06-.18-.12-.36-.17-.54l-.09-.38h-46.4l-.14,0L226,46a4.52,4.52,0,0,1-1.12.29A47.19,47.19,0,0,0,200.28,55c-4.79,3.47-9.33,7.43-13.72,11.26-1.88,1.63-3.75,3.26-5.64,4.87-.63.52-1.21,1.1-1.68,1.56-.07.07-.13.14-.2.2-28.71-19.88-56-21.8-83.38-5.87L92.3,62.74,78.43,76.06l81.7,82.49,24.31,24.55,14-13.72-4.35-4.6a61.76,61.76,0,0,0,10.56-38.66,73.63,73.63,0,0,0-13.22-38.39c1.6-1.36,3.17-2.73,4.73-4.1,3.83-3.33,7.44-6.48,11.33-9.44a38.14,38.14,0,0,1,24.16-7.63c8.89.13,17.93.1,26.67.07l11.35,0h4.08V61.88C273.74,57.14,273.75,52.62,273.72,48.11Zm-82.3,29.5-4.54,3.89-2.64-2.85c14.6-14.62,27.42-25.71,47.23-25.22,7.18.18,14.49.13,21.55.08,3.25,0,6.5,0,9.75,0h3.15v5.68h-3c-3.19,0-6.38,0-9.57,0-7.11,0-14.47.08-21.7-.09A45.94,45.94,0,0,0,202,68.87C198.36,71.61,195,74.52,191.42,77.61Zm-89.25-4.89c16.35-12.61,50.09-12.74,73,7.36s29.2,56.72,13.62,78.76Zm83.39,98.89L89.27,75.2l1.8-1.88,96.59,96.6Z" style="fill: #b8b8b8"/><path d="M32.89,155.85A14,14,0,0,0,17.14,164c-.22.51-.48,1-.74,1.49l-.41.8v5.87l1,2.52a13.66,13.66,0,0,0,12.66,8.61,14.5,14.5,0,0,0,2.9-.3,13.77,13.77,0,0,0,11.15-13.37A14.22,14.22,0,0,0,32.89,155.85Zm-7.56,17.76a6.09,6.09,0,0,1-1.83-4.39A6.34,6.34,0,0,1,29.71,163h.12a6.26,6.26,0,0,1,4.44,1.81A6.22,6.22,0,0,1,30,175.46,6.33,6.33,0,0,1,25.33,173.61Z" style="fill: #b8b8b8"/><path d="M56.3,156.65a13.88,13.88,0,0,0,.12-27.75h-.1a14.12,14.12,0,0,0-13.89,13.82,13.88,13.88,0,0,0,13.8,13.93Zm.15-7.43A6.13,6.13,0,0,1,52,147.43a6.36,6.36,0,0,1-1.89-4.56,6.1,6.1,0,0,1,6.13-6.18h.09a6.26,6.26,0,0,1,4.49,1.82A6.15,6.15,0,0,1,62.64,143,6.36,6.36,0,0,1,56.45,149.22Z" style="fill: #b8b8b8"/><path d="M90.67,216.4a13.94,13.94,0,0,0-13.75,13.74,14,14,0,0,0,13.84,14h0a13.84,13.84,0,0,0,13.81-13.9A13.85,13.85,0,0,0,90.67,216.4Zm6.44,13.87a6.15,6.15,0,0,1-1.89,4.43,6.28,6.28,0,0,1-4.6,1.77,6.13,6.13,0,0,1-6.05-6.28,6.25,6.25,0,0,1,6.13-6.25h.11a6.4,6.4,0,0,1,6.3,6.33Z" style="fill: #b8b8b8"/><path d="M83,130.23h0a14.06,14.06,0,0,0,13.76-13.72,13.54,13.54,0,0,0-4-9.76,13.76,13.76,0,0,0-9.86-4.16h0A13.78,13.78,0,0,0,69,116.42,13.9,13.9,0,0,0,83,130.23ZM76.55,116.4A6.27,6.27,0,0,1,78.43,112,6.38,6.38,0,0,1,83,110.08a6.17,6.17,0,0,1,4.43,2,6.24,6.24,0,0,1,1.74,4.59,6.11,6.11,0,0,1-6.39,6A6.34,6.34,0,0,1,76.55,116.4Z" style="fill: #b8b8b8"/><path d="M117.56,190a13.87,13.87,0,0,0-10,3.95,13.62,13.62,0,0,0-4.06,9.68,13.71,13.71,0,0,0,13.75,13.93h.07a13.82,13.82,0,0,0,9.82-4.07,13.62,13.62,0,0,0,4.06-9.74A13.83,13.83,0,0,0,117.56,190Zm-.13,20a6.23,6.23,0,0,1-4.62-1.86,6.06,6.06,0,0,1-1.8-4.39,6.34,6.34,0,0,1,6.22-6.2h.1a6.17,6.17,0,0,1,6.25,6.29A6.09,6.09,0,0,1,117.43,210Z" style="fill: #b8b8b8"/><path d="M86.83,159.5h-.06A14,14,0,0,0,73,173.17a13.63,13.63,0,0,0,4,9.8,13.78,13.78,0,0,0,9.81,4.25h.12a13.86,13.86,0,0,0,0-27.72Zm6.47,13.77a6.46,6.46,0,0,1-6.56,6.21,6.08,6.08,0,0,1-6.18-6.17,6.55,6.55,0,0,1,6.4-6.44h0a6.33,6.33,0,0,1,6.3,6.4Z" style="fill: #b8b8b8"/><path d="M60.33,186h0a13.71,13.71,0,0,0-9.75,4,13.89,13.89,0,0,0-4,9.91,13.59,13.59,0,0,0,13.82,13.69h.14a13.66,13.66,0,0,0,13.63-13.72A13.85,13.85,0,0,0,70.07,190,13.67,13.67,0,0,0,60.33,186ZM54,200a6.25,6.25,0,0,1,1.89-4.52,6.18,6.18,0,0,1,4.35-1.76h.15A6.3,6.3,0,0,1,66.5,200a6.17,6.17,0,0,1-6.4,6.24A6.1,6.1,0,0,1,54,200Z" style="fill: #b8b8b8"/><path d="M113.33,160.61h0a13.63,13.63,0,1,0-9.81-4A13.72,13.72,0,0,0,113.34,160.61Zm-6.26-13.75a6.17,6.17,0,0,1,1.83-4.46,6.29,6.29,0,0,1,4.46-1.8h.11a6.11,6.11,0,0,1,6.12,6.21,6.22,6.22,0,0,1-6.37,6.29A6.3,6.3,0,0,1,107.07,146.86Z" style="fill: #b8b8b8"/><path d="M144,163.38h-.08a13.86,13.86,0,0,0,0,27.71H144a13.69,13.69,0,0,0,9.71-4.1A13.87,13.87,0,0,0,144,163.38ZM137.68,177a6.26,6.26,0,0,1,6.21-6.12H144a6.37,6.37,0,0,1,6.23,6.53,6.41,6.41,0,0,1-6.29,6.12h0a6.13,6.13,0,0,1-4.38-1.88A6.37,6.37,0,0,1,137.68,177Z" style="fill: #b8b8b8"/><rect class="cls-1" width="290.57" height="290.57"/></g></g></svg>