<svg xmlns="http://www.w3.org/2000/svg" viewBox="0 0 238.67 102.98">
<defs>
<style>.cls-1{fill:#b8b8b8;}.cls-2{fill:#b8b8b8;}</style>
</defs>
<g id="Capa_2" data-name="Capa 2">
<g id="Capa_1-2" data-name="Capa 1">
<g id="ALVCAe.tif">
<path d="M238.67,53.83,192.41,99.74c-1.06,1.05-2,2.56-3.29,2.94-1.49.44-3.86.47-4.77-.42s-.9-3.23-.57-4.77c.24-1.11,1.64-2,2.58-2.94q17.23-17.25,34.48-34.5c1.11-1.11,2.14-2.32,3.89-4.23H8c-1.5,0-3.25.45-4.42-.18C2,54.83,0,53.15,0,51.84s2-3.13,3.53-3.79,3.58-.2,5.41-.2H224.73c-1.75-1.91-2.77-3.11-3.89-4.23Q203.26,26,185.65,8.43c-2.09-2.09-4.3-4.32-1.42-7.13s5.06-.48,7.13,1.57q23.64,23.5,47.31,47Z"/>
</g></g></g></svg>