<svg xmlns="http://www.w3.org/2000/svg" viewBox="0 0 290.57 290.57"><defs><style>.cls-1{fill:none;}</style></defs><g id="Capa_2" data-name="Capa 2"><g id="Capa_1-2" data-name="Capa 1"><path d="M238.72,133.7l5.74-1.93c1.59,2.86,2,5.45.28,8.45-2.06,3.49-3.5,7.36-5.53,10.88-.73,1.27-2.42,2.81-3.63,2.78a5.86,5.86,0,0,1-4-2.7c-2-3.24-3.36-6.85-5.26-10.16-1.77-3.08-2.25-6,.11-9.11l3.87,1c-.5-3-.84-5.64-1.43-8.26C221,89.83,191.8,62.49,156.38,57.33c-31.95-4.65-59.38,4.73-81,28.81-17.65,19.6-24.77,43.12-21.77,69.22,4.56,39.75,32.55,69.68,71.77,77.41,5.36,1,10.92,1,16.35,1.75a5.72,5.72,0,0,1,3.78,2.16c1.7,3-.27,6.08-3.81,5.82-6.71-.5-13.51-.85-20-2.26a97.56,97.56,0,0,1-75.29-77.47c-9.78-51.23,25.39-102.94,76.8-112.92,50.43-9.79,100.41,21.57,113,71C237.23,125.07,237.87,129.43,238.72,133.7Z"/><path d="M146.14,111.07c0,9.49.06,19,0,28.46a15.83,15.83,0,0,0,2.31,8.5c5.17,8.81,10.24,17.68,15.29,26.56,1.61,2.82,1.32,4.83-.66,6.19-2.36,1.63-4.59.95-6.36-2.07-4.19-7.17-8-14.63-12.59-21.5-4.89-7.25-6.39-14.86-6.16-23.49.47-17.55.14-35.11.16-52.67,0-3.25,1.37-5,3.9-5s4.09,1.69,4.1,4.85q0,15.09,0,30.2Z"/><rect class="cls-1" width="290.57" height="290.57"/></g></g></svg>