<svg xmlns="http://www.w3.org/2000/svg" viewBox="0 0 112.34 71.8"><defs><style>.cls-1{fill:none;}</style></defs><g id="Capa_2" data-name="Capa 2"><g id="Capa_1-2" data-name="Capa 1"><g id="wpxhbV.tif"><path d="M47.09,70.82l-1.84-.88c2.32-8.6,4.63-17.19,7-25.88h-.83c-3.94,0-7.88,0-11.83,0a1,1,0,0,1-1-.56,1.62,1.62,0,0,1,.08-2.09c3.6-5.55,7.15-11.14,10.71-16.71L61.66,5.49l.46-.7L64,5.51c-1.33,8.66-2.66,17.28-4,26h.74c4,0,8,0,12,0a1,1,0,0,1,1,.55,1.63,1.63,0,0,1-.14,2.12q-13.07,18-26.07,36.06ZM40.85,42H53a1.63,1.63,0,0,1,1.44,1.86q-2.1,7.79-4.19,15.57l-1.41,5.22.12,0L71.41,33.6H59.3A1.78,1.78,0,0,1,57.84,32q1-6.86,2.11-13.69c.4-2.64.8-5.29,1.21-7.93l-.11-.06C54.34,20.84,47.63,31.34,40.85,42Z" style="fill: #b8b8b8"/></g><rect class="cls-1" width="112.34" height="71.8"/></g></g></svg>