<?xml version="1.0" standalone="no"?>
<!DOCTYPE svg PUBLIC "-//W3C//DTD SVG 20010904//EN"
 "http://www.w3.org/TR/2001/REC-SVG-20010904/DTD/svg10.dtd">
<svg version="1.0" xmlns="http://www.w3.org/2000/svg"
 width="506.000000pt" height="361.000000pt" viewBox="0 0 506.000000 361.000000"
 preserveAspectRatio="xMidYMid meet">

<g transform="translate(0.000000,361.000000) scale(0.100000,-0.100000)"
fill="#b8b8b8" stroke="none">
<path d="M1095 3403 c-214 -7 -394 -18 -399 -23 -6 -6 12 -29 45 -61 30 -29
135 -133 235 -231 l180 -178 392 -1 c216 0 392 3 391 8 -1 7 -210 260 -355
428 -33 38 -69 71 -80 71 -10 1 -194 -5 -409 -13z"/>
<path d="M3312 3173 c-114 -135 -208 -249 -210 -253 -5 -14 38 -15 418 -12
l365 3 235 228 c159 155 232 232 225 239 -6 7 -145 15 -350 21 -187 6 -370 13
-408 15 l-67 5 -208 -246z"/>
<path d="M600 2844 c0 -3 215 -271 478 -596 656 -812 679 -840 1295 -1606 76
-94 141 -172 145 -172 4 0 207 246 452 547 245 300 470 576 500 612 177 216
417 510 645 791 97 119 327 404 338 418 8 9 -378 12 -1922 12 -1062 0 -1931
-2 -1931 -6z m1105 -244 c65 -33 68 -110 5 -142 l-34 -17 36 -16 c42 -17 68
-49 68 -84 0 -13 3 -21 6 -18 4 3 35 71 70 149 l62 143 65 3 64 3 16 -38 c48
-116 130 -289 140 -295 19 -12 72 -9 85 4 14 14 17 263 4 272 -13 8 -86 -30
-100 -53 -13 -22 -28 -26 -51 -12 -11 7 -9 19 12 65 l26 56 358 0 359 0 27
-55 c15 -31 27 -57 27 -59 0 -2 -10 -6 -22 -9 -16 -4 -32 3 -60 28 -22 20 -49
35 -63 35 l-25 0 0 -128 c0 -132 5 -152 42 -152 13 0 18 -8 18 -25 l0 -25
-130 0 -130 0 0 25 c0 17 5 25 18 25 37 0 42 20 42 152 0 144 -3 150 -64 124
-32 -13 -40 -13 -72 0 -61 26 -64 20 -64 -124 0 -132 5 -152 42 -152 13 0 18
-8 18 -25 l0 -25 -260 0 c-254 0 -260 0 -260 20 0 13 10 24 25 30 26 10 29 19
19 58 -6 20 -12 22 -79 22 -78 0 -85 -5 -85 -56 0 -17 6 -24 20 -24 15 0 20
-7 20 -25 0 -25 -1 -25 -84 -25 -47 0 -88 5 -91 10 -4 7 -12 7 -25 0 -10 -6
-98 -10 -199 -10 l-181 0 0 23 c0 14 9 26 23 32 21 10 22 16 25 138 l3 127
-26 12 c-17 7 -25 19 -25 35 l0 24 178 -3 c133 -2 184 -7 207 -18z m1475 -5
c0 -18 -7 -26 -25 -31 l-25 -6 0 -133 c0 -114 2 -134 17 -139 26 -10 117 21
143 49 22 23 25 37 29 117 3 88 2 91 -24 112 -18 15 -24 27 -20 39 6 15 26 17
199 17 l191 0 28 -49 c33 -59 33 -67 6 -82 -18 -9 -24 -8 -31 5 -5 8 -29 27
-53 41 -35 21 -54 25 -97 23 l-53 -3 -3 -42 -3 -43 35 0 c30 0 37 4 42 25 4
18 13 25 30 25 23 0 24 -2 24 -85 0 -83 -1 -85 -24 -85 -17 0 -26 7 -30 24 -6
24 -47 43 -66 31 -14 -9 -12 -99 2 -113 32 -32 168 10 202 63 11 16 22 22 36
18 32 -9 33 -19 0 -83 l-30 -60 -180 0 c-180 0 -180 0 -181 23 l0 22 -16 -22
c-15 -22 -20 -23 -199 -23 l-184 0 0 24 c0 19 6 25 28 28 l27 3 3 132 c2 124
1 133 -18 143 -12 6 -20 21 -20 35 l0 25 120 0 120 0 0 -25z m-743 -493 c43
-22 73 -53 96 -97 l16 -30 1 37 c0 27 -6 41 -20 50 -11 7 -20 23 -20 35 0 23
0 23 165 23 222 0 255 -14 255 -110 0 -30 -6 -47 -25 -65 -13 -14 -29 -25 -35
-25 -19 0 -10 -20 31 -75 44 -59 64 -71 86 -54 11 9 13 39 11 138 -3 120 -4
126 -25 136 -14 6 -23 18 -23 32 0 23 2 23 114 23 l113 0 48 -90 c73 -137 74
-138 75 -53 0 62 -3 75 -20 85 -11 7 -20 23 -20 35 0 22 4 23 75 23 71 0 75
-1 75 -23 0 -12 -9 -28 -20 -35 -19 -11 -20 -23 -20 -172 l0 -160 -67 0 -68 1
-78 144 c-43 80 -80 145 -83 145 -2 0 -4 -51 -4 -114 0 -106 2 -115 20 -121
13 -4 20 -15 20 -31 l0 -24 -145 0 -144 0 -52 85 c-62 101 -81 109 -77 33 2
-44 7 -55 26 -63 13 -6 22 -18 22 -32 0 -23 -2 -23 -115 -23 l-115 0 0 24 c0
16 7 27 20 31 16 5 20 15 20 48 l-1 42 -16 -30 c-23 -44 -53 -74 -98 -98 -32
-18 -57 -22 -125 -22 -91 1 -130 14 -181 62 l-26 24 -17 -25 c-30 -47 -72 -56
-257 -56 -169 0 -169 0 -169 23 0 12 9 28 20 35 18 11 20 23 20 137 0 114 -2
126 -20 137 -11 7 -20 23 -20 35 0 23 0 23 165 23 214 0 242 -10 255 -90 l5
-35 23 37 c25 40 76 76 126 89 50 13 160 2 203 -19z m390 -1009 c-79 -98 -179
-222 -222 -275 -44 -54 -82 -98 -85 -98 -7 0 -440 536 -440 545 0 3 201 5 446
5 l445 0 -144 -177z"/>
<path d="M1510 2515 c0 -45 0 -45 36 -45 47 0 74 16 74 43 0 34 -19 47 -67 47
l-43 0 0 -45z"/>
<path d="M1917 2471 c-9 -27 -17 -51 -17 -55 0 -3 20 -6 45 -6 25 0 45 3 45 6
0 12 -43 104 -49 104 -3 0 -14 -22 -24 -49z"/>
<path d="M1512 2348 c3 -62 3 -63 34 -66 41 -4 84 30 84 68 0 37 -32 60 -83
60 l-38 0 3 -62z"/>
<path d="M1853 2063 c-8 -3 -13 -23 -13 -49 0 -43 0 -44 34 -44 46 0 81 29 71
59 -9 30 -58 48 -92 34z"/>
<path d="M2269 2057 c-30 -22 -49 -75 -49 -132 0 -84 37 -144 88 -145 59 0 92
49 92 140 0 98 -32 151 -92 150 -13 0 -30 -6 -39 -13z"/>
<path d="M2694 2056 c-3 -7 -4 -33 -2 -57 3 -37 7 -45 26 -47 61 -9 98 68 50
102 -28 20 -67 21 -74 2z"/>
<path d="M2051 1970 c-13 -11 -31 -20 -40 -20 -10 -1 -6 -6 12 -16 37 -20 52
-13 55 25 3 36 4 36 -27 11z"/>
<path d="M1840 1851 c0 -50 3 -61 19 -66 45 -14 101 23 101 67 0 32 -37 58
-80 58 l-40 0 0 -59z"/>
<path d="M2495 1163 l-20 -58 -59 -2 c-32 -1 -60 -4 -62 -6 -3 -2 18 -19 45
-38 40 -27 49 -38 44 -54 -26 -82 -31 -105 -26 -105 3 0 27 16 54 36 l49 36
49 -36 c27 -20 51 -36 54 -36 3 0 1 14 -4 30 -30 99 -33 87 22 128 l50 37 -63
5 -63 5 -20 58 c-11 31 -22 57 -25 57 -3 0 -14 -26 -25 -57z"/>
<path d="M580 2430 c0 -128 13 -208 44 -277 l26 -58 -27 35 c-64 83 -180 176
-198 158 -8 -8 104 -165 146 -205 19 -17 53 -48 77 -68 23 -21 41 -40 39 -42
-2 -2 -29 12 -61 31 -52 31 -140 55 -154 42 -8 -9 56 -74 98 -100 19 -12 53
-27 75 -34 76 -22 102 -46 146 -134 49 -97 56 -99 -134 48 -238 184 -235 180
-296 384 -47 158 -68 213 -80 206 -18 -12 -44 -134 -37 -178 6 -42 54 -125
113 -197 l28 -34 -32 17 c-64 32 -199 83 -240 90 -58 9 -55 -8 10 -62 58 -48
91 -60 197 -69 66 -5 170 -37 159 -47 -2 -3 -29 2 -59 10 -30 8 -88 14 -129
14 -72 0 -74 -1 -57 -19 40 -45 114 -72 219 -82 106 -11 192 -41 247 -89 l25
-22 -25 6 c-139 34 -231 46 -270 36 -45 -12 -110 -66 -93 -78 23 -15 167 -13
242 3 82 17 114 8 63 -19 -34 -17 -42 -39 -42 -114 0 -43 5 -58 25 -77 24 -25
69 -33 80 -16 3 5 21 7 40 4 20 -3 41 -1 48 6 11 8 23 3 53 -23 l39 -35 -32
-11 c-18 -7 -33 -15 -33 -20 0 -4 27 -19 61 -34 83 -36 149 -35 242 4 101 41
119 44 163 25 44 -18 79 -13 93 14 10 17 4 20 -61 29 -39 6 -75 15 -81 21 -11
11 -9 23 32 171 24 87 24 90 11 90 -17 0 -52 -44 -78 -99 -23 -49 -24 -58 -13
-104 6 -27 10 -51 8 -53 -8 -8 -173 76 -203 104 -42 40 -44 58 -4 37 42 -22
102 -19 134 6 45 35 31 98 -25 118 -66 23 -124 5 -145 -44 -8 -19 -13 -23 -14
-12 0 21 27 74 70 137 29 44 75 168 65 178 -7 7 -83 -45 -113 -77 -42 -45 -64
-109 -66 -189 -1 -71 -1 -72 -19 -51 -23 28 -99 169 -127 237 -25 57 -21 75 9
48 28 -26 77 -36 111 -24 35 12 50 35 50 75 0 16 5 34 11 40 18 18 1 61 -31
78 -60 31 -115 14 -157 -49 l-27 -41 -7 50 c-4 28 -12 88 -17 135 -7 66 -19
107 -51 180 -24 52 -47 99 -52 105 -5 5 -9 -28 -9 -85z m193 -736 c18 -10 79
-51 137 -93 58 -41 128 -88 155 -103 28 -15 47 -28 44 -28 -4 0 -50 14 -104
30 -54 17 -116 30 -139 30 l-42 0 -12 58 c-12 57 -31 85 -77 110 -32 18 3 14
38 -4z"/>
<path d="M4382 2428 c-50 -115 -59 -149 -67 -264 -9 -117 -15 -126 -49 -74
-39 59 -106 78 -154 44 -35 -24 -43 -47 -26 -78 8 -16 14 -41 14 -56 0 -64 89
-85 149 -34 30 25 31 25 31 5 0 -27 -77 -189 -124 -261 l-35 -55 -1 67 c0 109
-41 190 -125 248 -24 16 -48 30 -53 30 -12 0 18 -103 42 -145 9 -16 33 -55 52
-85 19 -30 34 -63 33 -75 0 -19 -1 -19 -9 2 -23 58 -134 69 -177 18 -30 -34
-29 -60 3 -90 32 -30 106 -34 142 -9 34 24 37 11 5 -27 -17 -20 -62 -49 -120
-76 -51 -24 -94 -43 -96 -43 -2 0 1 22 7 49 7 35 6 61 -2 88 -13 45 -68 123
-86 123 -13 0 -5 -43 37 -195 21 -74 21 -75 -95 -91 -53 -7 -57 -13 -28 -39
20 -18 22 -18 70 -1 53 19 57 19 172 -25 99 -37 160 -38 239 -3 33 15 59 30
59 34 0 5 -13 13 -30 19 -16 5 -30 12 -30 14 0 2 18 18 40 36 33 26 44 30 55
21 9 -8 28 -10 49 -6 20 4 37 2 41 -4 12 -19 47 -10 77 21 29 29 30 33 25 92
-5 61 -26 94 -69 110 -7 2 -10 8 -6 12 4 4 47 0 96 -10 87 -16 250 -18 245 -2
-9 31 -51 62 -103 77 -31 9 -212 -16 -265 -36 -19 -7 -19 -6 -3 12 32 37 126
76 206 85 129 16 171 28 223 61 27 18 49 36 49 40 0 13 -143 9 -200 -6 -30 -8
-56 -13 -57 -12 -10 10 105 46 163 50 39 3 85 9 102 12 32 7 142 89 150 113 9
29 -106 -5 -281 -83 l-39 -17 50 61 c64 80 92 137 92 190 0 48 -28 160 -40
160 -9 0 -51 -115 -84 -231 -45 -159 -78 -212 -169 -272 -28 -19 -103 -76
-166 -126 -63 -50 -116 -89 -119 -87 -9 9 70 146 97 169 17 14 55 33 84 41 55
16 110 54 153 103 13 16 19 29 14 31 -25 9 -120 -22 -169 -54 -43 -29 -50 -31
-35 -12 10 13 43 44 75 70 63 52 195 231 174 236 -28 7 -109 -56 -178 -138
l-37 -45 26 60 c21 48 28 87 37 198 14 178 4 190 -51 65z m-92 -717 c0 -5 -9
-12 -20 -16 -30 -10 -61 -60 -68 -113 l-7 -47 -65 -7 c-36 -4 -98 -18 -139
-32 -94 -33 -110 -32 -47 1 28 14 89 54 137 90 75 55 196 133 206 133 2 0 3
-4 3 -9z"/>
<path d="M1526 1078 c-124 -133 -226 -248 -226 -255 0 -20 15 -17 160 32 74
25 138 44 143 42 5 -1 -104 -159 -242 -351 -138 -192 -249 -352 -246 -355 7
-6 44 30 475 455 184 183 348 343 363 357 16 15 27 31 25 36 -4 12 -218 281
-223 281 -2 0 -105 -109 -229 -242z"/>
<path d="M3170 1177 l-114 -141 429 -423 c237 -233 433 -423 438 -423 14 0
-23 54 -257 380 -129 179 -233 326 -231 328 2 2 69 -18 150 -43 94 -31 150
-44 156 -38 6 6 -72 97 -218 256 -125 135 -230 245 -233 246 -3 0 -57 -64
-120 -142z"/>
<path d="M2985 864 c-50 -54 -15 -135 58 -137 75 -2 113 77 66 137 -29 37 -90
37 -124 0z m103 0 c16 -11 22 -25 22 -54 0 -29 -6 -43 -22 -54 -47 -34 -108
-4 -108 52 1 60 59 90 108 56z"/>
<path d="M3017 853 c-11 -10 -8 -93 3 -93 6 0 10 9 10 20 0 11 4 20 10 20 5 0
14 -9 20 -20 6 -11 15 -20 20 -20 6 0 5 8 -2 19 -9 15 -9 23 1 35 11 13 11 19
1 31 -13 15 -51 20 -63 8z m53 -23 c0 -5 -9 -10 -20 -10 -11 0 -20 5 -20 10 0
6 9 10 20 10 11 0 20 -4 20 -10z"/>
</g>
</svg>
