<svg xmlns="http://www.w3.org/2000/svg" viewBox="0 0 197.28 78.56"><defs><style>.cls-1{fill:none;}</style></defs><g id="Capa_2" data-name="Capa 2"><g id="Capa_1-2" data-name="Capa 1"><path d="M85.57,46H83.12v1h2.25v.8H83.12v1.19h2.56v.83h-3.5V45.15h3.39Z"/><path d="M86,49.77,87.19,48l-1.12-1.68h1.09l.58,1,.55-1h1.07L88.23,48l1.17,1.74H88.29l-.59-1-.59,1Z"/><path d="M92.81,46.72a1.88,1.88,0,0,1,.41,1.3,2.08,2.08,0,0,1-.4,1.38,1.37,1.37,0,0,1-1.06.47,1.08,1.08,0,0,1-.68-.21,1.32,1.32,0,0,1-.29-.32v1.78h-.88V46.35h.85v.51a1.35,1.35,0,0,1,.31-.35,1.1,1.1,0,0,1,.71-.23A1.38,1.38,0,0,1,92.81,46.72Zm-.69.64a.64.64,0,0,0-.59-.3.68.68,0,0,0-.68.46,1.81,1.81,0,0,0-.09.62,1,1,0,0,0,.32.84.77.77,0,0,0,.45.14.65.65,0,0,0,.57-.29,1.28,1.28,0,0,0,.2-.77A1.38,1.38,0,0,0,92.12,47.36Z"/><path d="M96.08,46.42a1.38,1.38,0,0,1,.59.51,1.65,1.65,0,0,1,.27.71,3.18,3.18,0,0,1,0,.67H94.48a.82.82,0,0,0,.36.72.88.88,0,0,0,.49.13.78.78,0,0,0,.5-.15.76.76,0,0,0,.18-.24h.92a1.22,1.22,0,0,1-.33.62,1.69,1.69,0,0,1-1.29.5,1.83,1.83,0,0,1-1.2-.42,1.66,1.66,0,0,1-.53-1.37,1.82,1.82,0,0,1,.48-1.36,1.63,1.63,0,0,1,1.22-.48A2.08,2.08,0,0,1,96.08,46.42Zm-1.34.78a.93.93,0,0,0-.23.52h1.54a.8.8,0,0,0-.24-.54.79.79,0,0,0-.53-.18A.69.69,0,0,0,94.74,47.2Z"/><path d="M99.32,46.27h.08v.91h-.26a.74.74,0,0,0-.72.35,1.35,1.35,0,0,0-.1.61v1.63h-.9V46.35h.85V47a2.14,2.14,0,0,1,.36-.47,1,1,0,0,1,.65-.21Z"/><path d="M99.57,47v-.63h.48v-1h.88v1h.56V47h-.56v1.81c0,.14,0,.23.06.26a.6.6,0,0,0,.32,0h.18v.66l-.42,0a1.15,1.15,0,0,1-.87-.22.65.65,0,0,1-.15-.47V47Z"/><path d="M102.76,48.68a.57.57,0,0,0,.12.34.83.83,0,0,0,.62.18,1,1,0,0,0,.42-.08.25.25,0,0,0,.15-.24.24.24,0,0,0-.12-.22,4.24,4.24,0,0,0-.94-.27,2,2,0,0,1-.82-.36.8.8,0,0,1-.24-.62,1,1,0,0,1,.38-.81,1.45,1.45,0,0,1,1-.34,1.94,1.94,0,0,1,1,.25,1.1,1.1,0,0,1,.46.88H104a.55.55,0,0,0-.1-.27.62.62,0,0,0-.5-.18A.73.73,0,0,0,103,47a.26.26,0,0,0-.12.21.24.24,0,0,0,.13.23,5.24,5.24,0,0,0,.93.24,1.76,1.76,0,0,1,.8.38.88.88,0,0,1,.27.65,1.05,1.05,0,0,1-.38.83,2.29,2.29,0,0,1-2.37,0,1.14,1.14,0,0,1-.38-.87Z"/><path d="M108.34,46h-.91v-.83h.91Zm-.91.4h.91v3.42h-.91Z"/><path d="M112,46.55a1.13,1.13,0,0,1,.33.92v2.3h-.91V47.69a1.08,1.08,0,0,0-.07-.41.5.5,0,0,0-.5-.26.61.61,0,0,0-.62.38,1.31,1.31,0,0,0-.09.52v1.85h-.89V46.36h.86v.5a1.65,1.65,0,0,1,.33-.38,1.09,1.09,0,0,1,.69-.21A1.3,1.3,0,0,1,112,46.55Z"/><path d="M119.17,46.37a1,1,0,0,1,.4.3,1,1,0,0,1,.2.44,3.3,3.3,0,0,1,0,.51v2.15h-.92V47.6a.73.73,0,0,0-.06-.32.44.44,0,0,0-.44-.24.52.52,0,0,0-.51.3,1,1,0,0,0-.07.4v2h-.9v-2a1.24,1.24,0,0,0-.06-.45.45.45,0,0,0-.44-.24.54.54,0,0,0-.52.24,1,1,0,0,0-.07.42v2.06h-.91V46.36h.87v.5a1.46,1.46,0,0,1,.31-.38,1.12,1.12,0,0,1,.68-.2,1.09,1.09,0,0,1,.63.17,1,1,0,0,1,.3.41,1.07,1.07,0,0,1,.43-.44,1.41,1.41,0,0,1,.62-.14A1.12,1.12,0,0,1,119.17,46.37Z"/><path d="M123.47,49.35a1.87,1.87,0,0,1-2.63,0,2.12,2.12,0,0,1,0-2.56,1.85,1.85,0,0,1,2.63,0,2.12,2.12,0,0,1,0,2.56Zm-.72-.49a1.3,1.3,0,0,0,.21-.79,1.28,1.28,0,0,0-.21-.79.78.78,0,0,0-1.2,0,1.28,1.28,0,0,0-.21.79,1.3,1.3,0,0,0,.21.79.78.78,0,0,0,1.2,0Z"/><path d="M127.46,46.76a2,2,0,0,1,.38,1.26,2.15,2.15,0,0,1-.38,1.32,1.21,1.21,0,0,1-1,.52,1.2,1.2,0,0,1-.69-.17,1.25,1.25,0,0,1-.33-.35v.43h-.88V45.16h.89V46.8a1.28,1.28,0,0,1,.38-.36,1.08,1.08,0,0,1,.62-.16A1.29,1.29,0,0,1,127.46,46.76Zm-.75,2.09a1.27,1.27,0,0,0,.19-.74,1.72,1.72,0,0,0-.09-.6.66.66,0,0,0-.66-.45.68.68,0,0,0-.68.44,1.75,1.75,0,0,0-.09.61,1.3,1.3,0,0,0,.19.73.68.68,0,0,0,.6.29A.64.64,0,0,0,126.71,48.85Z"/><path d="M129.38,46h-.9v-.83h.9Zm-.9.4h.9v3.42h-.9Z"/><path d="M131.16,49.77h-.89V45.15h.89Z"/><path d="M134.26,46.42a1.44,1.44,0,0,1,.59.51,1.65,1.65,0,0,1,.27.71,4,4,0,0,1,0,.67h-2.49A.8.8,0,0,0,133,49a.88.88,0,0,0,.49.13A.8.8,0,0,0,134,49a.76.76,0,0,0,.18-.24h.91a1.09,1.09,0,0,1-.33.62,1.65,1.65,0,0,1-1.28.5,1.88,1.88,0,0,1-1.21-.42,1.69,1.69,0,0,1-.52-1.37,1.86,1.86,0,0,1,.47-1.36,1.64,1.64,0,0,1,1.22-.48A2.09,2.09,0,0,1,134.26,46.42Zm-1.34.78a.93.93,0,0,0-.24.52h1.54a.72.72,0,0,0-.24-.54.77.77,0,0,0-.53-.18A.69.69,0,0,0,132.92,47.2Z"/><path d="M139.61,46.42a1.38,1.38,0,0,1,.59.51,1.79,1.79,0,0,1,.28.71,5.58,5.58,0,0,1,0,.67H138a.8.8,0,0,0,.35.72.89.89,0,0,0,.5.13.75.75,0,0,0,.49-.15,1,1,0,0,0,.19-.24h.91a1.15,1.15,0,0,1-.33.62,1.69,1.69,0,0,1-1.29.5,1.87,1.87,0,0,1-1.2-.42,1.65,1.65,0,0,1-.52-1.37,1.81,1.81,0,0,1,.47-1.36,1.63,1.63,0,0,1,1.22-.48A2,2,0,0,1,139.61,46.42Zm-1.33.78a.87.87,0,0,0-.24.52h1.54a.8.8,0,0,0-.24-.54.79.79,0,0,0-.53-.18A.66.66,0,0,0,138.28,47.2Z"/><path d="M141.87,49.77H141V45.15h.89Z"/><path d="M145,46.42a1.44,1.44,0,0,1,.59.51,1.65,1.65,0,0,1,.27.71,3.18,3.18,0,0,1,0,.67h-2.49a.8.8,0,0,0,.36.72.88.88,0,0,0,.49.13.78.78,0,0,0,.5-.15.76.76,0,0,0,.18-.24h.91a1.09,1.09,0,0,1-.33.62,1.65,1.65,0,0,1-1.28.5,1.88,1.88,0,0,1-1.21-.42,1.69,1.69,0,0,1-.52-1.37,1.86,1.86,0,0,1,.47-1.36,1.65,1.65,0,0,1,1.23-.48A2.08,2.08,0,0,1,145,46.42Zm-1.34.78a1,1,0,0,0-.24.52h1.54a.75.75,0,0,0-.23-.54.81.81,0,0,0-.53-.18A.69.69,0,0,0,143.63,47.2Z"/><path d="M148.36,47.58a.87.87,0,0,0-.13-.35.56.56,0,0,0-.47-.2.62.62,0,0,0-.62.45,1.79,1.79,0,0,0-.09.63,1.65,1.65,0,0,0,.09.6.6.6,0,0,0,.6.43.55.55,0,0,0,.45-.17.83.83,0,0,0,.16-.44h.91a1.52,1.52,0,0,1-.29.77,1.45,1.45,0,0,1-1.25.59,1.47,1.47,0,0,1-1.21-.49,2.33,2.33,0,0,1,0-2.64,1.52,1.52,0,0,1,1.19-.49,1.83,1.83,0,0,1,1,.29,1.34,1.34,0,0,1,.48,1Z"/><path d="M149.53,47v-.63H150v-1h.88v1h.56V47h-.56v1.81c0,.14,0,.23.06.26a.6.6,0,0,0,.32,0h.18v.66l-.42,0a1.15,1.15,0,0,1-.87-.22.65.65,0,0,1-.15-.47V47Z"/><path d="M153.92,46.27H154v.91h-.26a.74.74,0,0,0-.72.35,1.32,1.32,0,0,0-.11.61v1.63H152V46.35h.86V47a1.66,1.66,0,0,1,.36-.47,1,1,0,0,1,.65-.21Z"/><path d="M155.44,46h-.91v-.83h.91Zm-.91.4h.91v3.42h-.91Z"/><path d="M158.35,47.58a.87.87,0,0,0-.13-.35.56.56,0,0,0-.47-.2.62.62,0,0,0-.62.45,2.1,2.1,0,0,0-.08.63,1.93,1.93,0,0,0,.08.6.6.6,0,0,0,.61.43.52.52,0,0,0,.44-.17.83.83,0,0,0,.16-.44h.92a1.45,1.45,0,0,1-.3.77,1.43,1.43,0,0,1-1.24.59,1.48,1.48,0,0,1-1.22-.49,2.33,2.33,0,0,1,0-2.64,1.52,1.52,0,0,1,1.19-.49,1.79,1.79,0,0,1,1.05.29,1.35,1.35,0,0,1,.49,1Z"/><path d="M161.23,47.69a1.07,1.07,0,0,0,.36-.08.25.25,0,0,0,.19-.25.3.3,0,0,0-.15-.29,1,1,0,0,0-.43-.08.56.56,0,0,0-.46.16.63.63,0,0,0-.12.31h-.87a1.34,1.34,0,0,1,.26-.74,1.45,1.45,0,0,1,1.22-.45,2.17,2.17,0,0,1,1,.23.84.84,0,0,1,.44.84v2a.55.55,0,0,0,.06.24.34.34,0,0,0,.13.1v.13h-1a.82.82,0,0,1-.06-.19,1.25,1.25,0,0,1,0-.21,2,2,0,0,1-.43.34,1.35,1.35,0,0,1-.66.17,1.11,1.11,0,0,1-.77-.27.94.94,0,0,1-.31-.75,1,1,0,0,1,.49-.91,2.21,2.21,0,0,1,.79-.22Zm.55.42-.18.09-.24.06-.2,0a1.4,1.4,0,0,0-.41.13.41.41,0,0,0-.21.38.39.39,0,0,0,.13.33.46.46,0,0,0,.31.1.94.94,0,0,0,.54-.17.71.71,0,0,0,.26-.62Z"/><path d="M164.36,49.77h-.89V45.15h.89Z"/><path d="M167.71,48.68a.64.64,0,0,0,.12.34.83.83,0,0,0,.62.18,1,1,0,0,0,.42-.08.26.26,0,0,0,.16-.24.25.25,0,0,0-.13-.22,3.88,3.88,0,0,0-.93-.27,2.1,2.1,0,0,1-.83-.36.83.83,0,0,1-.23-.62,1,1,0,0,1,.37-.81,1.49,1.49,0,0,1,1.05-.34,1.93,1.93,0,0,1,1,.25,1.1,1.1,0,0,1,.47.88h-.9a.46.46,0,0,0-.1-.27.6.6,0,0,0-.5-.18.77.77,0,0,0-.42.09.26.26,0,0,0-.12.21.24.24,0,0,0,.13.23,5.19,5.19,0,0,0,.94.24,1.81,1.81,0,0,1,.8.38.91.91,0,0,1,.26.65,1.05,1.05,0,0,1-.38.83,2.28,2.28,0,0,1-2.36,0,1.11,1.11,0,0,1-.39-.87Z"/><path d="M170.72,50.43h.12a1,1,0,0,0,.25,0,.36.36,0,0,0,.34-.29.41.41,0,0,0,.06-.21l-1.26-3.57h1l.74,2.52.71-2.52h.95l-1.17,3.37a5.07,5.07,0,0,1-.54,1.2,1,1,0,0,1-.79.23h-.41Z"/><path d="M174.85,48.68A.64.64,0,0,0,175,49a.85.85,0,0,0,.62.18,1,1,0,0,0,.42-.08.25.25,0,0,0,.16-.24.23.23,0,0,0-.13-.22,3.88,3.88,0,0,0-.93-.27,2,2,0,0,1-.82-.36.8.8,0,0,1-.24-.62,1,1,0,0,1,.37-.81,1.49,1.49,0,0,1,1.05-.34,1.91,1.91,0,0,1,1,.25,1.1,1.1,0,0,1,.47.88h-.9a.54.54,0,0,0-.09-.27.63.63,0,0,0-.51-.18.71.71,0,0,0-.41.09.25.25,0,0,0-.13.21.25.25,0,0,0,.13.23,5.19,5.19,0,0,0,.94.24,1.81,1.81,0,0,1,.8.38.91.91,0,0,1,.26.65,1,1,0,0,1-.38.83,2.28,2.28,0,0,1-2.36,0,1.1,1.1,0,0,1-.38-.87Z"/><path d="M177.38,47v-.63h.48v-1h.88v1h.55V47h-.55v1.81a.44.44,0,0,0,0,.26.68.68,0,0,0,.33,0h.17v.66l-.42,0a1.14,1.14,0,0,1-.86-.22.65.65,0,0,1-.15-.47V47Z"/><path d="M182.1,46.42a1.51,1.51,0,0,1,.59.51,1.65,1.65,0,0,1,.27.71,5.58,5.58,0,0,1,0,.67H180.5a.78.78,0,0,0,.36.72.85.85,0,0,0,.49.13.75.75,0,0,0,.49-.15.78.78,0,0,0,.19-.24h.91a1.09,1.09,0,0,1-.33.62,1.67,1.67,0,0,1-1.29.5,1.87,1.87,0,0,1-1.2-.42,1.65,1.65,0,0,1-.52-1.37,1.86,1.86,0,0,1,.47-1.36,1.63,1.63,0,0,1,1.22-.48A2.09,2.09,0,0,1,182.1,46.42Zm-1.34.78a.87.87,0,0,0-.24.52h1.54a.8.8,0,0,0-.24-.54.79.79,0,0,0-.53-.18A.66.66,0,0,0,180.76,47.2Z"/><path d="M187.7,46.37a1,1,0,0,1,.4.3,1,1,0,0,1,.2.44,3.3,3.3,0,0,1,0,.51v2.15h-.91V47.6a.61.61,0,0,0-.07-.32.44.44,0,0,0-.44-.24.52.52,0,0,0-.51.3,1.15,1.15,0,0,0-.07.4v2h-.9v-2a1.24,1.24,0,0,0-.06-.45.44.44,0,0,0-.44-.24.54.54,0,0,0-.52.24,1,1,0,0,0-.07.42v2.06h-.91V46.36h.87v.5a1.29,1.29,0,0,1,.32-.38,1.07,1.07,0,0,1,.67-.2,1.09,1.09,0,0,1,.63.17,1,1,0,0,1,.3.41,1.14,1.14,0,0,1,.43-.44,1.41,1.41,0,0,1,.62-.14A1.12,1.12,0,0,1,187.7,46.37Z"/><path d="M189.84,48.68A.57.57,0,0,0,190,49a.81.81,0,0,0,.61.18,1,1,0,0,0,.42-.08.25.25,0,0,0,.16-.24.23.23,0,0,0-.13-.22,3.88,3.88,0,0,0-.93-.27,2,2,0,0,1-.82-.36.8.8,0,0,1-.24-.62,1,1,0,0,1,.37-.81,1.49,1.49,0,0,1,1.05-.34,1.88,1.88,0,0,1,1,.25,1.1,1.1,0,0,1,.47.88h-.9a.54.54,0,0,0-.09-.27.63.63,0,0,0-.51-.18.71.71,0,0,0-.41.09.25.25,0,0,0-.13.21.24.24,0,0,0,.14.23,4.72,4.72,0,0,0,.93.24,1.81,1.81,0,0,1,.8.38.91.91,0,0,1,.26.65,1,1,0,0,1-.38.83,2.28,2.28,0,0,1-2.36,0,1.1,1.1,0,0,1-.38-.87Z"/><path d="M92.53,33.16a5.82,5.82,0,0,1-3.82,1.12H85.53v5.48H82.37V24.51h6.55a5.27,5.27,0,0,1,3.61,1.18,4.59,4.59,0,0,1,1.34,3.65C93.87,31.14,93.43,32.41,92.53,33.16ZM90.1,27.67a2.55,2.55,0,0,0-1.69-.51H85.53v4.49h2.88a2.41,2.41,0,0,0,1.69-.55,2.22,2.22,0,0,0,.61-1.74A2.06,2.06,0,0,0,90.1,27.67Z"/><path d="M96.48,24.51h3.14v6.28l5.89-6.28h4.12l-6.26,6.27,6.58,9h-4.1l-4.7-6.66-1.53,1.56v5.1H96.48Z"/><path d="M120.43,24.51H124L118.94,34v5.72h-3.18V34l-5.28-9.53h3.76l3.16,6.64Z"/><path d="M128.16,35.05a3.13,3.13,0,0,0,.58,1.57,3.43,3.43,0,0,0,2.72.94,6,6,0,0,0,1.87-.25,1.78,1.78,0,0,0,1.36-1.77,1.31,1.31,0,0,0-.67-1.17,7,7,0,0,0-2.11-.71l-1.66-.37a9.89,9.89,0,0,1-3.34-1.17,3.7,3.7,0,0,1-1.54-3.3,4.37,4.37,0,0,1,1.51-3.4,6.43,6.43,0,0,1,4.43-1.36,6.81,6.81,0,0,1,4.16,1.28,4.55,4.55,0,0,1,1.81,3.71h-3.07A2.14,2.14,0,0,0,133,27.1a4.13,4.13,0,0,0-1.89-.39,3.61,3.61,0,0,0-2,.5,1.57,1.57,0,0,0-.75,1.39,1.3,1.3,0,0,0,.74,1.22,9.08,9.08,0,0,0,2,.63l2.67.63a6.81,6.81,0,0,1,2.64,1.11,3.71,3.71,0,0,1,1.36,3.11,4.39,4.39,0,0,1-1.61,3.47,6.84,6.84,0,0,1-4.57,1.38,7.42,7.42,0,0,1-4.73-1.36,4.47,4.47,0,0,1-1.73-3.74Z"/><path d="M148.79,39.76h-3.16V24.51h3.16Z"/><path d="M151.72,24.51h3.34l6.06,10.63V24.51h3V39.76H160.9l-6.21-10.82V39.76h-3Z"/><path d="M168.53,26.1a6.3,6.3,0,0,1,4.69-1.88c2.54,0,4.39.84,5.57,2.52a5.54,5.54,0,0,1,1,2.85h-3.18a4.5,4.5,0,0,0-.79-1.66,3.47,3.47,0,0,0-5.21.41,6.91,6.91,0,0,0-1,4,6,6,0,0,0,1,3.84,3.23,3.23,0,0,0,2.64,1.28,3,3,0,0,0,2.5-1.09,4.89,4.89,0,0,0,.78-1.77h3.17a6.85,6.85,0,0,1-2.09,4,6.11,6.11,0,0,1-4.32,1.56,6.44,6.44,0,0,1-5.11-2.11,8.45,8.45,0,0,1-1.87-5.81A8.45,8.45,0,0,1,168.53,26.1Z"/><path d="M7,19.12V52.86H73.26V19.12ZM63.09,38.06l-49.8,7.27V26.64l49.8,6.27Z"/><circle cx="23.08" cy="35.99" r="4.27"/><rect class="cls-1" width="197.28" height="78.56"/></g></g></svg>