<?xml version="1.0" standalone="no"?>
<!DOCTYPE svg PUBLIC "-//W3C//DTD SVG 20010904//EN"
 "http://www.w3.org/TR/2001/REC-SVG-20010904/DTD/svg10.dtd">
<svg version="1.0" xmlns="http://www.w3.org/2000/svg"
 width="826.000000pt" height="196.000000pt" viewBox="0 0 826.000000 196.000000"
 preserveAspectRatio="xMidYMid meet">

<g transform="translate(0.000000,196.000000) scale(0.100000,-0.100000)"
fill="#b8b8b8" stroke="none">
<path d="M510 1949 c-164 -17 -295 -40 -330 -58 -55 -28 -77 -85 -111 -280
-55 -324 -64 -436 -64 -829 0 -209 -6 -200 146 -226 88 -15 126 -16 244 -8
l140 9 -146 2 c-104 1 -150 5 -164 15 -17 12 -18 31 -12 407 4 217 8 405 11
419 2 14 7 84 11 155 8 150 12 192 26 257 18 79 3 73 364 131 89 15 89 15 30
15 -33 -1 -98 -5 -145 -9z"/>
<path d="M7561 1956 c2 -2 89 -17 193 -32 134 -20 195 -33 211 -46 35 -27 50
-105 60 -324 4 -71 9 -140 11 -154 2 -14 7 -202 11 -419 6 -376 5 -395 -12
-407 -14 -10 -58 -14 -164 -14 -79 0 -142 -2 -140 -4 2 -2 69 -6 149 -10 119
-5 162 -3 243 13 58 11 106 25 115 35 15 15 17 47 15 299 -2 252 -6 326 -29
512 -15 119 -63 373 -79 413 -23 57 -59 80 -152 98 -126 24 -446 54 -432 40z"/>
<path d="M4437 1625 c-93 -35 -137 -99 -137 -201 1 -115 44 -168 190 -230 46
-19 95 -43 110 -54 55 -39 63 -135 15 -180 -49 -46 -157 -46 -277 0 l-48 18 0
-59 0 -58 58 -18 c72 -22 231 -24 282 -4 95 39 141 108 141 211 1 79 -31 145
-86 181 -22 14 -77 40 -123 59 -119 47 -159 102 -130 178 20 55 64 75 153 68
39 -2 89 -12 113 -20 l43 -15 -3 56 -3 57 -40 12 c-55 17 -211 16 -258 -1z"/>
<path d="M6689 1621 c-168 -55 -252 -191 -251 -401 1 -149 43 -249 133 -320
75 -59 133 -75 274 -75 66 1 139 6 163 13 l42 13 0 53 0 54 -47 -15 c-27 -8
-88 -15 -138 -16 -73 0 -99 4 -140 22 -92 41 -135 99 -155 211 -47 260 138
432 393 365 32 -8 62 -15 67 -15 6 0 10 22 10 49 0 46 -2 50 -32 61 -18 7 -85
14 -148 16 -93 3 -126 1 -171 -15z"/>
<path d="M560 1235 c0 -217 3 -396 8 -396 38 -6 81 -7 100 -3 l23 5 -3 164 -3
165 148 0 147 0 0 49 c0 37 -4 50 -17 55 -9 4 -73 6 -141 5 -68 -1 -125 1
-128 4 -3 3 -6 57 -7 121 l-2 116 163 0 162 0 0 55 0 55 -225 0 -225 0 0 -395z"/>
<path d="M1232 1233 l3 -398 230 0 230 0 3 53 3 52 -175 0 -176 0 0 345 0 345
-60 0 -60 0 2 -397z"/>
<path d="M2008 1247 c-76 -210 -139 -388 -140 -396 -2 -10 10 -14 50 -16 28 0
56 1 60 4 5 3 23 48 41 99 l33 92 162 0 161 0 33 -94 c18 -52 40 -97 49 -100
21 -8 113 -7 113 1 0 4 -64 184 -142 400 l-143 393 -70 0 -70 0 -137 -383z
m329 -104 c-3 -2 -60 -2 -129 -1 l-125 3 59 165 c32 91 61 172 64 180 3 8 35
-66 70 -164 35 -98 63 -181 61 -183z"/>
<path d="M2782 1234 l3 -399 34 -3 c19 -2 44 -1 57 2 23 6 24 8 26 168 l3 163
53 1 c29 0 59 -4 66 -10 7 -6 46 -65 86 -131 128 -211 107 -190 184 -193 36
-2 66 0 66 4 0 3 -47 84 -105 180 -58 95 -105 175 -105 178 0 3 17 14 38 25
77 40 122 113 122 198 -1 90 -52 161 -140 193 -21 7 -108 15 -213 17 l-177 5
2 -398z m331 272 c66 -28 92 -91 64 -158 -24 -57 -75 -78 -187 -78 l-90 0 0
125 0 125 90 0 c54 0 104 -6 123 -14z"/>
<path d="M3587 1616 c-3 -8 -5 -187 -4 -397 l2 -384 235 0 235 0 3 53 3 52
-175 0 -176 0 0 125 0 125 150 0 150 0 0 55 0 55 -150 0 -150 0 0 110 0 110
175 0 175 0 0 55 0 55 -234 0 c-191 0 -235 -3 -239 -14z"/>
<path d="M5000 1236 l0 -396 23 -6 c13 -3 41 -4 63 -2 l39 3 2 145 1 145 101
6 c122 8 196 38 241 100 78 108 58 280 -40 345 -58 38 -130 52 -289 53 l-141
2 0 -395z m315 270 c98 -41 99 -199 2 -249 -26 -13 -60 -20 -110 -21 l-72 -1
-5 143 -5 142 78 0 c45 0 92 -6 112 -14z"/>
<path d="M5879 1603 c-58 -152 -274 -763 -270 -764 3 -1 22 -3 41 -5 70 -6 75
-2 110 101 19 52 38 95 44 96 6 0 79 0 161 0 l150 0 34 -93 c18 -51 35 -95 37
-97 9 -9 124 -9 124 0 0 5 -64 185 -141 399 l-141 390 -69 0 c-67 0 -70 -1
-80 -27z m140 -277 c34 -93 61 -173 61 -178 0 -4 -56 -8 -125 -8 -69 0 -125 3
-125 8 0 11 122 353 126 350 1 -2 30 -79 63 -172z"/>
<path d="M7262 1233 l3 -398 230 0 230 0 3 53 3 52 -175 0 -176 0 0 125 0 125
149 0 c163 0 164 0 157 60 -2 14 -4 31 -5 38 -1 9 -38 12 -151 12 l-150 0 0
110 0 110 175 0 175 0 0 55 0 55 -235 0 -235 0 2 -397z"/>
</g>
</svg>
