<?xml version="1.0" standalone="no"?>
<!DOCTYPE svg PUBLIC "-//W3C//DTD SVG 20010904//EN"
 "http://www.w3.org/TR/2001/REC-SVG-20010904/DTD/svg10.dtd">
<svg version="1.0" xmlns="http://www.w3.org/2000/svg"
 width="3543.000000pt" height="531.000000pt" viewBox="0 0 3543.000000 531.000000"
 preserveAspectRatio="xMidYMid meet">

<g transform="translate(0.000000,531.000000) scale(0.100000,-0.100000)"
fill="#b8b8b8" stroke="none">
<path d="M2560 5205 c-14 -7 -59 -23 -100 -35 -243 -70 -480 -259 -645 -515
-118 -183 -207 -385 -281 -637 -8 -27 -21 -72 -29 -100 -9 -29 -23 -89 -31
-133 -9 -44 -23 -111 -30 -150 -8 -38 -21 -119 -29 -180 -8 -60 -16 -119 -19
-130 -2 -11 -10 -80 -17 -152 -7 -73 -16 -133 -21 -133 -4 0 -8 -101 -8 -225
0 -124 4 -225 9 -225 5 0 16 -16 26 -35 42 -91 136 -155 224 -155 113 0 238
82 269 175 9 25 17 130 22 280 5 132 14 269 19 305 6 36 15 108 21 160 36 330
129 657 262 915 93 181 231 332 366 397 82 41 84 43 148 139 105 157 238 289
367 363 26 16 47 32 47 36 0 5 -25 14 -55 20 -30 6 -55 16 -55 21 0 15 -430
10 -460 -6z"/>
<path d="M3605 5211 c-6 -5 -46 -18 -91 -29 -275 -69 -527 -264 -713 -552
-132 -204 -255 -511 -316 -790 -9 -41 -20 -91 -25 -110 -8 -32 -19 -86 -25
-135 -8 -51 -36 -236 -45 -290 -5 -33 -12 -121 -15 -195 -4 -74 -11 -157 -16
-183 -5 -26 -9 -106 -9 -177 0 -147 14 -199 71 -270 72 -87 179 -112 296 -69
69 26 142 96 161 154 9 26 17 132 22 295 5 140 13 287 18 325 23 165 53 362
59 380 3 11 12 47 18 80 49 234 165 531 272 693 40 59 65 66 87 24 19 -37 54
-68 65 -56 5 5 39 79 76 164 128 301 241 449 484 640 l94 74 -31 8 c-17 5 -34
13 -37 18 -8 13 -387 13 -400 1z"/>
<path d="M4550 5211 c0 -5 -24 -14 -52 -21 -191 -40 -383 -142 -525 -278 -87
-84 -142 -151 -223 -272 -60 -88 -187 -338 -208 -410 -6 -19 -18 -55 -27 -79
-51 -140 -121 -421 -145 -581 -6 -41 -16 -100 -21 -131 -5 -31 -12 -88 -15
-125 -2 -38 -9 -89 -14 -114 -16 -75 -31 -549 -19 -600 30 -129 139 -217 259
-208 68 5 175 56 210 101 49 61 59 108 61 276 2 215 28 504 58 656 44 215 86
382 122 481 63 175 85 227 133 314 107 192 121 202 171 130 16 -23 35 -40 44
-38 8 2 30 42 51 98 111 290 287 528 523 703 42 32 77 62 77 68 0 5 -13 12
-30 16 -16 3 -30 9 -30 14 0 5 -90 9 -200 9 -115 0 -200 -4 -200 -9z"/>
<path d="M5516 5205 c-11 -8 -30 -15 -42 -15 -54 0 -264 -88 -369 -155 -72
-45 -189 -156 -282 -265 -79 -93 -198 -301 -266 -465 -94 -227 -186 -600 -217
-875 -5 -47 -14 -112 -19 -145 -10 -55 -17 -153 -26 -325 -1 -36 -6 -122 -10
-192 -6 -102 -4 -137 9 -182 32 -110 138 -196 241 -196 60 0 160 42 208 88 63
61 73 107 80 347 16 557 122 1056 293 1380 59 113 125 209 146 213 37 7 209
-290 253 -438 9 -30 21 -64 25 -75 29 -66 104 -435 126 -614 18 -152 46 -547
60 -841 3 -69 10 -141 14 -160 5 -19 12 -64 15 -100 3 -36 7 -76 10 -90 2 -14
7 -43 10 -65 19 -145 83 -493 101 -553 7 -23 7 -23 19 5 45 99 88 317 119 603
9 80 21 181 27 225 6 44 14 161 18 260 6 166 9 184 34 238 16 35 49 80 81 111
l54 53 -8 119 c-4 66 -10 126 -13 134 -3 8 -8 38 -11 66 -6 66 -41 285 -62
389 -65 332 -199 704 -326 904 -15 25 -28 51 -28 58 0 43 211 -24 324 -103 78
-54 188 -186 278 -334 24 -40 95 -203 119 -272 69 -206 138 -509 144 -638 1
-19 5 -42 8 -50 3 -8 8 -65 11 -126 3 -61 8 -118 12 -127 3 -9 24 -27 45 -39
118 -66 164 -217 148 -478 -15 -239 -27 -374 -34 -400 -2 -8 -9 -55 -15 -105
-6 -49 -15 -111 -21 -137 -9 -38 -7 -68 6 -145 19 -116 45 -222 55 -228 19
-12 81 231 110 430 24 167 32 223 35 270 3 28 7 73 10 100 4 28 10 145 15 260
5 116 14 230 20 255 17 70 61 141 110 179 32 24 44 40 42 55 -1 12 -8 86 -16
166 -77 781 -276 1348 -589 1677 -84 87 -211 184 -307 233 -71 36 -266 100
-307 100 -10 0 -31 7 -47 15 -41 22 -392 21 -420 0z"/>
<path d="M12784 5142 c-74 -41 -97 -71 -114 -145 -20 -90 25 -180 107 -218 67
-30 164 -24 222 14 120 80 105 285 -26 351 -43 22 -148 21 -189 -2z"/>
<path d="M15622 5102 c-40 -19 -82 -101 -95 -182 -5 -30 -11 -134 -14 -231
l-4 -176 -61 -7 c-117 -12 -169 -54 -176 -141 -4 -44 -1 -55 22 -82 36 -43 80
-63 137 -63 86 0 79 40 79 -434 0 -306 4 -452 15 -536 33 -268 97 -359 285
-410 153 -41 417 -16 515 49 103 68 115 187 25 251 -28 20 -39 21 -103 16
-222 -20 -214 -20 -248 4 -63 46 -63 46 -67 563 -3 354 -1 472 8 483 9 10 36
14 99 14 105 0 152 12 194 50 30 26 32 33 32 93 0 108 -42 136 -213 144 -62 3
-114 9 -117 13 -2 3 -5 92 -6 196 -2 262 -26 346 -110 388 -42 21 -153 20
-197 -2z"/>
<path d="M14140 4535 c-200 -32 -322 -89 -443 -204 -90 -86 -158 -201 -196
-331 -7 -25 -17 -56 -22 -70 -11 -35 -12 -58 -12 -267 1 -234 -1 -215 27 -305
60 -187 142 -302 291 -404 110 -75 278 -122 466 -131 263 -13 535 82 682 236
154 161 170 372 34 439 -60 31 -101 31 -159 4 -39 -19 -57 -39 -117 -131 -81
-124 -130 -172 -210 -209 -50 -23 -69 -25 -171 -25 -132 0 -175 12 -255 72
-79 60 -125 137 -161 269 -26 98 -16 375 16 457 4 11 13 34 20 52 17 45 80
127 126 164 79 63 117 74 249 74 120 0 120 0 186 -37 70 -39 117 -86 189 -188
56 -79 98 -111 153 -117 95 -11 167 35 197 125 11 35 12 54 2 98 -24 114 -82
196 -198 280 -185 133 -448 190 -694 149z"/>
<path d="M24070 4535 c-105 -17 -183 -36 -196 -46 -6 -5 -27 -15 -47 -22 -67
-23 -209 -136 -262 -208 -26 -35 -73 -117 -80 -140 -4 -13 -11 -28 -15 -34 -7
-9 -24 -63 -37 -115 -20 -82 -26 -149 -27 -285 -1 -208 15 -289 84 -441 69
-153 179 -264 331 -333 118 -54 104 -50 274 -81 84 -16 323 -7 405 14 76 20
148 44 173 57 10 6 46 24 80 41 72 37 173 133 206 198 33 63 36 158 7 199 -24
35 -62 51 -117 51 -56 0 -75 -11 -174 -96 -146 -125 -237 -176 -351 -194 -70
-11 -205 0 -245 20 -102 52 -179 138 -218 243 -23 64 -43 180 -34 203 4 12 77
14 460 14 381 0 466 3 526 16 84 19 127 43 164 90 22 30 26 47 30 127 4 82 -3
172 -21 247 -10 45 -66 148 -113 211 -86 114 -239 212 -383 245 -146 34 -292
40 -420 19z m278 -290 c116 -41 186 -116 233 -252 21 -62 36 -173 23 -173
-594 -2 -767 -1 -774 6 -5 5 -3 36 5 69 42 187 111 284 245 344 57 25 204 28
268 6z"/>
<path d="M27915 4535 c-111 -18 -156 -31 -230 -64 -127 -58 -223 -138 -298
-251 -52 -78 -88 -168 -119 -300 -15 -62 -22 -420 -8 -434 5 -5 10 -21 10 -36
0 -63 76 -243 139 -330 66 -91 237 -219 314 -235 18 -4 37 -11 42 -15 6 -4 37
-13 70 -19 33 -7 80 -16 105 -21 85 -17 285 -12 379 10 121 28 146 36 237 81
106 53 182 114 229 185 34 52 39 66 43 134 4 74 3 78 -24 109 -25 28 -37 33
-92 38 -59 6 -65 4 -110 -27 -26 -18 -67 -52 -92 -74 -76 -70 -127 -106 -204
-142 -160 -76 -339 -65 -464 29 -56 42 -124 147 -143 220 -16 61 -28 158 -22
174 4 11 87 13 453 13 487 0 563 7 642 56 73 46 99 136 82 284 -6 52 -13 97
-14 100 -2 3 -4 10 -5 15 -36 207 -266 431 -492 481 -158 35 -292 40 -428 19z
m297 -297 c98 -40 166 -114 209 -226 27 -74 42 -172 27 -189 -13 -16 -745 -18
-765 -2 -26 22 16 169 82 289 23 41 77 87 140 119 54 28 69 31 156 31 76 0
107 -5 151 -22z"/>
<path d="M10915 4533 c-34 -9 -67 -36 -96 -77 -39 -53 -39 -109 2 -212 17 -44
40 -104 51 -134 12 -30 25 -59 30 -64 4 -6 8 -16 8 -24 0 -12 42 -120 81 -207
4 -11 17 -42 28 -70 10 -27 26 -63 35 -80 9 -16 16 -36 16 -43 0 -7 4 -20 9
-30 5 -9 18 -39 29 -67 12 -27 41 -100 66 -160 26 -61 46 -114 46 -118 0 -10
28 -72 91 -202 58 -122 95 -168 162 -201 42 -22 61 -25 113 -22 109 7 185 81
258 253 21 50 42 98 47 107 5 10 9 22 9 28 0 6 16 45 35 86 19 41 35 79 35 84
0 6 4 18 9 28 5 9 19 42 31 72 13 30 29 69 36 87 8 17 14 37 14 45 0 8 4 18 8
23 5 6 19 37 31 70 24 63 56 138 72 167 5 10 9 23 9 28 0 6 8 30 19 53 10 23
33 80 51 127 18 47 41 104 52 127 10 24 18 49 18 56 0 7 5 18 10 23 18 18 15
140 -3 168 -32 47 -85 79 -142 84 -107 9 -164 -33 -211 -152 -15 -39 -35 -89
-44 -111 -9 -22 -27 -69 -39 -105 -31 -87 -87 -241 -94 -260 -4 -8 -16 -42
-27 -75 -12 -33 -25 -69 -30 -80 -4 -11 -17 -45 -28 -75 -11 -30 -23 -64 -28
-75 -4 -11 -8 -24 -9 -30 0 -5 -7 -23 -13 -40 -26 -63 -45 -111 -52 -130 -24
-63 -31 -75 -45 -75 -8 0 -15 8 -15 18 0 10 -3 22 -7 25 -3 4 -17 38 -29 75
-27 82 -72 210 -83 237 -19 46 -50 132 -56 155 -7 25 -60 177 -75 215 -5 11
-20 56 -35 100 -15 44 -33 94 -40 110 -7 17 -27 67 -45 111 -22 56 -44 94 -70
119 -36 35 -43 38 -107 41 -37 1 -77 0 -88 -3z"/>
<path d="M12775 4522 c-51 -25 -80 -65 -99 -140 -14 -51 -16 -152 -16 -690 0
-426 4 -648 11 -684 27 -127 93 -188 204 -188 64 0 97 14 142 62 65 68 64 58
61 828 -3 674 -4 696 -23 729 -11 19 -37 48 -58 65 -34 27 -47 31 -110 34 -55
2 -82 -2 -112 -16z"/>
<path d="M16700 4533 c-8 -3 -26 -15 -38 -27 -88 -79 -92 -113 -92 -831 0
-641 4 -694 53 -772 39 -62 92 -86 177 -81 86 5 131 36 169 117 l26 56 6 380
c8 407 18 511 61 624 31 81 76 134 141 167 45 23 60 26 117 21 36 -3 92 -13
125 -22 120 -33 136 -36 173 -25 52 14 79 35 102 80 48 94 12 193 -92 256 -58
36 -65 38 -153 56 -70 14 -222 5 -262 -16 -83 -42 -153 -112 -185 -182 -8 -17
-18 -24 -32 -22 -17 2 -22 13 -28 56 -10 64 -26 97 -68 137 -28 27 -38 30
-108 32 -42 1 -84 0 -92 -4z"/>
<path d="M18555 4530 c-144 -25 -138 -23 -267 -84 -60 -28 -97 -56 -166 -124
-75 -74 -95 -101 -132 -177 -72 -151 -71 -146 -93 -345 -11 -95 -11 -136 0
-235 7 -66 13 -127 14 -135 2 -26 51 -160 74 -203 77 -145 181 -245 325 -315
58 -27 123 -54 145 -58 22 -4 45 -8 50 -10 81 -19 118 -23 220 -23 66 0 138 4
160 8 22 5 67 14 100 21 33 6 64 16 70 21 5 5 16 9 25 9 29 0 153 71 222 127
124 100 211 257 258 460 14 63 16 378 2 425 -40 134 -58 189 -74 226 -63 143
-193 272 -348 344 -113 52 -202 70 -375 73 -88 2 -182 0 -210 -5z m293 -302
c99 -24 192 -105 247 -213 73 -144 82 -438 20 -622 -32 -93 -117 -190 -205
-232 -50 -24 -65 -26 -180 -26 -113 1 -130 3 -180 26 -117 55 -220 212 -235
359 -20 186 -10 346 28 432 8 18 23 53 33 78 29 68 127 160 200 187 68 25 195
30 272 11z"/>
<path d="M20025 4527 c-42 -20 -71 -55 -91 -107 -15 -41 -17 -112 -15 -737 2
-744 1 -722 53 -796 73 -103 258 -86 319 29 35 68 41 122 40 394 0 129 3 323
8 431 8 196 9 200 55 299 19 43 122 139 173 162 38 17 69 21 145 22 65 1 101
-3 109 -11 7 -7 19 -13 27 -13 28 0 81 -53 108 -108 15 -31 32 -66 38 -77 7
-13 13 -188 16 -520 5 -495 5 -501 28 -550 28 -61 47 -82 94 -106 108 -55 237
3 279 126 19 56 20 1034 1 1144 -25 148 -125 298 -239 358 -115 62 -143 68
-320 68 -116 0 -166 -4 -175 -12 -6 -7 -21 -13 -32 -13 -26 0 -145 -61 -190
-96 -18 -14 -52 -50 -77 -80 -61 -74 -75 -72 -81 14 -9 125 -62 182 -176 189
-44 2 -77 -1 -97 -10z"/>
<path d="M25495 4533 c-38 -10 -73 -43 -94 -88 -21 -44 -21 -53 -21 -754 0
-759 -1 -739 50 -804 49 -62 156 -85 237 -52 50 21 70 41 95 94 24 52 25 69
32 606 4 303 12 396 37 459 32 77 155 206 198 206 10 0 22 5 29 12 7 7 48 12
109 12 89 0 103 -2 150 -28 60 -33 97 -81 126 -163 20 -54 21 -87 27 -538 7
-509 10 -542 56 -602 55 -72 169 -95 249 -50 43 24 94 90 95 123 0 11 5 25 10
30 14 14 7 1048 -8 1127 -25 134 -131 288 -239 346 -101 55 -154 66 -318 66
-157 0 -209 -11 -315 -65 -56 -29 -154 -113 -180 -155 -25 -40 -57 -44 -53 -7
4 33 -24 134 -45 161 -37 50 -69 65 -140 68 -37 1 -76 -1 -87 -4z"/>
<path d="M29362 4533 c-13 -2 -41 -22 -61 -42 -71 -71 -71 -77 -68 -833 3
-721 2 -709 60 -775 39 -44 82 -63 144 -63 94 1 163 55 191 150 6 19 13 177
16 350 6 390 17 517 54 641 24 82 34 100 80 151 78 87 169 99 351 48 67 -19
114 -27 135 -23 46 9 86 41 107 87 56 123 -17 241 -180 293 -72 23 -259 25
-311 3 -67 -28 -123 -74 -173 -142 -27 -37 -53 -68 -57 -68 -14 0 -27 25 -34
65 -10 56 -42 117 -72 139 -27 19 -132 30 -182 19z"/>
<path d="M31115 4530 c-138 -23 -254 -76 -333 -153 -76 -73 -149 -187 -167
-260 -4 -15 -11 -30 -16 -33 -5 -3 -9 -15 -9 -28 0 -12 -4 -26 -9 -31 -14 -14
-34 -195 -34 -305 -1 -109 17 -262 37 -329 88 -288 249 -454 502 -515 79 -19
250 -18 339 3 113 25 257 118 305 196 13 21 30 35 42 35 18 0 19 -5 14 -52 -3
-29 -8 -100 -11 -158 -4 -58 -10 -118 -15 -135 -5 -16 -16 -57 -25 -90 -14
-48 -27 -70 -69 -110 -64 -63 -122 -83 -262 -92 -197 -12 -278 20 -426 169
-118 118 -142 132 -220 126 -70 -5 -104 -27 -136 -89 -77 -146 68 -343 314
-426 241 -82 502 -92 769 -28 94 22 227 87 282 138 71 65 163 219 163 273 0
11 3 24 8 28 4 4 13 35 21 69 11 49 15 222 18 818 5 870 4 872 -67 944 l-40
40 -85 0 -85 0 -40 -40 c-41 -41 -70 -118 -70 -185 0 -45 -28 -38 -77 20 -23
28 -61 66 -84 86 -47 39 -160 94 -193 94 -12 0 -26 4 -31 9 -13 13 -248 21
-310 11z m360 -301 c72 -19 129 -52 179 -103 43 -44 60 -74 106 -181 14 -33
40 -208 40 -273 0 -33 -7 -95 -16 -138 -34 -165 -111 -276 -231 -334 -63 -30
-73 -32 -177 -32 -98 -1 -118 3 -168 25 -88 39 -180 144 -209 239 -49 156 -52
369 -6 508 6 19 15 39 19 45 4 5 8 16 8 23 0 19 61 111 92 138 38 34 96 66
146 79 59 16 164 18 217 4z"/>
<path d="M32634 4533 c-12 -2 -40 -20 -62 -39 -53 -45 -80 -119 -63 -173 6
-20 18 -61 27 -91 10 -30 20 -59 24 -65 4 -5 13 -28 20 -50 7 -22 23 -62 35
-90 12 -27 32 -77 45 -110 13 -33 33 -82 45 -110 12 -27 25 -61 29 -75 4 -14
11 -34 16 -45 5 -11 23 -56 41 -100 17 -44 36 -93 44 -110 7 -16 39 -95 71
-175 31 -80 61 -149 65 -155 3 -5 10 -26 14 -45 4 -19 13 -44 20 -55 7 -11 27
-59 45 -107 31 -83 32 -88 16 -119 -9 -18 -16 -36 -16 -42 0 -22 -73 -157
-105 -195 -46 -53 -129 -93 -181 -87 -187 23 -237 16 -279 -39 -34 -45 -35
-128 -2 -177 50 -74 309 -124 464 -88 176 40 246 77 326 172 36 42 120 199
157 292 49 125 90 235 90 244 0 7 11 34 25 61 14 27 25 54 25 61 0 6 6 25 14
42 7 18 23 57 35 87 12 30 26 64 30 75 8 18 41 105 93 245 11 30 26 69 33 85
11 25 66 173 91 240 4 11 17 47 30 80 92 243 106 279 124 316 5 9 11 37 15 63
5 29 12 46 21 46 17 0 20 113 4 133 -5 7 -22 27 -37 46 -33 42 -78 61 -140 61
-107 0 -153 -53 -232 -271 -29 -79 -56 -153 -61 -164 -5 -11 -12 -31 -15 -45
-7 -26 -61 -180 -75 -215 -5 -11 -27 -76 -50 -145 -22 -69 -45 -133 -50 -142
-6 -10 -10 -23 -10 -30 0 -7 -6 -25 -14 -40 -8 -15 -17 -42 -21 -60 -3 -18
-10 -42 -15 -53 -5 -11 -14 -32 -20 -47 -10 -28 -33 -37 -45 -18 -8 13 -123
343 -136 390 -6 19 -14 44 -19 55 -5 11 -18 49 -30 85 -12 36 -25 74 -30 85
-10 27 -90 265 -95 287 -2 9 -12 36 -23 60 -10 24 -22 57 -27 73 -11 38 -10
35 -23 68 -20 47 -61 94 -97 111 -31 15 -109 19 -161 9z"/>
<path d="M5099 3834 c-44 -114 -70 -219 -94 -384 -9 -63 -20 -143 -26 -177 -5
-35 -18 -212 -29 -395 -10 -183 -22 -342 -25 -353 -18 -54 -52 -109 -84 -136
-76 -63 -74 -59 -66 -124 4 -33 13 -116 20 -185 22 -210 61 -438 116 -670 54
-225 159 -490 271 -683 25 -43 37 -72 31 -78 -30 -30 -239 63 -333 148 -287
260 -453 729 -517 1456 -6 66 -7 69 -43 87 -43 22 -102 84 -129 138 -45 89
-54 154 -47 357 5 168 16 279 56 590 6 44 12 85 15 92 12 35 -52 333 -72 333
-7 0 -17 -19 -24 -42 -6 -24 -15 -54 -19 -68 -25 -74 -73 -349 -85 -490 -2
-19 -8 -66 -14 -105 -5 -38 -13 -164 -16 -280 -4 -115 -11 -243 -16 -283 -11
-88 -54 -178 -105 -220 l-36 -30 10 -139 c34 -423 132 -885 251 -1183 48 -118
116 -256 170 -344 169 -273 457 -493 711 -541 19 -4 45 -13 57 -21 18 -11 74
-14 268 -14 150 0 245 4 245 10 0 5 19 14 43 20 388 101 689 409 891 910 96
241 183 597 216 886 5 49 14 123 19 164 13 104 26 361 26 510 0 112 -3 130
-23 170 -32 61 -76 105 -131 131 -91 43 -237 6 -311 -79 -59 -66 -68 -111 -71
-329 -3 -228 -40 -582 -79 -748 -50 -218 -69 -287 -110 -400 -67 -187 -150
-346 -228 -445 -26 -31 -33 -25 -105 83 -147 219 -246 508 -317 922 -35 201
-44 292 -65 645 -16 278 -40 554 -54 650 -6 36 -15 99 -21 140 -44 301 -52
352 -77 450 -20 80 -29 92 -44 54z"/>
<path d="M7350 2901 c-71 -23 -137 -81 -165 -145 -21 -46 -24 -72 -29 -271 -6
-206 -22 -401 -46 -540 -24 -139 -50 -274 -64 -335 -66 -281 -251 -690 -313
-690 -13 0 -38 19 -66 50 -48 53 -57 59 -57 36 0 -32 -121 -299 -171 -377 -65
-103 -164 -232 -215 -280 -38 -36 -145 -125 -218 -182 -20 -15 -36 -32 -36
-36 0 -5 16 -12 35 -15 19 -4 35 -11 35 -16 0 -6 80 -10 200 -10 110 0 200 4
200 9 0 4 44 19 97 31 105 26 232 85 350 163 90 60 264 242 337 351 187 283
323 659 391 1086 9 52 18 106 20 120 43 251 71 798 45 891 -14 52 -85 128
-145 155 -59 28 -110 29 -185 5z"/>
<path d="M8295 2906 c-60 -19 -96 -40 -132 -78 -62 -64 -70 -107 -78 -421 -4
-167 -12 -254 -36 -422 -6 -38 -15 -99 -19 -135 -5 -36 -14 -83 -19 -105 -6
-22 -20 -80 -32 -130 -61 -255 -152 -485 -252 -632 -23 -35 -49 -63 -58 -63
-9 0 -29 18 -43 39 -24 34 -53 58 -61 49 -2 -2 -29 -66 -61 -143 -134 -324
-234 -457 -518 -685 -31 -24 -56 -47 -56 -51 0 -4 9 -11 20 -14 11 -3 20 -11
20 -16 0 -13 427 -12 432 1 2 5 39 19 82 30 97 25 263 103 348 163 129 93 278
259 378 422 181 293 327 771 375 1224 3 24 7 51 10 60 2 9 7 45 10 81 2 36 9
124 15 195 6 72 14 194 17 271 5 139 5 143 -22 203 -30 66 -94 133 -150 157
-42 17 -116 17 -170 0z"/>
<path d="M9307 2910 c-99 -25 -177 -97 -202 -185 -8 -32 -15 -134 -19 -280
-10 -380 -64 -720 -159 -1015 -91 -279 -188 -462 -316 -595 -85 -88 -135 -125
-215 -159 -36 -16 -66 -32 -66 -36 0 -4 -35 -56 -77 -116 -94 -132 -201 -241
-308 -313 -44 -29 -80 -58 -80 -64 0 -6 29 -17 65 -24 36 -7 67 -18 68 -23 6
-17 355 -13 389 4 15 8 71 26 123 41 381 107 688 443 881 965 17 47 37 105 44
130 26 92 73 277 84 335 7 33 17 80 22 104 45 204 79 569 79 844 0 232 -1 234
-53 299 -65 81 -159 113 -260 88z"/>
<path d="M25010 1745 c-125 -28 -203 -88 -254 -195 -30 -63 -31 -69 -31 -210
0 -130 3 -150 23 -195 52 -112 144 -181 273 -205 116 -21 267 24 337 99 107
115 131 364 50 528 -49 101 -121 150 -258 179 -73 16 -66 16 -140 -1z m145
-89 c65 -14 109 -46 146 -105 39 -61 51 -108 51 -206 0 -128 -16 -180 -76
-243 -53 -57 -101 -77 -186 -77 -116 0 -186 41 -238 140 -22 43 -27 66 -30
158 -4 94 -1 115 18 168 21 54 54 98 103 136 40 31 140 45 212 29z"/>
<path d="M14308 1734 c-10 -10 -10 -766 0 -779 4 -6 82 -8 217 -5 238 6 262
13 327 90 77 89 70 212 -15 285 -22 19 -47 35 -54 35 -20 0 -16 28 5 34 10 4
29 21 43 39 21 28 24 43 24 112 0 94 -17 126 -86 164 -41 23 -56 24 -249 29
-113 2 -208 1 -212 -4z m423 -122 c23 -26 29 -41 29 -80 0 -59 -16 -90 -58
-114 -29 -16 -52 -18 -163 -16 l-130 3 -2 123 -2 123 148 -3 149 -3 29 -33z
m-48 -301 c83 -14 129 -80 113 -163 -17 -87 -99 -120 -279 -116 l-109 3 1 140
c0 77 1 141 1 143 0 6 230 0 273 -7z"/>
<path d="M16145 1727 c-3 -6 -4 -183 -3 -392 l3 -380 248 -3 247 -2 0 45 0 45
-195 0 -195 0 0 350 0 350 -50 0 c-31 0 -52 -5 -55 -13z"/>
<path d="M17830 1456 c0 -257 2 -290 20 -349 29 -94 80 -137 190 -162 71 -16
89 -17 148 -6 76 15 135 41 175 79 70 67 87 158 87 478 l0 244 -50 0 -50 0 0
-250 c0 -263 -7 -328 -43 -382 -75 -113 -296 -102 -356 16 -20 41 -21 57 -21
330 l0 286 -50 0 -50 0 0 -284z"/>
<path d="M19720 1347 c0 -217 2 -396 4 -398 2 -2 129 -2 282 1 l278 5 -1 33
c-1 17 -2 37 -2 42 -1 6 -85 10 -231 10 l-230 0 0 135 0 135 208 2 207 3 3 43
3 42 -211 0 -211 0 3 123 3 122 223 0 c220 0 223 0 228 21 3 12 4 33 2 45 l-3
24 -277 3 -278 2 0 -393z"/>
<path d="M22932 1344 l3 -397 50 -1 50 -1 1 163 c1 90 3 165 6 167 2 2 66 5
142 6 186 3 240 24 284 112 30 61 31 169 0 233 -43 93 -112 114 -369 114
l-169 0 2 -396z m424 263 c31 -33 34 -43 34 -94 0 -119 -36 -142 -222 -143
l-127 0 -3 133 c-2 72 -1 136 1 141 2 4 66 6 143 4 l140 -3 34 -38z"/>
<path d="M26624 1731 c5 -7 22 -72 126 -476 87 -338 75 -310 131 -308 24 0 47
2 50 2 4 1 9 13 12 29 3 15 12 52 20 82 19 71 75 281 92 345 52 199 57 210 75
144 7 -24 18 -64 26 -89 7 -25 18 -63 23 -85 14 -55 37 -140 56 -205 9 -30 25
-88 35 -129 23 -85 34 -102 64 -97 11 3 31 5 42 5 14 1 24 9 27 24 3 12 14 56
25 97 47 176 75 279 92 345 39 149 78 291 85 308 6 15 1 17 -42 17 -56 0 -53
4 -87 -135 -8 -33 -27 -105 -41 -160 -41 -151 -55 -205 -68 -259 -13 -54 -32
-70 -40 -34 -3 13 -33 122 -67 243 -34 121 -67 243 -74 271 -18 70 -21 74 -76
74 l-49 0 -11 -42 c-6 -24 -15 -56 -20 -73 -5 -16 -21 -75 -35 -130 -36 -137
-83 -315 -91 -343 -4 -13 -11 -21 -17 -19 -10 3 -65 197 -113 397 -54 230 -45
210 -106 210 -27 0 -47 -4 -44 -9z"/>
<path d="M28808 1735 c-5 -6 -1 -787 4 -789 2 -1 128 0 281 2 l277 3 0 44 0
45 -229 0 -229 0 -4 133 c-2 72 -2 133 -2 135 1 2 90 3 196 2 107 0 202 2 211
6 12 4 17 18 17 45 l0 39 -210 0 -210 0 0 125 0 124 225 -2 225 -2 0 48 0 47
-273 0 c-151 0 -276 -2 -279 -5z"/>
<path d="M30622 1345 l3 -398 45 -1 45 -1 3 167 2 167 133 3 c208 5 220 -5
232 -193 4 -64 10 -122 15 -129 8 -12 105 -19 116 -7 3 3 -1 16 -10 29 -10 15
-17 63 -22 138 -8 128 -20 168 -61 199 l-28 20 33 27 c49 39 64 76 63 157 -1
93 -25 142 -88 181 l-48 30 -218 4 -217 4 2 -397z m402 291 c50 -21 66 -51 66
-122 0 -113 -55 -144 -252 -144 l-118 0 0 140 0 140 135 0 c93 0 146 -4 169
-14z"/>
</g>
</svg>
