<svg xmlns="http://www.w3.org/2000/svg" viewBox="0 0 177.38 78.56"><defs><style>.cls-1{fill:none;}</style></defs><g id="Capa_2" data-name="Capa 2"><g id="Capa_1-2" data-name="Capa 1"><path d="M167.8,50.22a7.47,7.47,0,0,0-1.25,0,1.67,1.67,0,0,1-1.71-.93c-.69-1-1.49-1.93-2.22-2.91-1-1.3-1.9-2.62-2.89-3.9-.41-.53-.82-1-1.68-.9a15.2,15.2,0,0,1-2.35,0v.81c0,2.38,0,4.77,0,7.15,0,.54-.17.68-.68.66-1.44,0-1.21.18-1.21-1.24,0-5.69,0-11.38,0-17.07,0-.62.15-.85.8-.82,1.26.07,1.1-.14,1.1,1.09,0,2.52,0,5,0,7.65,1.06,0,2.09.06,3.11,0,.28,0,.57-.43.79-.71.84-1.07,1.66-2.15,2.48-3.23,1.07-1.42,2.12-2.84,3.21-4.24a1.11,1.11,0,0,1,.74-.36c.58-.07,1.18,0,1.77-.07v.13c-.49.55-1,1.06-1.47,1.64-1.05,1.39-2,2.82-3.08,4.21-.88,1.19-1.79,2.36-2.69,3.53.56.7,1.1,1.32,1.58,2,.91,1.22,1.79,2.47,2.69,3.7.73,1,1.46,2,2.22,3a7.68,7.68,0,0,0,.75.76Z" style="fill: #b8b8b8"/>
<path d="M69.63,74.42a11.81,11.81,0,0,1,0-1.19c0-.35.19-.7.2-1.06.11-2.5.18-5,.28-7.5.08-2,.14-4,.27-5.92.14-2.3.36-4.59.5-6.89.07-1,0-2.12,0-3.17a.66.66,0,0,1,.46-.74,3.39,3.39,0,0,0,2-3.17,46.91,46.91,0,0,0,0-4.89,7.93,7.93,0,0,0-2.12-5.18,1.48,1.48,0,0,1-.36-.86c-.11-2.27,0-4.57-.31-6.83s-.32-4.35-.37-6.53c0-2-.17-3.9-.26-5.85,0-1.14-.06-2.29-.14-3.42-.1-1.28-.26-2.55-.39-3.82a.38.38,0,0,1,.14-.3c.13.43.27.85.4,1.27.46,1.46.92,2.92,1.35,4.39s.88,3.13,1.31,4.69c.37,1.33.74,2.66,1.06,4,.22,1,.36,2,.54,2.95.27,1.5.55,3,.81,4.52.18,1.06.38,2.12.51,3.2s.1,2.23.3,3.32a42.66,42.66,0,0,1,.36,7.66c0,.9,0,1.8-.13,2.69-.12,1.23-.28,2.45-.44,3.68-.11.91-.21,1.82-.35,2.72-.18,1.17-.36,2.35-.58,3.52-.32,1.6-.64,3.21-1,4.81-.32,1.36-.72,2.7-1.09,4-.43,1.59-.83,3.19-1.29,4.76s-1,3.4-1.57,5.1Z" style="fill: #b8b8b8"/>
<path d="M36.93,41.52l4.54,8.65c-.72,0-1.28,0-1.84,0a.45.45,0,0,1-.32-.18c-.61-1.15-1.19-2.31-1.78-3.47L36.71,45c-.53-1.05-1-2.11-1.6-3.14a.85.85,0,0,0-.62-.36c-1.3,0-2.61,0-3.91,0-.5,0-.57.27-.57.68,0,2.42,0,4.85,0,7.28,0,.63-.16.83-.8.8-1.26-.06-1.1.15-1.1-1.09,0-5.76,0-11.52,0-17.27,0-.63.19-.77.78-.77,2.4,0,4.81,0,7.21,0a4.74,4.74,0,0,1,4.45,2.59,5.3,5.3,0,0,1,.34,4.28,4.51,4.51,0,0,1-2,2.67A20.68,20.68,0,0,1,36.93,41.52Zm-6.82-8.83a.83.83,0,0,0-.08.25c0,2.16,0,4.32,0,6.48,0,.47.27.53.64.52h4.1a5.77,5.77,0,0,0,3-.61,2.59,2.59,0,0,0,1.53-2.24c0-.39,0-.8,0-1.19.24-2-1.64-3.23-3.23-3.21-1,0-1.94,0-2.91,0Z" style="fill: #b8b8b8"/>
<path d="M22.25,40.93a37.85,37.85,0,0,1-.2,3.93,5.94,5.94,0,0,1-3.66,4.83A6.8,6.8,0,0,1,13.5,50a9.67,9.67,0,0,1-2.23-1.25,5.3,5.3,0,0,1-2.14-3.32s-.05-.08-.05-.12a39.11,39.11,0,0,1,.17-9.85,5.37,5.37,0,0,1,2.69-3.59,7,7,0,0,1,6-.59A5.77,5.77,0,0,1,21.72,35C22.4,36.88,22.07,38.77,22.25,40.93Zm-1.85.18c-.09-1.92-.13-3.39-.22-4.86a3.9,3.9,0,0,0-1.43-2.63,4.86,4.86,0,0,0-4.05-1,4.17,4.17,0,0,0-3.57,2.9,11.86,11.86,0,0,0-.47,3.67c.08,1.19-.05,2.39,0,3.57a21.66,21.66,0,0,0,.53,3.19A3.15,3.15,0,0,0,11.88,47a4.74,4.74,0,0,0,4.33,1.68c1.76-.12,3.69-1.83,3.84-3.24C20.21,43.86,20.31,42.26,20.4,41.11Z" style="fill: #b8b8b8"/>
<path d="M99.17,50.17c-.73,0-1.34,0-2,0-.12,0-.26-.13-.35-.24-1-1.32-2-2.66-3.06-4s-2.13-2.83-3.21-4.23a.45.45,0,0,0-.35-.12h-3v.8c0,2.38,0,4.77,0,7.15,0,.52-.14.69-.67.67-1.45,0-1.22.18-1.22-1.23,0-5.69,0-11.38,0-17.07,0-.61.12-.86.79-.83,1.29.07,1.1-.15,1.11,1.15,0,2.27,0,4.54,0,6.81v.79a14.54,14.54,0,0,0,2.89,0c.47-.1.89-.72,1.24-1.17,1.17-1.47,2.3-3,3.44-4.47.59-.77,1.22-1.51,1.74-2.32a1.16,1.16,0,0,1,1.2-.6c.43,0,.87,0,1.44,0-.67.85-1.27,1.6-1.85,2.36s-1.24,1.67-1.87,2.5c-.81,1.09-1.63,2.17-2.45,3.24a7.3,7.3,0,0,1-.6.75c-.53.56-.07,1,.21,1.42.67,1,1.44,1.83,2.15,2.76s1.52,2,2.27,3.05Z" style="fill: #b8b8b8"/>
<path d="M148.72,50.17c-.5,0-.92,0-1.34,0s-.61-.14-.75-.56c-.39-1.21-.85-2.39-1.24-3.6a.59.59,0,0,0-.66-.48c-2.5,0-5,0-7.48,0a.83.83,0,0,0-.61.41c-.52,1.28-1,2.58-1.48,3.87,0,.13-.21.31-.33.32-.54,0-1.08,0-1.67,0,.8-2.21,1.56-4.31,2.33-6.41.67-1.82,1.38-3.63,2-5.46s1.27-3.57,1.91-5.36c.19-.54.41-1.09.63-1.62a.48.48,0,0,1,.29-.23,1.45,1.45,0,0,1,1.83,1c.46,1.36,1,2.71,1.46,4.07.32.89.62,1.8.94,2.69.48,1.3,1,2.59,1.46,3.88.37,1,.71,2,1.07,2.93.49,1.34,1,2.67,1.48,4C148.64,49.82,148.66,49.94,148.72,50.17Zm-4.1-6.29c-1.2-3.35-2.38-6.66-3.57-10h-.18c-1.25,3.27-2.38,6.58-3.55,10Z" style="fill: #b8b8b8"/>
<path d="M117.7,50.17a12,12,0,0,1-1.49,0,.85.85,0,0,1-.6-.41c-.41-1.11-.76-2.25-1.14-3.38a1,1,0,0,0-1.13-.84c-2.27,0-4.55.06-6.82,0a1.13,1.13,0,0,0-1.27.94c-.43,1.23-.84,2.46-1.27,3.69H102.1c.28-.83.53-1.64.82-2.43.2-.55.46-1.08.66-1.62.6-1.62,1.17-3.25,1.76-4.87.79-2.19,1.59-4.39,2.39-6.58.4-1.08.81-2.17,1.23-3.25a.59.59,0,0,1,.3-.3,1.4,1.4,0,0,1,1.81.94c.51,1.45,1.06,2.88,1.58,4.33.39,1.09.74,2.2,1.13,3.29.47,1.31,1,2.6,1.42,3.9.65,1.76,1.3,3.53,2,5.29C117.32,49.26,117.49,49.66,117.7,50.17Zm-4.17-6.3c-1.22-3.42-2.41-6.75-3.66-10.27-1.26,3.53-2.44,6.86-3.65,10.27Z" style="fill: #b8b8b8"/>
<path d="M48.43,37.84c0,1.85,0,3.7,0,5.55a6.07,6.07,0,0,0,.89,3.42,4.1,4.1,0,0,0,3,1.84A5.26,5.26,0,0,0,56,48a4,4,0,0,0,2-3.33c.11-4.29.13-8.59.13-12.88,0-.75.35-.76.89-.73s.92-.11.91.7c0,3.86,0,7.72,0,11.58a6.83,6.83,0,0,1-1.63,5A6.94,6.94,0,0,1,52,50.21a6.34,6.34,0,0,1-3.69-1.92,5.68,5.68,0,0,1-1.51-3.45c-.54-4.32-.08-8.65-.26-13,0-.63.14-.85.79-.82,1.26.07,1.1-.14,1.1,1.09C48.43,34,48.43,35.94,48.43,37.84Z" style="fill: #b8b8b8"/>
<path d="M117.77,31.07c.65,0,1.15,0,1.65,0a.89.89,0,0,1,.56.37c1.32,2,2.62,4,3.93,6.07.49.76,1,1.52,1.47,2.27.09.14.22.26.39.47.89-1.36,1.75-2.66,2.58-4,1-1.64,2.05-3.3,3.09-4.94a.7.7,0,0,1,.46-.26c.51,0,1,0,1.63,0-.34.59-.63,1.11-.94,1.62-.77,1.25-1.54,2.51-2.34,3.75s-1.83,2.72-2.7,4.12a5,5,0,0,0-1,3.07c.13,1.94,0,3.88,0,5.82,0,.52-.1.76-.69.73-1.25,0-1.07.13-1.08-1.11,0-2.11,0-4.23,0-6.35a1.64,1.64,0,0,0-.28-.82c-.67-1.15-1.37-2.29-2.07-3.43-.3-.48-.62-.95-.92-1.42C120.3,35.1,119.08,33.14,117.77,31.07Z" style="fill: #b8b8b8"/>
<rect class="cls-1" width="177.38" height="78.56"/></g></g></svg>