<?xml version="1.0" standalone="no"?>
<!DOCTYPE svg PUBLIC "-//W3C//DTD SVG 20010904//EN"
 "http://www.w3.org/TR/2001/REC-SVG-20010904/DTD/svg10.dtd">
<svg version="1.0" xmlns="http://www.w3.org/2000/svg"
 width="2560.000000pt" height="543.000000pt" viewBox="0 0 2560.000000 543.000000"
 preserveAspectRatio="xMidYMid meet">

<g transform="translate(0.000000,543.000000) scale(0.100000,-0.100000)"
fill="#b8b8b8" stroke="none">
<path d="M437 5273 c-11 -17 -98 -337 -126 -458 -107 -467 -145 -795 -145
-1265 0 -339 12 -512 55 -784 127 -823 459 -1621 949 -2281 76 -102 204 -257
247 -298 l29 -27 13 96 c16 124 60 300 106 434 77 218 250 538 390 720 l44 57
-73 109 c-518 776 -703 1663 -545 2619 56 335 167 707 294 981 25 53 45 98 45
100 0 8 -1279 4 -1283 -3z"/>
<path d="M5553 5268 c3 -7 31 -71 62 -143 167 -383 277 -826 316 -1275 17
-193 6 -616 -20 -790 -82 -553 -256 -1010 -558 -1469 l-83 -125 54 -70 c223
-295 385 -638 460 -976 14 -63 28 -146 32 -183 4 -37 10 -70 14 -72 19 -12
270 306 415 525 874 1317 1091 2914 612 4505 l-24 80 -643 3 c-513 2 -641 0
-637 -10z"/>
<path d="M10710 2910 l0 -2100 470 0 470 0 0 158 1 157 21 -30 c39 -55 184
-190 240 -223 199 -118 422 -170 683 -159 274 11 501 95 721 265 484 374 713
1089 573 1786 -45 222 -149 470 -270 640 -201 283 -500 477 -824 536 -250 45
-556 8 -771 -94 -149 -71 -249 -151 -346 -276 l-27 -35 -1 731 0 731 -122 6
c-66 4 -278 7 -470 7 l-348 0 0 -2100z m1756 180 c200 -51 349 -174 440 -365
56 -117 76 -211 78 -365 1 -170 -17 -258 -85 -398 -84 -173 -215 -287 -399
-344 -64 -20 -96 -23 -220 -23 -131 1 -153 3 -227 28 -205 69 -350 221 -425
447 -31 92 -32 100 -33 270 0 154 3 185 23 254 73 254 253 440 482 500 85 22
270 20 366 -4z"/>
<path d="M20580 4430 l0 -560 -160 0 -160 0 0 -365 0 -365 160 0 160 0 0 -687
c0 -795 9 -940 70 -1161 96 -344 332 -525 743 -571 135 -15 462 -13 652 4 88
8 163 15 168 15 8 0 10 721 1 744 -5 13 -26 16 -128 16 -215 1 -311 14 -385
52 -46 23 -76 47 -102 82 -71 94 -69 70 -69 827 l0 679 320 0 320 0 0 365 0
365 -320 0 -320 0 0 560 0 560 -475 0 -475 0 0 -560z"/>
<path d="M8630 3979 c-544 -55 -988 -357 -1204 -820 -117 -251 -168 -502 -168
-829 0 -246 24 -411 89 -615 136 -428 441 -754 858 -919 306 -120 708 -154
1031 -86 392 82 727 311 959 655 49 73 175 319 175 342 0 11 -93 13 -487 13
l-488 0 -21 -38 c-60 -104 -178 -197 -298 -234 -60 -19 -92 -22 -206 -21 -212
1 -348 45 -458 148 -110 103 -169 244 -179 433 l-6 102 1111 0 1110 0 11 63
c32 186 -5 513 -86 757 -158 475 -501 820 -964 968 -244 78 -520 107 -779 81z
m365 -714 c219 -46 413 -235 469 -455 l13 -55 -615 -3 c-338 -1 -617 0 -619 2
-9 9 50 167 82 221 136 227 408 345 670 290z"/>
<path d="M18710 3980 c-114 -14 -263 -48 -359 -82 -330 -116 -518 -324 -604
-667 -29 -118 -32 -460 -4 -560 66 -240 190 -387 425 -505 110 -55 232 -93
492 -151 252 -57 319 -78 392 -124 132 -84 144 -265 24 -367 -109 -93 -204
-111 -505 -95 -348 19 -577 60 -723 130 l-58 27 0 -361 0 -362 133 -41 c273
-85 444 -106 872 -107 293 0 329 2 432 23 598 121 923 495 923 1062 0 238 -62
409 -202 556 -166 175 -413 283 -817 359 -322 60 -420 132 -409 299 10 148 97
236 264 267 176 33 679 -30 1013 -127 l24 -7 -8 344 c-6 302 -9 346 -23 357
-46 35 -306 100 -492 122 -121 15 -691 22 -790 10z"/>
<path d="M15330 3939 c-613 -71 -1004 -451 -1135 -1103 -134 -669 28 -1364
408 -1748 109 -111 199 -177 332 -243 201 -100 396 -140 635 -132 226 8 407
66 595 190 85 56 207 158 229 192 9 14 21 25 26 25 6 0 10 -64 10 -165 l0
-165 470 0 470 0 0 1535 0 1535 -470 0 -470 0 -2 -161 -3 -162 -62 76 c-210
255 -594 376 -1033 326z m644 -849 c232 -59 415 -243 486 -490 31 -104 39
-325 16 -433 -49 -237 -173 -410 -361 -503 -108 -53 -198 -74 -325 -74 -125 0
-217 21 -317 70 -180 89 -300 248 -356 469 -30 121 -29 331 2 446 69 261 241
448 476 516 88 26 278 25 379 -1z"/>
<path d="M23570 3924 c-257 -40 -504 -139 -703 -281 -104 -74 -256 -226 -330
-330 -193 -271 -297 -618 -297 -993 0 -811 477 -1416 1244 -1576 151 -31 400
-43 556 -25 377 43 702 194 949 442 113 113 192 220 266 361 257 492 242 1198
-37 1673 -215 367 -575 619 -1023 715 -134 29 -481 37 -625 14z m435 -859
c190 -49 330 -166 421 -350 73 -150 101 -309 84 -484 -13 -129 -32 -199 -84
-306 -109 -221 -297 -341 -551 -352 -138 -6 -230 12 -340 66 -219 108 -348
326 -371 622 -13 169 36 378 121 515 86 138 234 248 385 288 75 20 260 20 335
1z"/>
<path d="M3360 3489 c-546 -48 -1038 -217 -1470 -504 -69 -46 -159 -112 -200
-148 -72 -61 -75 -65 -72 -102 4 -45 60 -233 109 -365 77 -206 184 -420 314
-628 96 -154 78 -146 156 -71 268 256 672 464 1041 538 406 81 833 36 1217
-129 219 -94 455 -245 613 -394 l70 -67 55 76 c149 203 301 539 412 906 25 83
45 157 45 164 0 18 -180 162 -308 247 -408 269 -915 437 -1441 478 -154 11
-401 11 -541 -1z"/>
</g>
</svg>
