<svg xmlns="http://www.w3.org/2000/svg" viewBox="0 0 177.38 78.56"><defs><style>.cls-1{fill-rule:evenodd;}.cls-2{fill:none;}</style></defs><g id="Capa_2" data-name="Capa 2"><g id="Capa_1-2" data-name="Capa 1"><polygon class="cls-1" points="67.05 24.33 67.05 53.79 72.13 53.79 72.13 24.33 67.05 24.33 67.05 24.33"/><polygon class="cls-1" points="58.42 24.33 58.42 53.79 62.99 53.79 62.99 39.57 66.54 39.57 66.54 36.01 62.99 36.01 62.99 28.39 66.54 28.39 66.54 24.33 58.42 24.33 58.42 24.33"/><path class="cls-1" d="M79.75,47.69h-2l-.51,6.1H73.14l2.54-29.46h6.1l3,29.46H80.25l-.5-6.1ZM78.73,35h0l1,8.63H78.22L78.73,35Z"/><polygon class="cls-1" points="85.84 24.33 85.84 53.79 90.41 53.79 90.41 37.03 92.44 53.79 95.49 53.79 98.03 37.03 98.03 53.79 102.09 53.79 102.09 24.33 95.49 24.33 93.97 37.53 92.44 24.33 85.84 24.33 85.84 24.33"/><polygon class="cls-1" points="103.62 24.33 103.62 53.79 107.68 53.79 107.68 37.03 109.71 53.79 112.76 53.79 115.3 37.03 115.3 53.79 119.36 53.79 119.36 24.33 112.76 24.33 111.23 37.53 109.71 24.33 103.62 24.33 103.62 24.33"/><path class="cls-1" d="M126,35h0l1,8.63h-1.53L126,35Zm1,12.69h-2l-.51,6.1h-4.06l2.53-29.46H129l3.05,29.46H128l-1-6.1Z"/><path class="cls-1" d="M49.29,55c-5.44-9.2-12.13-22.18-3.76-30.55C48.45,22,52.64,22,56,22.38h.42a19.74,19.74,0,0,0-7.12-3.77,12.88,12.88,0,0,0-7.95-.42c-5,1.68-5.86,7.54-5.86,10.89,0,8.37,8.79,20.92,13.81,26.36V55Z"/><path class="cls-1" d="M49.29,55c-5.44-9.2-12.13-22.18-3.76-30.55C48.45,22,52.64,22,56,22.38h.42a19.74,19.74,0,0,0-7.12-3.77,12.88,12.88,0,0,0-7.95-.42c-5,1.68-5.86,7.54-5.86,10.89,0,8.37,8.79,20.92,13.81,26.36V55Z"/><path class="cls-1" d="M51.8,34.52A3.74,3.74,0,0,1,48,38.28a3.87,3.87,0,0,1-4.19-3.76A4,4,0,0,1,48,30.33a3.87,3.87,0,0,1,3.76,4.19Z"/><rect class="cls-2" width="177.38" height="78.56"/></g></g></svg>