<svg xmlns="http://www.w3.org/2000/svg" xmlns:xlink="http://www.w3.org/1999/xlink" viewBox="0 0 177.38 78.56"><defs><style>.cls-1{fill:none;}.cls-2{fill:#221f20;}.cls-3{clip-path:url(#clip-path);}.cls-4{clip-path:url(#clip-path-2);}</style><clipPath id="clip-path"><rect class="cls-1" x="158.08" y="31.44" width="16.26" height="17.07"/></clipPath><clipPath id="clip-path-2"><rect class="cls-1" x="2.51" y="27.04" width="20.65" height="26.08"/></clipPath></defs><g id="Capa_2" data-name="Capa 2"><g id="Capa_1-2" data-name="Capa 1"><g id="surface1"><path class="cls-2" d="M65.59,48.42h2.29V44.5H66.4V35.36H68v-3.8H60.4v3.8H62V44.5H60.49v3.92h5.1" style="fill: #b8b8b8"/><path class="cls-2" d="M84.92,48.42V35.36h1.54v-3.8h-7.6v3.8h1.79v5.1l-6.11-8.9H69.22v3.8h1.61V44.5H69.3v3.92h7.6V44.5H75.1V39.44l6.1,9h3.72" style="fill: #b8b8b8"/><path class="cls-2" d="M94.52,44a4.15,4.15,0,1,0-4.14-4.15A4.15,4.15,0,0,0,94.52,44m-8.74-4.15a8.74,8.74,0,1,1,8.74,8.74,8.73,8.73,0,0,1-8.74-8.74" style="fill: #b8b8b8"/><path class="cls-2" d="M111.53,37.83h-7.15v3.88h7.15V37.83" style="fill: #b8b8b8"/><path class="cls-2" d="M132.31,40.21h2.34l-1.17-3.76Zm-13.38-4.85h-1.41v3.72h1.35s2.22.16,2.22-1.86-2.16-1.86-2.16-1.86m13.52,9.14v3.92H122.33L117.62,43V44.5h1.07v3.92h-7.22V44.5h1.66V35.36h-1.66v-3.8h7.63c5,0,6.52,2.55,6.52,5.94a5.65,5.65,0,0,1-3,4.86l1.56,2.14h2.28L130,35.36h-1.46v-3.8h6.65l5,12.94h1.56v3.92h-7.58V44.5h1.42l-.39-1.26h-3.72l-.43,1.26h1.34" style="fill: #b8b8b8"/><path class="cls-2" d="M157.33,31.56v5.68h-4.77a4.15,4.15,0,1,0,.42,4.67h4.88a8.72,8.72,0,1,1-4.05-9.55v-.8h3.52" style="fill: #b8b8b8"/><g class="cls-3"><path class="cls-2" d="M164.4,38.41v-3h1.15v-3.8h-7.36v3.8h1.54V44.5h-1.51v3.92h7.42V44.5h-1.36V41.33l3.18,3.17h-.81v3.92h7.69V44.5H173l-4.79-4.68,4.25-4.46H174v-3.8h-7.34v3.8h.83l-3.1,3" style="fill: #b8b8b8"/></g><path class="cls-2" d="M35.06,39.08H33.71V35.36h1.42s2.15-.16,2.15,1.86-2.22,1.86-2.22,1.86m24.36-3.72v-3.8H51.8v3.8h1.53v2.55H48.91V35.36h1.54v-3.8H42.82v3.8h1.6V44.5h-4l-1.56-2.14a5.65,5.65,0,0,0,3-4.86c0-3.39-1.52-5.94-6.52-5.94H27.67v3.8h1.65V44.5H27.67v3.92h7.22V44.5H33.81V43l4.71,5.46h12V44.5H49V41.67h4.23V44.5H51.76v3.92H59.4V44.5H57.82V35.36h1.6" style="fill: #b8b8b8"/><path class="cls-2" d="M21.94,27.87c0,.12-.49.11-.49.11-.19,0-.47.76-.55,1.24s-.35,1.55-.35,1.55l-.25.88-.43-.29a8.58,8.58,0,0,0,.55-1.13c.11-.39.31-1,.31-1a3.39,3.39,0,0,1,.6-1.38.63.63,0,0,1,.54-.14A.15.15,0,0,1,21.94,27.87Zm.22-.26s-.23-.25-.79,0c0,0-.8.22-1.17,2.3a1.79,1.79,0,0,1-.41.89l-.46.78,1.11.78a4.39,4.39,0,0,0,.41-1.5s.24-1.35.37-1.84.19-.89.51-.91c0,0,.53.05.59-.07s-.16-.41-.16-.41" style="fill: #b8b8b8"/><path class="cls-2" d="M10.05,35.06s-.06-.21-.18-.12-.18.12-.37.28c0,0-.06.24.15.27,0,0,.43-.18.4-.43" style="fill: #b8b8b8"/><path class="cls-2" d="M7.72,41.26a4,4,0,0,0,1.07-.13c.27-.15.29-.68.29-.68A6.21,6.21,0,0,1,7.39,41c-.53.07-2.13.22-2.46-.16,0,0-.27.47.7.46a13.52,13.52,0,0,0,2.09,0" style="fill: #b8b8b8"/><path class="cls-2" d="M9.65,36s0,.16.09.16l.37-.34h.4s0-.16-.21-.22l-.25-.12a3.17,3.17,0,0,0-.4.52" style="fill: #b8b8b8"/><path class="cls-2" d="M10.44,37.11c-.09,0-.11.42-.48.14,0,0-.25-.31-.31-.14,0,0-.08.17.06.25a1.88,1.88,0,0,0,.33.4s.26,0,.31-.12a1.15,1.15,0,0,0,.23-.59s-.08-.06-.14.06" style="fill: #b8b8b8"/><path class="cls-2" d="M9.56,39.28c.39-.06.75.23.7.11s.09,0-.46-.22-.83.38-.83.38-.16.39-.1.4.3-.6.69-.67" style="fill: #b8b8b8"/><path class="cls-2" d="M10,36.84s.42.13.39-.32c0,0,0-.36-.23-.36,0,0-.22,0-.1.13l-.16.23s-.23.26.1.32" style="fill: #b8b8b8"/><path class="cls-2" d="M6.58,40.78c.67,0,1.42-.39,1.31-.66s-.67.36-1.28.36-1.14-.42-1.14-.2.44.53,1.11.5" style="fill: #b8b8b8"/><g class="cls-4"><path class="cls-2" d="M22.5,49c-.07,0,0,.43-.89.61s-1,0-1,0c-.19-.07-.11-.52-.11-.52a2,2,0,0,0,.11-.65c0-.13.24-.24.24-.24a.29.29,0,0,0,.28-.21c0-.09-.3-.14-.3-.14s-1-1-.59-1.32-.08-.39-.09-.54a.9.9,0,0,1,.54-.18,3,3,0,0,0,1.09-.43l-.89.1a1.32,1.32,0,0,1-.55-.22A1.27,1.27,0,0,0,20,44.7c-.17-.17,0-.41.22-.68a2.69,2.69,0,0,1,.69,0l.86.22s-.67-1-1-1a.36.36,0,0,0-.08-.42l0-1.86a8.58,8.58,0,0,0,.78-2.91c.2-1,.76-1.27.76-1.27a3.33,3.33,0,0,1,.48,1.64c0,.33-.44,2.17-.44,2.17-.06.31-.12.88-.12.88a2,2,0,0,0,0,1c.09.33.26,1,.26,1a1.54,1.54,0,0,1-.27,1,1,1,0,0,0,.11.76c0,.43-.2,1.89-.2,1.89a1.28,1.28,0,0,0,.28.78A1.69,1.69,0,0,1,22.5,49Zm-6.46-6c-.72-.26.78-3.56.78-4a3.33,3.33,0,0,0-.22-1s.1-.81.11-.92c.2-1.45-2-3.64-2-3.64-.05-.31-2.41-1-.68-2.24a3,3,0,0,1,2.52-.28c.66.38,1.86,1.12,2,1.58a1.85,1.85,0,0,0,.56,1s.39-1.06,0-1.35a1.79,1.79,0,0,1-.33-.34c.64.43.7.22,1.46.78a7.22,7.22,0,0,1,1.45,1.53,3.49,3.49,0,0,1,.29,1.5,1.31,1.31,0,0,1-.6,1.38v-.06c0-.31-.58-1-.58-1s.15.6.22.86a4,4,0,0,1-.06,1h0c-.2,1-.14,3-.58,2.94s-.22-1.17-.51-1C19.37,40,16.64,43.27,16,43.07Zm1.21,2.53a.39.39,0,0,0-.19.3,1.58,1.58,0,0,1-.41.67,4.79,4.79,0,0,0-.57.69c-.17.18.11.94.11.94s.07.43.07.43-.18.17-.18.17a7.64,7.64,0,0,0-1.62.69c-.11,0-.22.09-.3,0a.82.82,0,0,1,.3-1.12,1.6,1.6,0,0,1,.58-.23.54.54,0,0,0,.33-.36l-1-.25c-.17-.15.18-.5.18-.5a6,6,0,0,0,.52-.87,3.69,3.69,0,0,1,1.13-1c1.14-.73,1.6-.28,1.6-.28C17.79,45.27,17.25,45.6,17.25,45.6ZM15,41.85a3.67,3.67,0,0,1-.47-.87c-.23-.24-1.82.09-1.82.09l-.3.1a10.36,10.36,0,0,0,.48-2.3l-.6,1.83a9.94,9.94,0,0,1-1.22.31,1.49,1.49,0,0,0-.77.59,2.43,2.43,0,0,1,.15-.29c-.06-.11,1.61-1.54,1.93-2.32a6.15,6.15,0,0,0,.28-2c0-.37,1-2.88,1.58-2.88s2.23,2.49,2.09,3.92a12.09,12.09,0,0,1-.22,1.63c0,.17-.13.69-.13.69a2.53,2.53,0,0,1-.3.82C15.61,41.42,15.3,42.13,15,41.85Zm-.78.86c-.36.48-.08.63-.08.63a2.65,2.65,0,0,1-.35.87l-.06.19a4.31,4.31,0,0,1-.5.94,3.2,3.2,0,0,0-.44.91,3.36,3.36,0,0,1-.8,1.34,2.58,2.58,0,0,0-.24.67,9.94,9.94,0,0,1-.36,1.3c-.22.78-.09.95-.09.95a2.45,2.45,0,0,1,.09.8c0,.53-.29.44-.29.44-.15,0-.06.19-.06.19a1.07,1.07,0,0,1-.11.48c-.06.19-.15.11-.15.11a6.75,6.75,0,0,0-2-.13c-.19,0,.07-.37.07-.37s-.28-.22-.28-.22c-.07-.17.15-.86.11-.93.15-.43,1.31-1.27,1.31-1.27a3.87,3.87,0,0,0-.13-1.32.61.61,0,0,1,.23-.37c.26-.13.29.08.75-.25s-.44,0-.92-.08a.48.48,0,0,1-.18-.07,3.11,3.11,0,0,1,0-.34c.11-.07,0-.57,0-.57l.19-.26a4.05,4.05,0,0,1,1,0c.26.07,0,.31.86.24.3,0-1-.62-1-.93s0-.29,0-.4l.39-.51c0-.11.71-1.34.71-1.34a.49.49,0,0,0,0-.33c-.09-.13.15-.45.15-.45a2.66,2.66,0,0,1,1.43-.7,1.31,1.31,0,0,1,.63,0C14.5,42.13,14.26,42.71,14.26,42.71Zm-6.34,5c-.25-.39.24-.85-.16-1.09s-.45.63-.45.63c-.09.44-.18.56-.56,0s.43-1.15.43-1.15c.2-.07.27.2.35-.07s-1.32,0-1.84-.53a7.48,7.48,0,0,1-.83-2.63c-.15-.31,1,.61,1,.61A1.7,1.7,0,0,1,7.18,44a5.54,5.54,0,0,1,.28,1c0,.28.5.65.5.65.17.07.22.54.22.54A1.72,1.72,0,0,0,9,47c.08.1.51,1.13-.11,1.19S8.16,48.08,7.92,47.7Zm2.18-5.45a6.65,6.65,0,0,0,.85-.77c.23-.28.85-.14,1.23-.19a4.8,4.8,0,0,0-1.25,1c-.07.11,0,.72-.63.54C10.08,42.71,10.05,42.5,10.1,42.25Zm-3,.17A9.56,9.56,0,0,0,6,42.6c-.45,0-.91-.49-.91-.49a2.36,2.36,0,0,0,.67,0c.44,0,1-.25,1.23-.24a10.83,10.83,0,0,0,1.23.15,9.6,9.6,0,0,0,1.07-.12s-.17.53-.51.59S7.48,42.42,7.07,42.42Zm1.2,1.92c-.11-.21.08-.23.08-.23a3.26,3.26,0,0,0,.55-.44l.53.25a2.52,2.52,0,0,0,.72.27c.16,0-.07.36-.07.36a1.91,1.91,0,0,0-.15.49l-.23.42a3.55,3.55,0,0,1-.42.82c-.36,0-.36-.51-.36-.51a1.31,1.31,0,0,0-.38-.54.94.94,0,0,1-.23-.36A3.07,3.07,0,0,0,8.27,44.34ZM4.15,41a2,2,0,0,1,.06-.28.18.18,0,0,0,.1,0,.7.7,0,0,1,.08.12s.08.21.19.19-.07-.78-.07-.78c-.06-.21-.18-.21-.24-.2h0s-.08,0-.16-.07-.23-.59-.3-1,.07-.46,0-.7a6.14,6.14,0,0,1-.25-.8,3.31,3.31,0,0,1,0-.77,3.28,3.28,0,0,1,0-.83c.09-.29.4-.51.48-.8l-.34.91a8.84,8.84,0,0,1-.16,1.4c-.08.26.34,1,.37,1.27s-.09.24,0,.45a3.7,3.7,0,0,0,.32.71.76.76,0,0,1,0,.11.31.31,0,0,1,.18,0c.23.15.23.51.28.49s0-.39,0-.39a.43.43,0,0,0-.47-.27h0c.17-.21.68-.46.58-.87s-.1-.82-.34-.85-.07-1.1-.2-1.27,0-.5.15-.91.29-.39.29-.39a20.22,20.22,0,0,0,.65,3.7,1.07,1.07,0,0,0,1,.8c.34.09,1-.36,1-.36a1.85,1.85,0,0,0,.63-1.63.21.21,0,0,1,.07-.17c0-.2-.13-.15-.13-.15-.33-.35,0-.42,0-.42.63,0,.8,0,1,.21s0,.58.46.73a.72.72,0,0,0,.85-.61c-.07-.16-.5.44-.74.19a7.81,7.81,0,0,0-.6-.52c-.22,0-.19-.34-.59-.52a7.49,7.49,0,0,0-.91-.3c-.13,0-.15-.11-.15-.11a1.1,1.1,0,0,0,.26-.28.85.85,0,0,0,.17-.52.55.55,0,0,0,0-.41c-.06-.06,1.61-.22,1.09-.63-1.47-1.14-1.75-1.52-1.83-1.93-.29-1.49,1.29-.74.82-1.24a2,2,0,0,0-1.77-.36c.22-.09-1.81-.48,1.17-.76a.89.89,0,0,1,.91.38c.22,0,3.36-.61,2.44-.18-.46.22-1.72.3-1.72.56l1.45.21a1.22,1.22,0,0,1,.83,1.06c.13.52-.93.55-.93.55s1.2,2.34,1.2,2.34c.1.26-.82,1.43-.82,1.43-.22.15.19,1.11.19,1.11a.6.6,0,0,1-.28.64c-.26.14-.06.59-.06.59a1.12,1.12,0,0,1-.16.74l-.18.39c0-.11.2-.55-.2-.61a.38.38,0,0,0-.5.27s-.43,1-.12,1.1.41-.35.49-.44a.31.31,0,0,0,.21-.07c-.08.15-.13.27-.13.27a1.21,1.21,0,0,1-.09.2.69.69,0,0,1-.06.51c-.12.26-.31.24-1.17.32a3.68,3.68,0,0,1-1.47-.11,2.09,2.09,0,0,0-1,.1,8.31,8.31,0,0,1-1.48.1C4.12,41.78,4.11,41.28,4.15,41Zm.07-10.82a1.27,1.27,0,0,0-.16-.51A2.52,2.52,0,0,1,3.62,29c-.21-.37-.35.05-.35.05a.36.36,0,0,0,0,.42.88.88,0,0,1,.29.6c.05.34-.39.5-.25.73s0,.3,0,.3-.23-.51-.23-.51a22.16,22.16,0,0,1-.39-2.46c0-.35.74.11.74.11a.73.73,0,0,1,.53.51,1.16,1.16,0,0,0,.35.56,2.66,2.66,0,0,1,.3.6,2.81,2.81,0,0,1,0,1.14c-.08.81-.28.51-.28.51A3.76,3.76,0,0,1,4.22,30.18Zm2.42,4.09a2.75,2.75,0,0,1-.09-1.39,5.28,5.28,0,0,1,.31.67l.49.87c.05.15.37.76.37.76a.45.45,0,0,1,.09.23c-.31.69-.67.44-.67.44-.26,0-.15-.39-.15-.39A5.36,5.36,0,0,0,6.64,34.27ZM5.08,32.92c0-.43.11-.11.11-.11a13.77,13.77,0,0,0,1.45,3.51A5.12,5.12,0,0,1,7,37a1.48,1.48,0,0,1,.28.17,1.6,1.6,0,0,1,.49.61.77.77,0,0,1,0,.77c0,.2-.15.18-.15.18s-.15-.16-.15-.16a1,1,0,0,1-.09-.36,3.5,3.5,0,0,0-.32.39l-.26.21c-.52.29-.91-1.06-.91-1.06A14.59,14.59,0,0,1,5.08,32.92Zm2.08-3.33c.91,0,2.39.14,2.51-.18s-.76-.34-.76-.34-.82-.49.26-.8a3,3,0,0,1,2.19.38c-.28,1.37-1.12,1.49-1.12,1.49-.57.07-.6-.17-.94-.27s-2.74.39-3,.26S6.25,29.58,7.16,29.59ZM12,28.27a1.27,1.27,0,0,1,.19-.5.51.51,0,0,1,.26-.28c.26-.07.07.52.07.52a.81.81,0,0,0-.13.54,2.86,2.86,0,0,1-.05.6,17.08,17.08,0,0,1-.95,2c-.13.16-.13,0-.13,0-.09-.24.13-.61.13-.61A9.6,9.6,0,0,0,12,28.27Zm1.21,5.2c-.72.17-.69,3.14-.69,3.14a5.59,5.59,0,0,1-.37,2,3.94,3.94,0,0,1-.91,1.25,3,3,0,0,1-.57.52,11.7,11.7,0,0,1,.72-1c.28-.28.12-1.36.12-1.36A6.89,6.89,0,0,0,12,36.56a3.81,3.81,0,0,1,0-1.26,1.28,1.28,0,0,0-.19-1.06,1,1,0,0,1,0-.84c0-.28-.11-1-.11-1,.11-.3-.05-.69,0-1s.23-.18.37-.46a7.74,7.74,0,0,0,.32-1.17,9.89,9.89,0,0,1,0,1.95C12.47,32.12,13.88,33.31,13.16,33.47Zm9.1,13.23.35-1.58a1,1,0,0,1-.1-.63s.34-.78.22-1.08a3,3,0,0,1-.2-1.76s.67-3.36.58-3.55a16.34,16.34,0,0,1-.79-2.59,8.13,8.13,0,0,0-.48-1.43,4.1,4.1,0,0,0-.57-.88,5.06,5.06,0,0,0-.73-.78,4.27,4.27,0,0,0-.84-.57,3.71,3.71,0,0,0-.68-.46A8.48,8.48,0,0,0,18,31a5.71,5.71,0,0,0-1.09-.27c-.21,0-.63-.09-1.17-.09a2.39,2.39,0,0,1-.94-.1c-.18-.07-.55-.37-.77-.47s-.22-.18-.53-.31c0,0-.53-.46-.59-.55a2.4,2.4,0,0,1-.06-.48s0-.36,0-.54c0,0,.33-.93.14-1.14a1.55,1.55,0,0,1-.51.14.5.5,0,0,0-.36.15,3,3,0,0,0-.53.67l-.08.44s-1.53-.94-2-.75a4.16,4.16,0,0,0-.76.15s-.63.19-.8.21a5.76,5.76,0,0,0-.75.33,17.43,17.43,0,0,1-1.26,1.39,3.35,3.35,0,0,0-.59,0S5.18,30,5,29.54a6.77,6.77,0,0,0-.66-1.05A1.27,1.27,0,0,0,3.42,28s-.77-.42-.89-.32a12.46,12.46,0,0,0,0,1.29,12,12,0,0,0,.22,2.2c.17.34.26.18.71.5,0,0,.75.47.78.7a6.32,6.32,0,0,0-.36,1.08A6.82,6.82,0,0,1,4,34.54a9.14,9.14,0,0,0-.62,1.35,1.89,1.89,0,0,0-.08.71,1,1,0,0,1,.05.51S3,38.7,3,39a1.79,1.79,0,0,1,.36,1.08L3.12,41a3.42,3.42,0,0,0,.23,1.58,2.49,2.49,0,0,1,.4,1,14.7,14.7,0,0,0,.8,1.93,4.68,4.68,0,0,1,.51,1.12L5.73,48a2.47,2.47,0,0,0,.74.4,1.26,1.26,0,0,1,.5.25,6.19,6.19,0,0,1,1.26.8l0,.13a3.23,3.23,0,0,0-.53,1.05,7.39,7.39,0,0,0-.29,1.92s-.23.19,1,.44c0,0,2.76.31,3.43,0A2,2,0,0,0,12.1,52a6.17,6.17,0,0,0,0-1.15,1.41,1.41,0,0,0-.21-.46s-.22-.62-.07-.7L12,49.2a1.2,1.2,0,0,1,.13-.42,4.82,4.82,0,0,0,.13-.61,1.11,1.11,0,0,1,.31-.63,3,3,0,0,0,.65-1,5.19,5.19,0,0,1,.32-.92A5.17,5.17,0,0,0,14,45s.44-1.12.57-.87c0,0,.71,1.11.6,1.28,0,0-.56.63-.71.76a6.44,6.44,0,0,0-.43.73,1.87,1.87,0,0,1-.22.24.78.78,0,0,0-.12.54,3.92,3.92,0,0,1,0,.63s-.18.52-.22.65S13,50,13.39,50.25A2.76,2.76,0,0,0,15,50.06s1.37-.56,1.52-1a2.57,2.57,0,0,0-.16-1.37l0-.31a.38.38,0,0,1,.15-.38s.67-.86.76-1c0,0,0-.29.21-.33a1.82,1.82,0,0,0,.54-.72s.28-.36,0-.61c0,0-.42-.57-.24-.9a.53.53,0,0,1,.11-.19s.77-.29,1-.4a4.44,4.44,0,0,1,.76.36s.15.54.18.67a5.43,5.43,0,0,0-.14.78,2.42,2.42,0,0,0,.21.9,1.31,1.31,0,0,1,.09.61s-.05,1-.11,1.37a2.56,2.56,0,0,1,.05.72.35.35,0,0,0-.32.32.78.78,0,0,0-.32.89s0,.4.57.63A2.49,2.49,0,0,0,21.94,50s.7-.2.78-.7c0,0,.15-1.09-.15-1.49a3,3,0,0,1-.31-1.09" style="fill: #b8b8b8"/></g></g><rect class="cls-1" width="177.38" height="78.56"/></g></g></svg>